Blinker-SemiLight.ufo
<glyph name="exclam" format="1">
  <advance width="214"/>
  <unicode hex="0021"/>
  <outline>
    <contour>
      <point x="71" y="627" type="line"/>
      <point x="142" y="627" type="line"/>
      <point x="133" y="163" type="line"/>
      <point x="80" y="163" type="line"/>
    </contour>
    <contour>
      <point x="140" y="66" type="line"/>
      <point x="140" y="0" type="line"/>
      <point x="74" y="0" type="line"/>
      <point x="74" y="66" type="line"/>
    </contour>
  </outline>
</glyph>
<glyph name="quotedbl" format="1">
  <advance width="311"/>
  <unicode hex="0022"/>
  <outline>
    <contour>
      <point x="59" y="627" type="line"/>
      <point x="105" y="627" type="line"/>
      <point x="105" y="399" type="line"/>
      <point x="59" y="399" type="line"/>
    </contour>
    <contour>
      <point x="206" y="627" type="line"/>
      <point x="252" y="627" type="line"/>
      <point x="252" y="399" type="line"/>
      <point x="206" y="399" type="line"/>
    </contour>
  </outline>
</glyph>
<glyph name="numbersign" format="1">
  <advance width="580"/>
  <unicode hex="0023"/>
  <outline>
    <contour>
      <point x="550" y="493" type="line"/>
      <point x="550" y="448" type="line"/>
      <point x="456" y="448" type="line"/>
      <point x="415" y="189" type="line"/>
      <point x="515" y="189" type="line"/>
      <point x="515" y="144" type="line"/>
      <point x="407" y="144" type="line"/>
      <point x="383" y="0" type="line"/>
      <point x="336" y="0" type="line"/>
      <point x="359" y="144" type="line"/>
      <point x="168" y="144" type="line"/>
      <point x="145" y="0" type="line"/>
      <point x="96" y="0" type="line"/>
      <point x="120" y="144" type="line"/>
      <point x="31" y="144" type="line"/>
      <point x="31" y="189" type="line"/>
      <point x="129" y="189" type="line"/>
      <point x="171" y="448" type="line"/>
      <point x="66" y="448" type="line"/>
      <point x="66" y="493" type="line"/>
      <point x="179" y="493" type="line"/>
      <point x="200" y="627" type="line"/>
      <point x="248" y="627" type="line"/>
      <point x="226" y="493" type="line"/>
      <point x="417" y="493" type="line"/>
      <point x="439" y="627" type="line"/>
      <point x="486" y="627" type="line"/>
      <point x="465" y="493" type="line"/>
    </contour>
    <contour>
      <point x="367" y="189" type="line"/>
      <point x="409" y="448" type="line"/>
      <point x="219" y="448" type="line"/>
      <point x="176" y="189" type="line"/>
    </contour>
  </outline>
</glyph>
<glyph name="dollar" format="1">
  <advance width="484"/>
  <unicode hex="0024"/>
  <outline>
    <contour>
      <point x="268" y="-6" type="qcurve"/>
      <point x="268" y="-97" type="line"/>
      <point x="212" y="-97" type="line"/>
      <point x="212" y="-6" type="line"/>
      <point x="162" y="-4"/>
      <point x="71" y="12"/>
      <point x="44" y="22" type="qcurve"/>
      <point x="44" y="83" type="line"/>
      <point x="97" y="67"/>
      <point x="193" y="53"/>
      <point x="241" y="53" type="qcurve"/>
      <point x="318" y="53"/>
      <point x="383" y="107"/>
      <point x="383" y="176" type="qcurve"/>
      <point x="383" y="220"/>
      <point x="350" y="259"/>
      <point x="297" y="273" type="qcurve"/>
      <point x="160" y="311" type="line" smooth="yes"/>
      <point x="97" y="328"/>
      <point x="44" y="395"/>
      <point x="44" y="454" type="qcurve"/>
      <point x="44" y="538"/>
      <point x="126" y="627"/>
      <point x="212" y="635" type="qcurve"/>
      <point x="212" y="724" type="line"/>
      <point x="268" y="724" type="line"/>
      <point x="268" y="637" type="line"/>
      <point x="304" y="636"/>
      <point x="368" y="628"/>
      <point x="404" y="619" type="qcurve"/>
      <point x="404" y="560" type="line"/>
      <point x="363" y="570"/>
      <point x="291" y="578"/>
      <point x="253" y="578" type="qcurve" smooth="yes"/>
      <point x="176" y="578"/>
      <point x="108" y="522"/>
      <point x="108" y="459" type="qcurve"/>
      <point x="108" y="421"/>
      <point x="141" y="382"/>
      <point x="182" y="370" type="qcurve"/>
      <point x="319" y="331" type="line" smooth="yes"/>
      <point x="400" y="309"/>
      <point x="449" y="244"/>
      <point x="449" y="177" type="qcurve"/>
      <point x="449" y="86"/>
      <point x="361" y="-1"/>
    </contour>
  </outline>
</glyph>
<glyph name="ampersand" format="1">
  <advance width="719"/>
  <unicode hex="0026"/>
  <outline>
    <contour>
      <point x="326" y="53" type="qcurve" smooth="yes"/>
      <point x="378" y="53"/>
      <point x="457" y="67"/>
      <point x="480" y="81" type="qcurve"/>
      <point x="480" y="341" type="line"/>
      <point x="699" y="341" type="line"/>
      <point x="699" y="287" type="line"/>
      <point x="541" y="287" type="line"/>
      <point x="541" y="45" type="line"/>
      <point x="504" y="19"/>
      <point x="396" y="-7"/>
      <point x="326" y="-7" type="qcurve"/>
      <point x="183" y="-7"/>
      <point x="50" y="153"/>
      <point x="50" y="328" type="qcurve"/>
      <point x="50" y="485"/>
      <point x="182" y="637"/>
      <point x="317" y="637" type="qcurve"/>
      <point x="410" y="637"/>
      <point x="513" y="550"/>
      <point x="513" y="473" type="qcurve" smooth="yes"/>
      <point x="513" y="363"/>
      <point x="330" y="267"/>
      <point x="118" y="264" type="qcurve"/>
      <point x="127" y="152"/>
      <point x="226" y="53"/>
    </contour>
    <contour>
      <point x="313" y="578" type="qcurve"/>
      <point x="208" y="578"/>
      <point x="115" y="462"/>
      <point x="115" y="332" type="qcurve"/>
      <point x="115" y="329"/>
      <point x="115" y="322"/>
      <point x="115" y="319" type="qcurve"/>
      <point x="295" y="321"/>
      <point x="452" y="390"/>
      <point x="452" y="469" type="qcurve" smooth="yes"/>
      <point x="452" y="520"/>
      <point x="379" y="578"/>
    </contour>
  </outline>
</glyph>
<glyph name="quotesingle" format="1">
  <advance width="168"/>
  <unicode hex="0027"/>
  <outline>
    <contour>
      <point x="59" y="627" type="line"/>
      <point x="109" y="627" type="line"/>
      <point x="109" y="399" type="line"/>
      <point x="59" y="399" type="line"/>
    </contour>
  </outline>
</glyph>
<glyph name="parenleft" format="1">
  <advance width="217"/>
  <unicode hex="0028"/>
  <outline>
    <contour>
      <point x="106" y="313" type="qcurve"/>
      <point x="106" y="203"/>
      <point x="145" y="5"/>
      <point x="182" y="-66" type="qcurve"/>
      <point x="139" y="-80" type="line"/>
      <point x="96" y="-2"/>
      <point x="50" y="200"/>
      <point x="50" y="313" type="qcurve"/>
      <point x="50" y="430"/>
      <point x="95" y="631"/>
      <point x="139" y="707" type="qcurve"/>
      <point x="181" y="693" type="line"/>
      <point x="145" y="623"/>
      <point x="106" y="426"/>
    </contour>
  </outline>
</glyph>
<glyph name="parenright" format="1">
  <advance width="217"/>
  <unicode hex="0029"/>
  <outline>
    <contour>
      <point x="111" y="313" type="qcurve"/>
      <point x="111" y="426"/>
      <point x="72" y="623"/>
      <point x="36" y="693" type="qcurve"/>
      <point x="78" y="707" type="line"/>
      <point x="122" y="631"/>
      <point x="167" y="430"/>
      <point x="167" y="313" type="qcurve"/>
      <point x="167" y="200"/>
      <point x="121" y="-2"/>
      <point x="78" y="-80" type="qcurve"/>
      <point x="35" y="-66" type="line"/>
      <point x="72" y="5"/>
      <point x="111" y="203"/>
    </contour>
  </outline>
</glyph>
<glyph name="asterisk" format="1">
  <advance width="387"/>
  <unicode hex="002A"/>
  <outline>
    <contour>
      <point x="225" y="455" type="line"/>
      <point x="308" y="346" type="line"/>
      <point x="268" y="317" type="line"/>
      <point x="193" y="430" type="line"/>
      <point x="116" y="319" type="line"/>
      <point x="76" y="348" type="line"/>
      <point x="161" y="454" type="line"/>
      <point x="31" y="494" type="line"/>
      <point x="48" y="541" type="line"/>
      <point x="173" y="493" type="line"/>
      <point x="169" y="627" type="line"/>
      <point x="218" y="627" type="line"/>
      <point x="214" y="493" type="line"/>
      <point x="341" y="538" type="line"/>
      <point x="356" y="491" type="line"/>
    </contour>
  </outline>
</glyph>
<glyph name="comma" format="1">
  <advance width="162"/>
  <unicode hex="002C"/>
  <outline>
    <contour>
      <point x="116" y="71" type="line"/>
      <point x="93" y="-77" type="line" smooth="yes"/>
      <point x="91" y="-90"/>
      <point x="76" y="-103"/>
      <point x="64" y="-103" type="qcurve"/>
      <point x="46" y="-103" type="line"/>
      <point x="52" y="71" type="line"/>
    </contour>
  </outline>
</glyph>
<glyph name="period" format="1">
  <advance width="160"/>
  <unicode hex="002E"/>
  <outline>
    <contour>
      <point x="112" y="0" type="line"/>
      <point x="48" y="0" type="line"/>
      <point x="48" y="67" type="line"/>
      <point x="112" y="67" type="line"/>
    </contour>
  </outline>
</glyph>
<glyph name="zero" format="1">
  <advance width="574"/>
  <unicode hex="0030"/>
  <outline>
    <contour>
      <point x="519" y="315" type="qcurve"/>
      <point x="519" y="137"/>
      <point x="417" y="-7"/>
      <point x="288" y="-7" type="qcurve"/>
      <point x="205" y="-7"/>
      <point x="112" y="36"/>
      <point x="88" y="84" type="qcurve" smooth="yes"/>
      <point x="71" y="120"/>
      <point x="55" y="231"/>
      <point x="55" y="315" type="qcurve"/>
      <point x="55" y="494"/>
      <point x="158" y="637"/>
      <point x="288" y="637" type="qcurve"/>
      <point x="371" y="637"/>
      <point x="463" y="594"/>
      <point x="486" y="545" type="qcurve" smooth="yes"/>
      <point x="503" y="509"/>
      <point x="519" y="399"/>
    </contour>
    <contour>
      <point x="434" y="497" type="qcurve" smooth="yes"/>
      <point x="419" y="541"/>
      <point x="353" y="578"/>
      <point x="288" y="578" type="qcurve"/>
      <point x="191" y="578"/>
      <point x="120" y="467"/>
      <point x="120" y="315" type="qcurve"/>
      <point x="120" y="248"/>
      <point x="130" y="162"/>
      <point x="140" y="133" type="qcurve" smooth="yes"/>
      <point x="156" y="90"/>
      <point x="223" y="53"/>
      <point x="288" y="53" type="qcurve"/>
      <point x="384" y="53"/>
      <point x="454" y="164"/>
      <point x="454" y="315" type="qcurve"/>
      <point x="454" y="381"/>
      <point x="445" y="468"/>
    </contour>
  </outline>
</glyph>
<glyph name="two" format="1">
  <advance width="451"/>
  <unicode hex="0032"/>
  <outline>
    <contour>
      <point x="408" y="61" type="line"/>
      <point x="408" y="0" type="line"/>
      <point x="30" y="0" type="line"/>
      <point x="30" y="61" type="line"/>
      <point x="261" y="322" type="line" smooth="yes"/>
      <point x="301" y="369"/>
      <point x="333" y="439"/>
      <point x="333" y="476" type="qcurve"/>
      <point x="333" y="525"/>
      <point x="277" y="578"/>
      <point x="224" y="578" type="qcurve"/>
      <point x="185" y="578"/>
      <point x="86" y="565"/>
      <point x="61" y="557" type="qcurve"/>
      <point x="61" y="614" type="line"/>
      <point x="99" y="625"/>
      <point x="186" y="637"/>
      <point x="232" y="637" type="qcurve"/>
      <point x="312" y="637"/>
      <point x="397" y="556"/>
      <point x="397" y="482" type="qcurve"/>
      <point x="397" y="433"/>
      <point x="359" y="346"/>
      <point x="313" y="294" type="qcurve"/>
      <point x="106" y="61" type="line"/>
    </contour>
  </outline>
</glyph>
<glyph name="three" format="1">
  <advance width="461"/>
  <unicode hex="0033"/>
  <outline>
    <contour>
      <point x="384" y="479" type="qcurve"/>
      <point x="384" y="421"/>
      <point x="329" y="345"/>
      <point x="278" y="330" type="qcurve"/>
      <point x="278" y="328" type="line"/>
      <point x="343" y="324"/>
      <point x="412" y="244"/>
      <point x="412" y="173" type="qcurve"/>
      <point x="412" y="85"/>
      <point x="306" y="-7"/>
      <point x="205" y="-7" type="qcurve"/>
      <point x="149" y="-7"/>
      <point x="67" y="2"/>
      <point x="37" y="12" type="qcurve"/>
      <point x="37" y="70" type="line"/>
      <point x="77" y="60"/>
      <point x="148" y="53"/>
      <point x="196" y="53" type="qcurve"/>
      <point x="274" y="53"/>
      <point x="351" y="114"/>
      <point x="351" y="177" type="qcurve"/>
      <point x="351" y="238"/>
      <point x="283" y="294"/>
      <point x="210" y="294" type="qcurve"/>
      <point x="114" y="294" type="line"/>
      <point x="114" y="350" type="line"/>
      <point x="191" y="350" type="line"/>
      <point x="252" y="350"/>
      <point x="323" y="413"/>
      <point x="323" y="470" type="qcurve"/>
      <point x="323" y="527"/>
      <point x="267" y="578"/>
      <point x="206" y="578" type="qcurve"/>
      <point x="169" y="578"/>
      <point x="85" y="567"/>
      <point x="57" y="559" type="qcurve"/>
      <point x="57" y="615" type="line"/>
      <point x="95" y="626"/>
      <point x="176" y="637"/>
      <point x="219" y="637" type="qcurve"/>
      <point x="300" y="637"/>
      <point x="384" y="557"/>
    </contour>
  </outline>
</glyph>
<glyph name="four" format="1">
  <advance width="519"/>
  <unicode hex="0034"/>
  <outline>
    <contour>
      <point x="490" y="229" type="line"/>
      <point x="490" y="173" type="line"/>
      <point x="399" y="173" type="line"/>
      <point x="399" y="0" type="line"/>
      <point x="335" y="0" type="line"/>
      <point x="335" y="173" type="line"/>
      <point x="39" y="173" type="line"/>
      <point x="39" y="229" type="line"/>
      <point x="117" y="627" type="line"/>
      <point x="179" y="627" type="line"/>
      <point x="104" y="229" type="line"/>
      <point x="335" y="229" type="line"/>
      <point x="335" y="517" type="line"/>
      <point x="399" y="517" type="line"/>
      <point x="399" y="229" type="line"/>
    </contour>
  </outline>
</glyph>
<glyph name="five" format="1">
  <advance width="460"/>
  <unicode hex="0035"/>
  <outline>
    <contour>
      <point x="419" y="184" type="qcurve" smooth="yes"/>
      <point x="419" y="87"/>
      <point x="320" y="-7"/>
      <point x="216" y="-7" type="qcurve"/>
      <point x="159" y="-7"/>
      <point x="71" y="3"/>
      <point x="44" y="12" type="qcurve"/>
      <point x="44" y="71" type="line"/>
      <point x="79" y="62"/>
      <point x="157" y="53"/>
      <point x="202" y="53" type="qcurve"/>
      <point x="285" y="53"/>
      <point x="355" y="114"/>
      <point x="355" y="185" type="qcurve" smooth="yes"/>
      <point x="355" y="248"/>
      <point x="288" y="301"/>
      <point x="198" y="301" type="qcurve" smooth="yes"/>
      <point x="162" y="301"/>
      <point x="103" y="295"/>
      <point x="74" y="289" type="qcurve"/>
      <point x="74" y="627" type="line"/>
      <point x="379" y="627" type="line"/>
      <point x="379" y="568" type="line"/>
      <point x="138" y="568" type="line"/>
      <point x="138" y="350" type="line"/>
      <point x="171" y="354"/>
      <point x="208" y="357"/>
      <point x="226" y="357" type="qcurve" smooth="yes"/>
      <point x="329" y="357"/>
      <point x="419" y="274"/>
    </contour>
  </outline>
</glyph>
<glyph name="six" format="1">
  <advance width="519"/>
  <unicode hex="0036"/>
  <outline>
    <contour>
      <point x="269" y="-7" type="qcurve"/>
      <point x="152" y="-7"/>
      <point x="54" y="133"/>
      <point x="54" y="297" type="qcurve"/>
      <point x="54" y="481"/>
      <point x="179" y="637"/>
      <point x="323" y="637" type="qcurve"/>
      <point x="344" y="637"/>
      <point x="394" y="633"/>
      <point x="407" y="630" type="qcurve"/>
      <point x="407" y="573" type="line"/>
      <point x="382" y="576"/>
      <point x="343" y="578"/>
      <point x="323" y="578" type="qcurve"/>
      <point x="215" y="578"/>
      <point x="124" y="476"/>
      <point x="118" y="345" type="qcurve"/>
      <point x="168" y="374"/>
      <point x="258" y="398"/>
      <point x="309" y="398" type="qcurve"/>
      <point x="398" y="398"/>
      <point x="481" y="306"/>
      <point x="481" y="209" type="qcurve"/>
      <point x="481" y="107"/>
      <point x="369" y="-7"/>
    </contour>
    <contour>
      <point x="117" y="293" type="qcurve"/>
      <point x="117" y="292" type="line"/>
      <point x="117" y="161"/>
      <point x="184" y="53"/>
      <point x="267" y="53" type="qcurve"/>
      <point x="342" y="53"/>
      <point x="419" y="132"/>
      <point x="419" y="207" type="qcurve"/>
      <point x="419" y="281"/>
      <point x="358" y="343"/>
      <point x="284" y="343" type="qcurve"/>
      <point x="244" y="343"/>
      <point x="159" y="318"/>
    </contour>
  </outline>
</glyph>
<glyph name="seven" format="1">
  <advance width="444"/>
  <unicode hex="0037"/>
  <outline>
    <contour>
      <point x="418" y="627" type="line"/>
      <point x="418" y="569" type="line"/>
      <point x="114" y="0" type="line"/>
      <point x="42" y="0" type="line"/>
      <point x="349" y="568" type="line"/>
      <point x="32" y="568" type="line"/>
      <point x="32" y="627" type="line"/>
    </contour>
  </outline>
</glyph>
<glyph name="eight" format="1">
  <advance width="528"/>
  <unicode hex="0038"/>
  <outline>
    <contour>
      <point x="476" y="167" type="qcurve"/>
      <point x="476" y="77"/>
      <point x="373" y="-7"/>
      <point x="263" y="-7" type="qcurve"/>
      <point x="153" y="-7"/>
      <point x="52" y="73"/>
      <point x="52" y="160" type="qcurve"/>
      <point x="52" y="228"/>
      <point x="120" y="313"/>
      <point x="183" y="322" type="qcurve"/>
      <point x="124" y="331"/>
      <point x="64" y="408"/>
      <point x="64" y="474" type="qcurve"/>
      <point x="64" y="557"/>
      <point x="161" y="637"/>
      <point x="263" y="637" type="qcurve"/>
      <point x="368" y="637"/>
      <point x="465" y="561"/>
      <point x="465" y="478" type="qcurve"/>
      <point x="465" y="411"/>
      <point x="404" y="332"/>
      <point x="344" y="322" type="qcurve"/>
      <point x="408" y="314"/>
      <point x="476" y="233"/>
    </contour>
    <contour>
      <point x="407" y="468" type="qcurve"/>
      <point x="407" y="527"/>
      <point x="338" y="580"/>
      <point x="263" y="580" type="qcurve"/>
      <point x="189" y="580"/>
      <point x="122" y="526"/>
      <point x="122" y="466" type="qcurve"/>
      <point x="122" y="403"/>
      <point x="190" y="346"/>
      <point x="262" y="346" type="qcurve"/>
      <point x="337" y="346"/>
      <point x="407" y="404"/>
    </contour>
    <contour>
      <point x="416" y="174" type="qcurve"/>
      <point x="416" y="236"/>
      <point x="342" y="293"/>
      <point x="262" y="293" type="qcurve"/>
      <point x="185" y="293"/>
      <point x="113" y="233"/>
      <point x="113" y="169" type="qcurve"/>
      <point x="113" y="108"/>
      <point x="185" y="52"/>
      <point x="263" y="52" type="qcurve"/>
      <point x="343" y="52"/>
      <point x="416" y="110"/>
    </contour>
  </outline>
</glyph>
<glyph name="nine" format="1">
  <advance width="516"/>
  <unicode hex="0039"/>
  <outline>
    <contour>
      <point x="251" y="637" type="qcurve"/>
      <point x="368" y="637"/>
      <point x="461" y="501"/>
      <point x="461" y="333" type="qcurve"/>
      <point x="461" y="150"/>
      <point x="335" y="-7"/>
      <point x="192" y="-7" type="qcurve"/>
      <point x="167" y="-7"/>
      <point x="117" y="-3"/>
      <point x="105" y="0" type="qcurve"/>
      <point x="105" y="59" type="line"/>
      <point x="124" y="56"/>
      <point x="168" y="53"/>
      <point x="192" y="53" type="qcurve"/>
      <point x="299" y="53"/>
      <point x="391" y="157"/>
      <point x="396" y="288" type="qcurve"/>
      <point x="356" y="261"/>
      <point x="268" y="235"/>
      <point x="218" y="235" type="qcurve"/>
      <point x="126" y="235"/>
      <point x="39" y="328"/>
      <point x="39" y="427" type="qcurve"/>
      <point x="39" y="527"/>
      <point x="150" y="637"/>
    </contour>
    <contour>
      <point x="251" y="578" type="qcurve"/>
      <point x="178" y="578"/>
      <point x="102" y="502"/>
      <point x="102" y="430" type="qcurve"/>
      <point x="102" y="354"/>
      <point x="164" y="291"/>
      <point x="241" y="291" type="qcurve"/>
      <point x="281" y="291"/>
      <point x="360" y="316"/>
      <point x="397" y="340" type="qcurve"/>
      <point x="397" y="475"/>
      <point x="334" y="578"/>
    </contour>
  </outline>
</glyph>
<glyph name="less" format="1">
  <advance width="500"/>
  <unicode hex="003C"/>
  <outline>
    <contour>
      <point x="463" y="146" type="line"/>
      <point x="463" y="84" type="line"/>
      <point x="37" y="278" type="line"/>
      <point x="37" y="347" type="line"/>
      <point x="463" y="540" type="line"/>
      <point x="463" y="479" type="line"/>
      <point x="83" y="313" type="line"/>
    </contour>
  </outline>
</glyph>
<glyph name="greater" format="1">
  <advance width="500"/>
  <unicode hex="003E"/>
  <outline>
    <contour>
      <point x="463" y="278" type="line"/>
      <point x="37" y="84" type="line"/>
      <point x="37" y="146" type="line"/>
      <point x="417" y="313" type="line"/>
      <point x="37" y="479" type="line"/>
      <point x="37" y="540" type="line"/>
      <point x="463" y="347" type="line"/>
    </contour>
  </outline>
</glyph>
<glyph name="question" format="1">
  <advance width="386"/>
  <unicode hex="003F"/>
  <outline>
    <contour>
      <point x="186" y="637" type="qcurve"/>
      <point x="267" y="637"/>
      <point x="357" y="567"/>
      <point x="357" y="503" type="qcurve" smooth="yes"/>
      <point x="357" y="443"/>
      <point x="276" y="342"/>
      <point x="190" y="296" type="qcurve"/>
      <point x="190" y="164" type="line"/>
      <point x="132" y="164" type="line"/>
      <point x="132" y="323" type="line"/>
      <point x="219" y="365"/>
      <point x="296" y="445"/>
      <point x="296" y="490" type="qcurve" smooth="yes"/>
      <point x="296" y="533"/>
      <point x="234" y="579"/>
      <point x="178" y="579" type="qcurve"/>
      <point x="140" y="579"/>
      <point x="57" y="564"/>
      <point x="24" y="551" type="qcurve"/>
      <point x="24" y="609" type="line"/>
      <point x="60" y="623"/>
      <point x="141" y="637"/>
    </contour>
    <contour>
      <point x="193" y="66" type="line"/>
      <point x="193" y="0" type="line"/>
      <point x="127" y="0" type="line"/>
      <point x="127" y="66" type="line"/>
    </contour>
  </outline>
</glyph>
<glyph name="at" format="1">
  <advance width="659"/>
  <unicode hex="0040"/>
  <outline>
    <contour>
      <point x="304" y="72" type="qcurve"/>
      <point x="256" y="72"/>
      <point x="209" y="123"/>
      <point x="209" y="174" type="qcurve"/>
      <point x="209" y="226"/>
      <point x="265" y="270"/>
      <point x="332" y="270" type="qcurve"/>
      <point x="354" y="270"/>
      <point x="400" y="266"/>
      <point x="419" y="262" type="qcurve"/>
      <point x="419" y="291" type="line" smooth="yes"/>
      <point x="419" y="332"/>
      <point x="380" y="367"/>
      <point x="340" y="367" type="qcurve" smooth="yes"/>
      <point x="311" y="367"/>
      <point x="264" y="362"/>
      <point x="242" y="356" type="qcurve"/>
      <point x="242" y="400" type="line"/>
      <point x="267" y="407"/>
      <point x="316" y="412"/>
      <point x="350" y="412" type="qcurve"/>
      <point x="409" y="412"/>
      <point x="465" y="357"/>
      <point x="465" y="296" type="qcurve"/>
      <point x="465" y="155" type="line" smooth="yes"/>
      <point x="465" y="135"/>
      <point x="478" y="117"/>
      <point x="491" y="117" type="qcurve"/>
      <point x="526" y="117"/>
      <point x="568" y="208"/>
      <point x="568" y="284" type="qcurve"/>
      <point x="568" y="397"/>
      <point x="459" y="510"/>
      <point x="350" y="510" type="qcurve"/>
      <point x="217" y="510"/>
      <point x="101" y="382"/>
      <point x="101" y="236" type="qcurve" smooth="yes"/>
      <point x="101" y="99"/>
      <point x="226" y="-27"/>
      <point x="364" y="-27" type="qcurve"/>
      <point x="414" y="-27"/>
      <point x="501" y="-7"/>
      <point x="537" y="12" type="qcurve"/>
      <point x="537" y="-36" type="line"/>
      <point x="503" y="-55"/>
      <point x="409" y="-76"/>
      <point x="354" y="-76" type="qcurve"/>
      <point x="197" y="-76"/>
      <point x="48" y="77"/>
      <point x="48" y="236" type="qcurve" smooth="yes"/>
      <point x="48" y="398"/>
      <point x="197" y="557"/>
      <point x="350" y="557" type="qcurve"/>
      <point x="481" y="557"/>
      <point x="618" y="419"/>
      <point x="618" y="289" type="qcurve"/>
      <point x="618" y="188"/>
      <point x="547" y="72"/>
      <point x="484" y="72" type="qcurve"/>
      <point x="462" y="72"/>
      <point x="433" y="94"/>
      <point x="427" y="114" type="qcurve"/>
      <point x="405" y="94"/>
      <point x="341" y="72"/>
    </contour>
    <contour>
      <point x="338" y="233" type="qcurve"/>
      <point x="291" y="233"/>
      <point x="256" y="209"/>
      <point x="256" y="177" type="qcurve"/>
      <point x="256" y="144"/>
      <point x="285" y="116"/>
      <point x="318" y="116" type="qcurve"/>
      <point x="349" y="116"/>
      <point x="402" y="133"/>
      <point x="419" y="148" type="qcurve"/>
      <point x="419" y="226" type="line"/>
      <point x="385" y="231"/>
      <point x="354" y="233"/>
    </contour>
  </outline>
</glyph>
<glyph name="A" format="1">
  <advance width="596"/>
  <unicode hex="0041"/>
  <outline>
    <contour>
      <point x="81" y="0" type="line"/>
      <point x="13" y="0" type="line"/>
      <point x="265" y="627" type="line"/>
      <point x="332" y="627" type="line"/>
      <point x="583" y="0" type="line"/>
      <point x="514" y="0" type="line"/>
      <point x="450" y="165" type="line"/>
      <point x="146" y="165" type="line"/>
    </contour>
    <contour>
      <point x="297" y="570" type="qcurve"/>
      <point x="289" y="545"/>
      <point x="269" y="485"/>
      <point x="246" y="422" type="qcurve"/>
      <point x="168" y="222" type="line"/>
      <point x="428" y="222" type="line"/>
      <point x="350" y="422" type="line" smooth="yes"/>
      <point x="335" y="461"/>
      <point x="308" y="536"/>
    </contour>
    <contour>
      <point x="298" y="645" type="move" name="top"/>
    </contour>
    <contour>
      <point x="581" y="0" type="move" name="ogonek"/>
    </contour>
  </outline>
</glyph>
<glyph name="B" format="1">
  <advance width="562"/>
  <unicode hex="0042"/>
  <outline>
    <contour>
      <point x="517" y="179" type="qcurve"/>
      <point x="517" y="83"/>
      <point x="415" y="0"/>
      <point x="301" y="0" type="qcurve"/>
      <point x="79" y="0" type="line"/>
      <point x="79" y="627" type="line"/>
      <point x="300" y="627" type="line" smooth="yes"/>
      <point x="403" y="627"/>
      <point x="490" y="558"/>
      <point x="490" y="474" type="qcurve"/>
      <point x="490" y="412"/>
      <point x="444" y="344"/>
      <point x="391" y="333" type="qcurve"/>
      <point x="454" y="326"/>
      <point x="517" y="249"/>
    </contour>
    <contour>
      <point x="430" y="465" type="qcurve"/>
      <point x="430" y="524"/>
      <point x="373" y="570"/>
      <point x="301" y="570" type="qcurve"/>
      <point x="143" y="570" type="line"/>
      <point x="143" y="351" type="line"/>
      <point x="301" y="351" type="line" smooth="yes"/>
      <point x="369" y="351"/>
      <point x="430" y="405"/>
    </contour>
    <contour>
      <point x="455" y="182" type="qcurve"/>
      <point x="455" y="246"/>
      <point x="386" y="296"/>
      <point x="301" y="296" type="qcurve"/>
      <point x="143" y="296" type="line"/>
      <point x="143" y="58" type="line"/>
      <point x="301" y="58" type="line" smooth="yes"/>
      <point x="385" y="58"/>
      <point x="455" y="113"/>
    </contour>
  </outline>
</glyph>
<glyph name="C" format="1">
  <advance width="523"/>
  <unicode hex="0043"/>
  <outline>
    <contour>
      <point x="323" y="53" type="qcurve" smooth="yes"/>
      <point x="364" y="53"/>
      <point x="453" y="73"/>
      <point x="494" y="90" type="qcurve"/>
      <point x="494" y="32" type="line"/>
      <point x="439" y="10"/>
      <point x="355" y="-7"/>
      <point x="310" y="-7" type="qcurve" smooth="yes"/>
      <point x="168" y="-7"/>
      <point x="50" y="142"/>
      <point x="50" y="315" type="qcurve" smooth="yes"/>
      <point x="50" y="482"/>
      <point x="185" y="637"/>
      <point x="333" y="637" type="qcurve"/>
      <point x="379" y="637"/>
      <point x="451" y="633"/>
      <point x="480" y="628" type="qcurve"/>
      <point x="480" y="570" type="line"/>
      <point x="446" y="574"/>
      <point x="376" y="578"/>
      <point x="333" y="578" type="qcurve"/>
      <point x="214" y="578"/>
      <point x="116" y="457"/>
      <point x="116" y="315" type="qcurve" smooth="yes"/>
      <point x="116" y="169"/>
      <point x="205" y="53"/>
    </contour>
    <contour>
      <point x="317" y="655" type="move" name="top"/>
    </contour>
    <contour>
      <point x="303" y="0" type="move" name="bottom"/>
    </contour>
  </outline>
</glyph>
<glyph name="D" format="1">
  <advance width="609"/>
  <unicode hex="0044"/>
  <outline>
    <contour>
      <point x="250" y="0" type="qcurve"/>
      <point x="79" y="0" type="line"/>
      <point x="79" y="627" type="line"/>
      <point x="250" y="627" type="line" smooth="yes"/>
      <point x="347" y="627"/>
      <point x="460" y="596"/>
      <point x="494" y="561" type="qcurve" smooth="yes"/>
      <point x="527" y="526"/>
      <point x="558" y="407"/>
      <point x="558" y="314" type="qcurve"/>
      <point x="558" y="151"/>
      <point x="412" y="0"/>
    </contour>
    <contour>
      <point x="445" y="514" type="qcurve" smooth="yes"/>
      <point x="419" y="543"/>
      <point x="329" y="568"/>
      <point x="250" y="568" type="qcurve"/>
      <point x="143" y="568" type="line"/>
      <point x="143" y="61" type="line"/>
      <point x="250" y="61" type="line" smooth="yes"/>
      <point x="383" y="61"/>
      <point x="492" y="177"/>
      <point x="492" y="314" type="qcurve"/>
      <point x="492" y="391"/>
      <point x="469" y="486"/>
    </contour>
    <contour>
      <point x="290" y="645" type="move" name="top"/>
    </contour>
  </outline>
</glyph>
<glyph name="E" format="1">
  <advance width="528"/>
  <unicode hex="0045"/>
  <outline>
    <contour>
      <point x="490" y="61" type="line"/>
      <point x="490" y="0" type="line"/>
      <point x="79" y="0" type="line"/>
      <point x="79" y="627" type="line"/>
      <point x="481" y="627" type="line"/>
      <point x="481" y="568" type="line"/>
      <point x="143" y="568" type="line"/>
      <point x="143" y="350" type="line"/>
      <point x="444" y="350" type="line"/>
      <point x="444" y="293" type="line"/>
      <point x="143" y="293" type="line"/>
      <point x="143" y="61" type="line"/>
    </contour>
    <contour>
      <point x="288" y="645" type="move" name="top"/>
    </contour>
    <contour>
      <point x="432" y="0" type="move" name="ogonek"/>
    </contour>
  </outline>
</glyph>
<glyph name="F" format="1">
  <advance width="502"/>
  <unicode hex="0046"/>
  <outline>
    <contour>
      <point x="143" y="268" type="line"/>
      <point x="143" y="0" type="line"/>
      <point x="79" y="0" type="line"/>
      <point x="79" y="627" type="line"/>
      <point x="475" y="627" type="line"/>
      <point x="475" y="568" type="line"/>
      <point x="143" y="568" type="line"/>
      <point x="143" y="325" type="line"/>
      <point x="438" y="325" type="line"/>
      <point x="438" y="268" type="line"/>
    </contour>
  </outline>
</glyph>
<glyph name="G" format="1">
  <advance width="603"/>
  <unicode hex="0047"/>
  <outline>
    <contour>
      <point x="491" y="266" type="line"/>
      <point x="312" y="266" type="line"/>
      <point x="312" y="323" type="line"/>
      <point x="552" y="323" type="line"/>
      <point x="552" y="31" type="line"/>
      <point x="524" y="18"/>
      <point x="380" y="-7"/>
      <point x="321" y="-7" type="qcurve"/>
      <point x="168" y="-7"/>
      <point x="51" y="137"/>
      <point x="51" y="314" type="qcurve" smooth="yes"/>
      <point x="51" y="479"/>
      <point x="192" y="637"/>
      <point x="341" y="637" type="qcurve"/>
      <point x="393" y="637"/>
      <point x="487" y="632"/>
      <point x="518" y="627" type="qcurve"/>
      <point x="518" y="570" type="line"/>
      <point x="478" y="574"/>
      <point x="385" y="578"/>
      <point x="341" y="578" type="qcurve" smooth="yes"/>
      <point x="220" y="578"/>
      <point x="117" y="455"/>
      <point x="117" y="314" type="qcurve" smooth="yes"/>
      <point x="117" y="242"/>
      <point x="134" y="147"/>
      <point x="152" y="118" type="qcurve" smooth="yes"/>
      <point x="174" y="82"/>
      <point x="256" y="51"/>
      <point x="331" y="51" type="qcurve"/>
      <point x="364" y="51"/>
      <point x="454" y="63"/>
      <point x="491" y="72" type="qcurve"/>
    </contour>
    <contour>
      <point x="338" y="655" type="move" name="top"/>
    </contour>
    <contour>
      <point x="329" y="0" type="move" name="bottom"/>
    </contour>
  </outline>
</glyph>
<glyph name="H" format="1">
  <advance width="647"/>
  <unicode hex="0048"/>
  <outline>
    <contour>
      <point x="143" y="0" type="line"/>
      <point x="79" y="0" type="line"/>
      <point x="79" y="627" type="line"/>
      <point x="143" y="627" type="line"/>
      <point x="143" y="348" type="line"/>
      <point x="503" y="348" type="line"/>
      <point x="503" y="627" type="line"/>
      <point x="568" y="627" type="line"/>
      <point x="568" y="0" type="line"/>
      <point x="503" y="0" type="line"/>
      <point x="503" y="288" type="line"/>
      <point x="143" y="288" type="line"/>
    </contour>
    <contour>
      <point x="323" y="645" type="move" name="top"/>
    </contour>
  </outline>
</glyph>
<glyph name="J" format="1">
  <advance width="434"/>
  <unicode hex="004A"/>
  <outline>
    <contour>
      <point x="296" y="231" type="qcurve"/>
      <point x="296" y="627" type="line"/>
      <point x="360" y="627" type="line"/>
      <point x="360" y="227" type="line" smooth="yes"/>
      <point x="360" y="105"/>
      <point x="254" y="-7"/>
      <point x="137" y="-7" type="qcurve"/>
      <point x="102" y="-7"/>
      <point x="44" y="-1"/>
      <point x="20" y="6" type="qcurve"/>
      <point x="20" y="66" type="line"/>
      <point x="47" y="59"/>
      <point x="98" y="53"/>
      <point x="127" y="53" type="qcurve"/>
      <point x="220" y="53"/>
      <point x="296" y="134"/>
    </contour>
    <contour>
      <point x="328" y="645" type="move" name="top"/>
    </contour>
  </outline>
</glyph>
<glyph name="K" format="1">
  <advance width="575"/>
  <unicode hex="004B"/>
  <outline>
    <contour>
      <point x="293" y="320" type="line"/>
      <point x="568" y="0" type="line"/>
      <point x="483" y="0" type="line"/>
      <point x="237" y="290" type="line"/>
      <point x="143" y="290" type="line"/>
      <point x="143" y="0" type="line"/>
      <point x="79" y="0" type="line"/>
      <point x="79" y="627" type="line"/>
      <point x="143" y="627" type="line"/>
      <point x="143" y="347" type="line"/>
      <point x="237" y="347" type="line"/>
      <point x="477" y="627" type="line"/>
      <point x="557" y="627" type="line"/>
    </contour>
    <contour>
      <point x="280" y="0" type="move" name="bottom"/>
    </contour>
  </outline>
</glyph>
<glyph name="M" format="1">
  <advance width="738"/>
  <unicode hex="004D"/>
  <outline>
    <contour>
      <point x="659" y="627" type="line"/>
      <point x="659" y="0" type="line"/>
      <point x="598" y="0" type="line"/>
      <point x="598" y="529" type="line"/>
      <point x="398" y="127" type="line"/>
      <point x="340" y="127" type="line"/>
      <point x="140" y="530" type="line"/>
      <point x="140" y="0" type="line"/>
      <point x="79" y="0" type="line"/>
      <point x="79" y="627" type="line"/>
      <point x="161" y="627" type="line"/>
      <point x="370" y="204" type="line"/>
      <point x="579" y="627" type="line"/>
    </contour>
  </outline>
</glyph>
<glyph name="N" format="1">
  <advance width="662"/>
  <unicode hex="004E"/>
  <outline>
    <contour>
      <point x="583" y="627" type="line"/>
      <point x="583" y="0" type="line"/>
      <point x="515" y="0" type="line"/>
      <point x="140" y="525" type="line"/>
      <point x="140" y="0" type="line"/>
      <point x="79" y="0" type="line"/>
      <point x="79" y="627" type="line"/>
      <point x="147" y="627" type="line"/>
      <point x="522" y="97" type="line"/>
      <point x="522" y="627" type="line"/>
    </contour>
    <contour>
      <point x="336" y="645" type="move" name="top"/>
    </contour>
    <contour>
      <point x="334" y="0" type="move" name="bottom"/>
    </contour>
  </outline>
</glyph>
<glyph name="O" format="1">
  <advance width="653"/>
  <unicode hex="004F"/>
  <outline>
    <contour>
      <point x="602" y="315" type="qcurve"/>
      <point x="602" y="145"/>
      <point x="473" y="-7"/>
      <point x="327" y="-7" type="qcurve"/>
      <point x="168" y="-7"/>
      <point x="51" y="133"/>
      <point x="51" y="315" type="qcurve"/>
      <point x="51" y="485"/>
      <point x="180" y="637"/>
      <point x="327" y="637" type="qcurve"/>
      <point x="485" y="637"/>
      <point x="602" y="497"/>
    </contour>
    <contour>
      <point x="149" y="119" type="qcurve" smooth="yes"/>
      <point x="171" y="84"/>
      <point x="251" y="53"/>
      <point x="327" y="53" type="qcurve" smooth="yes"/>
      <point x="445" y="53"/>
      <point x="537" y="171"/>
      <point x="537" y="315" type="qcurve"/>
      <point x="537" y="388"/>
      <point x="521" y="482"/>
      <point x="504" y="511" type="qcurve" smooth="yes"/>
      <point x="483" y="547"/>
      <point x="404" y="578"/>
      <point x="327" y="578" type="qcurve"/>
      <point x="208" y="578"/>
      <point x="116" y="460"/>
      <point x="116" y="315" type="qcurve"/>
      <point x="116" y="242"/>
      <point x="132" y="148"/>
    </contour>
    <contour>
      <point x="327" y="655" type="move" name="top"/>
    </contour>
  </outline>
</glyph>
<glyph name="P" format="1">
  <advance width="566"/>
  <unicode hex="0050"/>
  <outline>
    <contour>
      <point x="143" y="211" type="line"/>
      <point x="143" y="0" type="line"/>
      <point x="79" y="0" type="line"/>
      <point x="79" y="627" type="line"/>
      <point x="287" y="627" type="line" smooth="yes"/>
      <point x="416" y="627"/>
      <point x="530" y="533"/>
      <point x="530" y="426" type="qcurve"/>
      <point x="530" y="317"/>
      <point x="412" y="211"/>
      <point x="290" y="211" type="qcurve"/>
    </contour>
    <contour>
      <point x="465" y="426" type="qcurve"/>
      <point x="465" y="502"/>
      <point x="383" y="568"/>
      <point x="287" y="568" type="qcurve"/>
      <point x="143" y="568" type="line"/>
      <point x="143" y="268" type="line"/>
      <point x="287" y="268" type="line" smooth="yes"/>
      <point x="381" y="268"/>
      <point x="465" y="343"/>
    </contour>
  </outline>
</glyph>
<glyph name="R" format="1">
  <advance width="579"/>
  <unicode hex="0052"/>
  <outline>
    <contour>
      <point x="143" y="232" type="line"/>
      <point x="143" y="0" type="line"/>
      <point x="79" y="0" type="line"/>
      <point x="79" y="627" type="line"/>
      <point x="287" y="627" type="line" smooth="yes"/>
      <point x="416" y="627"/>
      <point x="530" y="537"/>
      <point x="530" y="436" type="qcurve"/>
      <point x="530" y="353"/>
      <point x="454" y="255"/>
      <point x="377" y="240" type="qcurve"/>
      <point x="545" y="0" type="line"/>
      <point x="468" y="0" type="line"/>
      <point x="309" y="232" type="line"/>
      <point x="304" y="232"/>
      <point x="295" y="232"/>
      <point x="290" y="232" type="qcurve"/>
    </contour>
    <contour>
      <point x="465" y="436" type="qcurve"/>
      <point x="465" y="507"/>
      <point x="383" y="568"/>
      <point x="287" y="568" type="qcurve"/>
      <point x="143" y="568" type="line"/>
      <point x="143" y="289" type="line"/>
      <point x="287" y="289" type="line" smooth="yes"/>
      <point x="380" y="289"/>
      <point x="465" y="359"/>
    </contour>
    <contour>
      <point x="287" y="645" type="move" name="top"/>
    </contour>
    <contour>
      <point x="285" y="0" type="move" name="bottom"/>
    </contour>
  </outline>
</glyph>
<glyph name="S" format="1">
  <advance width="509"/>
  <unicode hex="0053"/>
  <outline>
    <contour>
      <point x="323" y="272" type="qcurve"/>
      <point x="164" y="310" type="line" smooth="yes"/>
      <point x="102" y="325"/>
      <point x="48" y="395"/>
      <point x="48" y="458" type="qcurve"/>
      <point x="48" y="551"/>
      <point x="154" y="637"/>
      <point x="269" y="637" type="qcurve" smooth="yes"/>
      <point x="317" y="637"/>
      <point x="394" y="628"/>
      <point x="425" y="619" type="qcurve"/>
      <point x="425" y="560" type="line"/>
      <point x="392" y="569"/>
      <point x="312" y="578"/>
      <point x="268" y="578" type="qcurve" smooth="yes"/>
      <point x="182" y="578"/>
      <point x="112" y="527"/>
      <point x="112" y="463" type="qcurve"/>
      <point x="112" y="421"/>
      <point x="146" y="379"/>
      <point x="185" y="370" type="qcurve"/>
      <point x="344" y="331" type="line" smooth="yes"/>
      <point x="421" y="313"/>
      <point x="473" y="246"/>
      <point x="473" y="177" type="qcurve"/>
      <point x="473" y="76"/>
      <point x="369" y="-7"/>
      <point x="255" y="-7" type="qcurve"/>
      <point x="194" y="-7"/>
      <point x="80" y="9"/>
      <point x="47" y="22" type="qcurve"/>
      <point x="47" y="83" type="line"/>
      <point x="97" y="68"/>
      <point x="201" y="53"/>
      <point x="255" y="53" type="qcurve"/>
      <point x="339" y="53"/>
      <point x="407" y="104"/>
      <point x="407" y="176" type="qcurve"/>
      <point x="407" y="221"/>
      <point x="373" y="261"/>
    </contour>
    <contour>
      <point x="259" y="655" type="move" name="top"/>
    </contour>
    <contour>
      <point x="244" y="0" type="move" name="bottom"/>
    </contour>
  </outline>
</glyph>
<glyph name="T" format="1">
  <advance width="537"/>
  <unicode hex="0054"/>
  <outline>
    <contour>
      <point x="520" y="627" type="line"/>
      <point x="520" y="568" type="line"/>
      <point x="301" y="568" type="line"/>
      <point x="301" y="0" type="line"/>
      <point x="237" y="0" type="line"/>
      <point x="237" y="568" type="line"/>
      <point x="18" y="568" type="line"/>
      <point x="18" y="627" type="line"/>
    </contour>
    <contour>
      <point x="269" y="645" type="move" name="top"/>
    </contour>
    <contour>
      <point x="269" y="0" type="move" name="bottom"/>
    </contour>
  </outline>
</glyph>
<glyph name="U" format="1">
  <advance width="637"/>
  <unicode hex="0055"/>
  <outline>
    <contour>
      <point x="499" y="246" type="qcurve"/>
      <point x="499" y="627" type="line"/>
      <point x="563" y="627" type="line"/>
      <point x="563" y="246" type="line" smooth="yes"/>
      <point x="563" y="115"/>
      <point x="443" y="-7"/>
      <point x="316" y="-7" type="qcurve"/>
      <point x="189" y="-7"/>
      <point x="73" y="113"/>
      <point x="73" y="246" type="qcurve"/>
      <point x="73" y="627" type="line"/>
      <point x="137" y="627" type="line"/>
      <point x="137" y="246" type="line" smooth="yes"/>
      <point x="137" y="140"/>
      <point x="219" y="53"/>
      <point x="316" y="53" type="qcurve"/>
      <point x="416" y="53"/>
      <point x="499" y="140"/>
    </contour>
    <contour>
      <point x="315" y="645" type="move" name="top"/>
    </contour>
    <contour>
      <point x="457" y="21" type="move" name="ogonekalt"/>
    </contour>
  </outline>
</glyph>
<glyph name="V" format="1">
  <advance width="581"/>
  <unicode hex="0056"/>
  <outline>
    <contour>
      <point x="253" y="0" type="line"/>
      <point x="13" y="627" type="line"/>
      <point x="84" y="627" type="line"/>
      <point x="242" y="205" type="line" smooth="yes"/>
      <point x="258" y="158"/>
      <point x="283" y="83"/>
      <point x="292" y="50" type="qcurve"/>
      <point x="304" y="92"/>
      <point x="330" y="174"/>
      <point x="341" y="205" type="qcurve"/>
      <point x="499" y="627" type="line"/>
      <point x="569" y="627" type="line"/>
      <point x="328" y="0" type="line"/>
    </contour>
  </outline>
</glyph>
<glyph name="W" format="1">
  <advance width="858"/>
  <unicode hex="0057"/>
  <outline>
    <contour>
      <point x="195" y="0" type="line"/>
      <point x="18" y="627" type="line"/>
      <point x="88" y="627" type="line"/>
      <point x="203" y="205" type="line" smooth="yes"/>
      <point x="207" y="191"/>
      <point x="222" y="119"/>
      <point x="233" y="60" type="qcurve"/>
      <point x="235" y="68"/>
      <point x="260" y="178"/>
      <point x="267" y="205" type="qcurve"/>
      <point x="396" y="627" type="line"/>
      <point x="464" y="627" type="line"/>
      <point x="593" y="205" type="line" smooth="yes"/>
      <point x="599" y="184"/>
      <point x="613" y="126"/>
      <point x="627" y="62" type="qcurve"/>
      <point x="630" y="75"/>
      <point x="651" y="179"/>
      <point x="658" y="205" type="qcurve"/>
      <point x="772" y="627" type="line"/>
      <point x="840" y="627" type="line"/>
      <point x="663" y="0" type="line"/>
      <point x="591" y="0" type="line"/>
      <point x="471" y="379" type="line" smooth="yes"/>
      <point x="460" y="416"/>
      <point x="440" y="496"/>
      <point x="429" y="547" type="qcurve"/>
      <point x="418" y="496"/>
      <point x="398" y="416"/>
      <point x="387" y="379" type="qcurve"/>
      <point x="268" y="0" type="line"/>
    </contour>
    <contour>
      <point x="430" y="645" type="move" name="top"/>
    </contour>
  </outline>
</glyph>
<glyph name="X" format="1">
  <advance width="542"/>
  <unicode hex="0058"/>
  <outline>
    <contour>
      <point x="307" y="325" type="line"/>
      <point x="537" y="0" type="line"/>
      <point x="458" y="0" type="line"/>
      <point x="266" y="274" type="line"/>
      <point x="82" y="0" type="line"/>
      <point x="10" y="0" type="line"/>
      <point x="230" y="322" type="line"/>
      <point x="18" y="627" type="line"/>
      <point x="96" y="627" type="line"/>
      <point x="269" y="370" type="line"/>
      <point x="446" y="627" type="line"/>
      <point x="516" y="627" type="line"/>
    </contour>
    <contour>
      <point x="270" y="645" type="move" name="top"/>
    </contour>
  </outline>
</glyph>
<glyph name="Y" format="1">
  <advance width="571"/>
  <unicode hex="0059"/>
  <outline>
    <contour>
      <point x="489" y="627" type="line"/>
      <point x="556" y="627" type="line"/>
      <point x="319" y="241" type="line"/>
      <point x="319" y="0" type="line"/>
      <point x="254" y="0" type="line"/>
      <point x="254" y="241" type="line"/>
      <point x="11" y="627" type="line"/>
      <point x="84" y="627" type="line"/>
      <point x="288" y="299" type="line"/>
    </contour>
    <contour>
      <point x="288" y="645" type="move" name="top"/>
    </contour>
  </outline>
</glyph>
<glyph name="bracketleft" format="1">
  <advance width="270"/>
  <unicode hex="005B"/>
  <outline>
    <contour>
      <point x="244" y="-34" type="line"/>
      <point x="244" y="-82" type="line"/>
      <point x="77" y="-82" type="line"/>
      <point x="77" y="707" type="line"/>
      <point x="244" y="707" type="line"/>
      <point x="244" y="659" type="line"/>
      <point x="129" y="659" type="line"/>
      <point x="129" y="-34" type="line"/>
    </contour>
  </outline>
</glyph>
<glyph name="backslash" format="1">
  <advance width="303"/>
  <unicode hex="005C"/>
  <outline>
    <contour>
      <point x="76" y="707" type="line"/>
      <point x="279" y="-80" type="line"/>
      <point x="226" y="-80" type="line"/>
      <point x="22" y="707" type="line"/>
    </contour>
  </outline>
</glyph>
<glyph name="asciicircum" format="1">
  <advance width="500"/>
  <unicode hex="005E"/>
  <outline>
    <contour>
      <point x="146" y="365" type="line"/>
      <point x="85" y="365" type="line"/>
      <point x="221" y="627" type="line"/>
      <point x="279" y="627" type="line"/>
      <point x="414" y="365" type="line"/>
      <point x="353" y="365" type="line"/>
      <point x="250" y="573" type="line"/>
    </contour>
  </outline>
</glyph>
<glyph name="a" format="1">
  <advance width="495"/>
  <unicode hex="0061"/>
  <outline>
    <contour>
      <point x="183" y="-7" type="qcurve"/>
      <point x="107" y="-7"/>
      <point x="36" y="65"/>
      <point x="36" y="143" type="qcurve"/>
      <point x="36" y="221"/>
      <point x="122" y="287"/>
      <point x="225" y="287" type="qcurve"/>
      <point x="262" y="287"/>
      <point x="332" y="281"/>
      <point x="365" y="275" type="qcurve"/>
      <point x="365" y="327" type="line" smooth="yes"/>
      <point x="365" y="393"/>
      <point x="305" y="448"/>
      <point x="237" y="448" type="qcurve" smooth="yes"/>
      <point x="191" y="448"/>
      <point x="122" y="440"/>
      <point x="86" y="431" type="qcurve"/>
      <point x="86" y="486" type="line"/>
      <point x="128" y="496"/>
      <point x="205" y="504"/>
      <point x="256" y="504" type="qcurve" smooth="yes"/>
      <point x="344" y="504"/>
      <point x="427" y="421"/>
      <point x="427" y="332" type="qcurve"/>
      <point x="427" y="0" type="line"/>
      <point x="371" y="0" type="line"/>
      <point x="368" y="49" type="line"/>
      <point x="366" y="49" type="line"/>
      <point x="335" y="24"/>
      <point x="235" y="-7"/>
    </contour>
    <contour>
      <point x="232" y="236" type="qcurve"/>
      <point x="156" y="236"/>
      <point x="95" y="196"/>
      <point x="95" y="147" type="qcurve"/>
      <point x="95" y="95"/>
      <point x="145" y="49"/>
      <point x="201" y="49" type="qcurve"/>
      <point x="246" y="49"/>
      <point x="337" y="76"/>
      <point x="365" y="96" type="qcurve"/>
      <point x="365" y="224" type="line"/>
      <point x="332" y="230"/>
      <point x="267" y="236"/>
    </contour>
    <contour>
      <point x="247" y="530" type="move" name="top"/>
    </contour>
    <contour>
      <point x="427" y="0" type="move" name="ogonek"/>
    </contour>
  </outline>
</glyph>
<glyph name="b" format="1">
  <advance width="541"/>
  <unicode hex="0062"/>
  <outline>
    <contour>
      <point x="302" y="504" type="qcurve"/>
      <point x="405" y="504"/>
      <point x="493" y="385"/>
      <point x="493" y="250" type="qcurve" smooth="yes"/>
      <point x="493" y="112"/>
      <point x="385" y="-7"/>
      <point x="257" y="-7" type="qcurve"/>
      <point x="205" y="-7"/>
      <point x="111" y="6"/>
      <point x="71" y="18" type="qcurve"/>
      <point x="71" y="665" type="line"/>
      <point x="133" y="665" type="line"/>
      <point x="133" y="457" type="line"/>
      <point x="169" y="480"/>
      <point x="256" y="504"/>
    </contour>
    <contour>
      <point x="431" y="250" type="qcurve" smooth="yes"/>
      <point x="431" y="359"/>
      <point x="367" y="448"/>
      <point x="281" y="448" type="qcurve"/>
      <point x="240" y="448"/>
      <point x="163" y="426"/>
      <point x="133" y="406" type="qcurve"/>
      <point x="133" y="66" type="line"/>
      <point x="157" y="58"/>
      <point x="218" y="50"/>
      <point x="254" y="50" type="qcurve"/>
      <point x="356" y="50"/>
      <point x="431" y="138"/>
    </contour>
  </outline>
</glyph>
<glyph name="c" format="1">
  <advance width="444"/>
  <unicode hex="0063"/>
  <outline>
    <contour>
      <point x="413" y="83" type="qcurve"/>
      <point x="413" y="30" type="line"/>
      <point x="387" y="14"/>
      <point x="291" y="-7"/>
      <point x="238" y="-7" type="qcurve"/>
      <point x="133" y="-7"/>
      <point x="49" y="106"/>
      <point x="49" y="248" type="qcurve" smooth="yes"/>
      <point x="49" y="386"/>
      <point x="158" y="504"/>
      <point x="288" y="504" type="qcurve"/>
      <point x="317" y="504"/>
      <point x="363" y="501"/>
      <point x="400" y="496" type="qcurve"/>
      <point x="400" y="440" type="line"/>
      <point x="351" y="446"/>
      <point x="312" y="448"/>
      <point x="288" y="448" type="qcurve"/>
      <point x="187" y="448"/>
      <point x="111" y="360"/>
      <point x="111" y="248" type="qcurve" smooth="yes"/>
      <point x="111" y="134"/>
      <point x="171" y="50"/>
      <point x="252" y="50" type="qcurve"/>
      <point x="295" y="50"/>
      <point x="384" y="69"/>
    </contour>
    <contour>
      <point x="267" y="530" type="move" name="top"/>
    </contour>
    <contour>
      <point x="248" y="0" type="move" name="bottom"/>
    </contour>
  </outline>
</glyph>
<glyph name="d" format="1">
  <advance width="542"/>
  <unicode hex="0064"/>
  <outline>
    <contour>
      <point x="408" y="665" type="line"/>
      <point x="470" y="665" type="line"/>
      <point x="470" y="0" type="line"/>
      <point x="417" y="0" type="line"/>
      <point x="412" y="47" type="line"/>
      <point x="408" y="47" type="line"/>
      <point x="408" y="47" type="line"/>
      <point x="378" y="20"/>
      <point x="295" y="-7"/>
      <point x="239" y="-7" type="qcurve"/>
      <point x="137" y="-7"/>
      <point x="48" y="114"/>
      <point x="48" y="248" type="qcurve" smooth="yes"/>
      <point x="48" y="385"/>
      <point x="155" y="504"/>
      <point x="281" y="504" type="qcurve"/>
      <point x="318" y="504"/>
      <point x="383" y="492"/>
      <point x="408" y="481" type="qcurve"/>
    </contour>
    <contour>
      <point x="287" y="448" type="qcurve"/>
      <point x="185" y="448"/>
      <point x="110" y="360"/>
      <point x="110" y="248" type="qcurve" smooth="yes"/>
      <point x="110" y="139"/>
      <point x="175" y="50"/>
      <point x="260" y="50" type="qcurve"/>
      <point x="302" y="50"/>
      <point x="377" y="72"/>
      <point x="408" y="94" type="qcurve"/>
      <point x="408" y="426" type="line"/>
      <point x="380" y="438"/>
      <point x="322" y="448"/>
    </contour>
    <contour>
      <point x="547" y="665" type="move" name="caronalt"/>
    </contour>
  </outline>
</glyph>
<glyph name="e" format="1">
  <advance width="500"/>
  <unicode hex="0065"/>
  <outline>
    <contour>
      <point x="434" y="80" type="qcurve"/>
      <point x="434" y="27" type="line"/>
      <point x="407" y="13"/>
      <point x="310" y="-7"/>
      <point x="261" y="-7" type="qcurve" smooth="yes"/>
      <point x="147" y="-7"/>
      <point x="48" y="114"/>
      <point x="48" y="251" type="qcurve" smooth="yes"/>
      <point x="48" y="384"/>
      <point x="149" y="504"/>
      <point x="262" y="504" type="qcurve"/>
      <point x="365" y="504"/>
      <point x="455" y="408"/>
      <point x="455" y="299" type="qcurve"/>
      <point x="455" y="282"/>
      <point x="453" y="250"/>
      <point x="450" y="228" type="qcurve"/>
      <point x="111" y="228" type="line"/>
      <point x="112" y="133"/>
      <point x="184" y="50"/>
      <point x="271" y="50" type="qcurve" smooth="yes"/>
      <point x="313" y="50"/>
      <point x="403" y="67"/>
    </contour>
    <contour>
      <point x="398" y="307" type="qcurve"/>
      <point x="397" y="383"/>
      <point x="333" y="448"/>
      <point x="262" y="448" type="qcurve"/>
      <point x="180" y="448"/>
      <point x="111" y="372"/>
      <point x="111" y="281" type="qcurve"/>
      <point x="396" y="281" type="line"/>
      <point x="397" y="287"/>
      <point x="398" y="300"/>
    </contour>
    <contour>
      <point x="263" y="530" type="move" name="top"/>
    </contour>
    <contour>
      <point x="396" y="13" type="move" name="ogonekalt"/>
    </contour>
  </outline>
</glyph>
<glyph name="f" format="1">
  <advance width="350"/>
  <unicode hex="0066"/>
  <outline>
    <contour>
      <point x="101" y="440" type="line"/>
      <point x="23" y="440" type="line"/>
      <point x="23" y="494" type="line"/>
      <point x="101" y="494" type="line"/>
      <point x="101" y="510" type="line"/>
      <point x="101" y="595"/>
      <point x="181" y="675"/>
      <point x="266" y="675" type="qcurve"/>
      <point x="287" y="675"/>
      <point x="327" y="671"/>
      <point x="348" y="667" type="qcurve"/>
      <point x="348" y="614" type="line"/>
      <point x="336" y="617"/>
      <point x="294" y="620"/>
      <point x="273" y="620" type="qcurve"/>
      <point x="212" y="620"/>
      <point x="163" y="572"/>
      <point x="163" y="511" type="qcurve"/>
      <point x="163" y="494" type="line"/>
      <point x="333" y="494" type="line"/>
      <point x="333" y="440" type="line"/>
      <point x="163" y="440" type="line"/>
      <point x="163" y="0" type="line"/>
      <point x="101" y="0" type="line"/>
    </contour>
  </outline>
</glyph>
<glyph name="g" format="1">
  <advance width="538"/>
  <unicode hex="0067"/>
  <outline>
    <contour>
      <point x="269" y="-162" type="qcurve"/>
      <point x="220" y="-162"/>
      <point x="135" y="-149"/>
      <point x="108" y="-138" type="qcurve"/>
      <point x="108" y="-82" type="line"/>
      <point x="130" y="-91"/>
      <point x="217" y="-104"/>
      <point x="261" y="-104" type="qcurve"/>
      <point x="342" y="-104"/>
      <point x="405" y="-38"/>
      <point x="405" y="48" type="qcurve"/>
      <point x="405" y="82" type="line"/>
      <point x="368" y="58"/>
      <point x="282" y="34"/>
      <point x="236" y="34" type="qcurve"/>
      <point x="136" y="34"/>
      <point x="49" y="145"/>
      <point x="49" y="269" type="qcurve" smooth="yes"/>
      <point x="49" y="396"/>
      <point x="157" y="504"/>
      <point x="288" y="504" type="qcurve"/>
      <point x="333" y="504"/>
      <point x="431" y="493"/>
      <point x="467" y="485" type="qcurve"/>
      <point x="467" y="64" type="line" smooth="yes"/>
      <point x="467" y="-62"/>
      <point x="378" y="-162"/>
    </contour>
    <contour>
      <point x="288" y="448" type="qcurve"/>
      <point x="184" y="448"/>
      <point x="111" y="371"/>
      <point x="111" y="269" type="qcurve" smooth="yes"/>
      <point x="111" y="171"/>
      <point x="173" y="92"/>
      <point x="256" y="92" type="qcurve"/>
      <point x="294" y="92"/>
      <point x="371" y="113"/>
      <point x="405" y="133" type="qcurve"/>
      <point x="405" y="435" type="line"/>
      <point x="379" y="441"/>
      <point x="319" y="448"/>
    </contour>
    <contour>
      <point x="274" y="530" type="move" name="top"/>
    </contour>
  </outline>
</glyph>
<glyph name="h" format="1">
  <advance width="553"/>
  <unicode hex="0068"/>
  <outline>
    <contour>
      <point x="134" y="0" type="line"/>
      <point x="72" y="0" type="line"/>
      <point x="72" y="665" type="line"/>
      <point x="134" y="665" type="line"/>
      <point x="134" y="451" type="line"/>
      <point x="185" y="479"/>
      <point x="275" y="504"/>
      <point x="320" y="504" type="qcurve" smooth="yes"/>
      <point x="401" y="504"/>
      <point x="485" y="422"/>
      <point x="485" y="342" type="qcurve"/>
      <point x="485" y="0" type="line"/>
      <point x="423" y="0" type="line"/>
      <point x="423" y="335" type="line" smooth="yes"/>
      <point x="423" y="393"/>
      <point x="363" y="448"/>
      <point x="300" y="448" type="qcurve" smooth="yes"/>
      <point x="260" y="448"/>
      <point x="175" y="425"/>
      <point x="134" y="403" type="qcurve"/>
    </contour>
    <contour>
      <point x="103" y="681" type="move" name="top"/>
    </contour>
  </outline>
</glyph>
<glyph name="i" format="1">
  <advance width="206"/>
  <unicode hex="0069"/>
  <outline>
    <contour>
      <point x="137" y="596" type="line"/>
      <point x="69" y="596" type="line"/>
      <point x="69" y="665" type="line"/>
      <point x="137" y="665" type="line"/>
    </contour>
    <contour>
      <point x="134" y="0" type="line"/>
      <point x="72" y="0" type="line"/>
      <point x="72" y="494" type="line"/>
      <point x="134" y="494" type="line"/>
    </contour>
    <contour>
      <point x="134" y="0" type="move" name="ogonek"/>
    </contour>
  </outline>
</glyph>
<glyph name="j" format="1">
  <advance width="216"/>
  <unicode hex="006A"/>
  <outline>
    <contour>
      <point x="147" y="596" type="line"/>
      <point x="79" y="596" type="line"/>
      <point x="79" y="665" type="line"/>
      <point x="147" y="665" type="line"/>
    </contour>
    <contour>
      <point x="-7" y="-162" type="qcurve"/>
      <point x="-25" y="-162"/>
      <point x="-57" y="-160"/>
      <point x="-80" y="-156" type="qcurve"/>
      <point x="-80" y="-101" type="line"/>
      <point x="-64" y="-104"/>
      <point x="-38" y="-106"/>
      <point x="-25" y="-106" type="qcurve"/>
      <point x="32" y="-106"/>
      <point x="82" y="-52"/>
      <point x="82" y="11" type="qcurve"/>
      <point x="82" y="494" type="line"/>
      <point x="144" y="494" type="line"/>
      <point x="144" y="5" type="line"/>
      <point x="144" y="-78"/>
      <point x="68" y="-162"/>
    </contour>
  </outline>
</glyph>
<glyph name="k" format="1">
  <advance width="487"/>
  <unicode hex="006B"/>
  <outline>
    <contour>
      <point x="134" y="222" type="line"/>
      <point x="134" y="0" type="line"/>
      <point x="72" y="0" type="line"/>
      <point x="72" y="665" type="line"/>
      <point x="134" y="665" type="line"/>
      <point x="134" y="277" type="line"/>
      <point x="202" y="277" type="line"/>
      <point x="391" y="494" type="line"/>
      <point x="467" y="494" type="line"/>
      <point x="252" y="253" type="line"/>
      <point x="477" y="0" type="line"/>
      <point x="397" y="0" type="line"/>
      <point x="204" y="222" type="line"/>
    </contour>
    <contour>
      <point x="251" y="0" type="move" name="bottom"/>
    </contour>
  </outline>
</glyph>
<glyph name="l" format="1">
  <advance width="206"/>
  <unicode hex="006C"/>
  <outline>
    <contour>
      <point x="134" y="665" type="line"/>
      <point x="134" y="0" type="line"/>
      <point x="72" y="0" type="line"/>
      <point x="72" y="665" type="line"/>
    </contour>
    <contour>
      <point x="103" y="681" type="move" name="top"/>
    </contour>
    <contour>
      <point x="211" y="665" type="move" name="caronalt"/>
    </contour>
    <contour>
      <point x="103" y="0" type="move" name="bottom"/>
    </contour>
  </outline>
</glyph>
<glyph name="m" format="1">
  <advance width="805"/>
  <unicode hex="006D"/>
  <outline>
    <contour>
      <point x="134" y="0" type="line"/>
      <point x="72" y="0" type="line"/>
      <point x="72" y="494" type="line"/>
      <point x="128" y="494" type="line"/>
      <point x="132" y="453" type="line"/>
      <point x="134" y="453" type="line"/>
      <point x="182" y="481"/>
      <point x="255" y="504"/>
      <point x="292" y="504" type="qcurve" smooth="yes"/>
      <point x="334" y="504"/>
      <point x="395" y="477"/>
      <point x="413" y="451" type="qcurve"/>
      <point x="415" y="451" type="line"/>
      <point x="460" y="478"/>
      <point x="547" y="504"/>
      <point x="593" y="504" type="qcurve" smooth="yes"/>
      <point x="664" y="504"/>
      <point x="737" y="431"/>
      <point x="737" y="360" type="qcurve"/>
      <point x="737" y="0" type="line"/>
      <point x="675" y="0" type="line"/>
      <point x="675" y="353" type="line" smooth="yes"/>
      <point x="675" y="402"/>
      <point x="623" y="448"/>
      <point x="568" y="448" type="qcurve" smooth="yes"/>
      <point x="536" y="448"/>
      <point x="467" y="428"/>
      <point x="431" y="408" type="qcurve"/>
      <point x="434" y="396"/>
      <point x="436" y="372"/>
      <point x="436" y="360" type="qcurve"/>
      <point x="436" y="0" type="line"/>
      <point x="374" y="0" type="line"/>
      <point x="374" y="353" type="line" smooth="yes"/>
      <point x="374" y="402"/>
      <point x="322" y="448"/>
      <point x="266" y="448" type="qcurve" smooth="yes"/>
      <point x="238" y="448"/>
      <point x="176" y="428"/>
      <point x="134" y="404" type="qcurve"/>
    </contour>
  </outline>
</glyph>
<glyph name="n" format="1">
  <advance width="553"/>
  <unicode hex="006E"/>
  <outline>
    <contour>
      <point x="134" y="0" type="line"/>
      <point x="72" y="0" type="line"/>
      <point x="72" y="494" type="line"/>
      <point x="125" y="494" type="line"/>
      <point x="129" y="446" type="line"/>
      <point x="132" y="446" type="line"/>
      <point x="176" y="476"/>
      <point x="266" y="504"/>
      <point x="319" y="504" type="qcurve" smooth="yes"/>
      <point x="401" y="504"/>
      <point x="485" y="422"/>
      <point x="485" y="342" type="qcurve"/>
      <point x="485" y="0" type="line"/>
      <point x="423" y="0" type="line"/>
      <point x="423" y="335" type="line" smooth="yes"/>
      <point x="423" y="392"/>
      <point x="361" y="448"/>
      <point x="297" y="448" type="qcurve" smooth="yes"/>
      <point x="258" y="448"/>
      <point x="176" y="423"/>
      <point x="134" y="398" type="qcurve"/>
    </contour>
    <contour>
      <point x="278" y="530" type="move" name="top"/>
    </contour>
    <contour>
      <point x="-15" y="665" type="move" name="caronalt"/>
    </contour>
    <contour>
      <point x="278" y="0" type="move" name="bottom"/>
    </contour>
  </outline>
</glyph>
<glyph name="o" format="1">
  <advance width="547"/>
  <unicode hex="006F"/>
  <outline>
    <contour>
      <point x="497" y="248" type="qcurve" smooth="yes"/>
      <point x="497" y="108"/>
      <point x="397" y="-7"/>
      <point x="274" y="-7" type="qcurve" smooth="yes"/>
      <point x="145" y="-7"/>
      <point x="49" y="102"/>
      <point x="49" y="248" type="qcurve" smooth="yes"/>
      <point x="49" y="389"/>
      <point x="150" y="504"/>
      <point x="274" y="504" type="qcurve" smooth="yes"/>
      <point x="402" y="504"/>
      <point x="497" y="395"/>
    </contour>
    <contour>
      <point x="111" y="249" type="qcurve" smooth="yes"/>
      <point x="111" y="129"/>
      <point x="176" y="50"/>
      <point x="274" y="50" type="qcurve" smooth="yes"/>
      <point x="368" y="50"/>
      <point x="435" y="134"/>
      <point x="435" y="249" type="qcurve" smooth="yes"/>
      <point x="435" y="369"/>
      <point x="371" y="448"/>
      <point x="274" y="448" type="qcurve" smooth="yes"/>
      <point x="179" y="448"/>
      <point x="111" y="365"/>
    </contour>
    <contour>
      <point x="274" y="530" type="move" name="top"/>
    </contour>
  </outline>
</glyph>
<glyph name="p" format="1">
  <advance width="542"/>
  <unicode hex="0070"/>
  <outline>
    <contour>
      <point x="134" y="-152" type="line"/>
      <point x="72" y="-152" type="line"/>
      <point x="72" y="494" type="line"/>
      <point x="125" y="494" type="line"/>
      <point x="129" y="449" type="line"/>
      <point x="133" y="449" type="line"/>
      <point x="167" y="476"/>
      <point x="253" y="504"/>
      <point x="303" y="504" type="qcurve"/>
      <point x="405" y="504"/>
      <point x="494" y="383"/>
      <point x="494" y="248" type="qcurve" smooth="yes"/>
      <point x="494" y="112"/>
      <point x="388" y="-7"/>
      <point x="262" y="-7" type="qcurve"/>
      <point x="223" y="-7"/>
      <point x="158" y="4"/>
      <point x="134" y="15" type="qcurve"/>
    </contour>
    <contour>
      <point x="432" y="248" type="qcurve" smooth="yes"/>
      <point x="432" y="358"/>
      <point x="367" y="448"/>
      <point x="282" y="448" type="qcurve"/>
      <point x="241" y="448"/>
      <point x="165" y="424"/>
      <point x="134" y="401" type="qcurve"/>
      <point x="134" y="73" type="line"/>
      <point x="159" y="61"/>
      <point x="219" y="50"/>
      <point x="255" y="50" type="qcurve"/>
      <point x="357" y="50"/>
      <point x="432" y="137"/>
    </contour>
  </outline>
</glyph>
<glyph name="q" format="1">
  <advance width="542"/>
  <unicode hex="0071"/>
  <outline>
    <contour>
      <point x="471" y="485" type="qcurve"/>
      <point x="471" y="-152" type="line"/>
      <point x="409" y="-152" type="line"/>
      <point x="409" y="40" type="line"/>
      <point x="375" y="17"/>
      <point x="286" y="-7"/>
      <point x="237" y="-7" type="qcurve"/>
      <point x="135" y="-7"/>
      <point x="48" y="113"/>
      <point x="48" y="248" type="qcurve" smooth="yes"/>
      <point x="48" y="386"/>
      <point x="157" y="504"/>
      <point x="289" y="504" type="qcurve"/>
      <point x="337" y="504"/>
      <point x="435" y="494"/>
    </contour>
    <contour>
      <point x="289" y="448" type="qcurve"/>
      <point x="183" y="448"/>
      <point x="110" y="362"/>
      <point x="110" y="248" type="qcurve" smooth="yes"/>
      <point x="110" y="139"/>
      <point x="173" y="50"/>
      <point x="258" y="50" type="qcurve"/>
      <point x="298" y="50"/>
      <point x="377" y="71"/>
      <point x="409" y="90" type="qcurve"/>
      <point x="409" y="436" type="line"/>
      <point x="379" y="442"/>
      <point x="319" y="448"/>
    </contour>
  </outline>
</glyph>
<glyph name="r" format="1">
  <advance width="352"/>
  <unicode hex="0072"/>
  <outline>
    <contour>
      <point x="134" y="0" type="line"/>
      <point x="72" y="0" type="line"/>
      <point x="72" y="494" type="line"/>
      <point x="128" y="494" type="line"/>
      <point x="132" y="450" type="line"/>
      <point x="135" y="450" type="line"/>
      <point x="176" y="473"/>
      <point x="258" y="497"/>
      <point x="298" y="497" type="qcurve"/>
      <point x="315" y="497"/>
      <point x="327" y="497"/>
      <point x="331" y="496" type="qcurve"/>
      <point x="331" y="436" type="line"/>
      <point x="324" y="438"/>
      <point x="303" y="439"/>
      <point x="282" y="439" type="qcurve"/>
      <point x="244" y="439"/>
      <point x="168" y="419"/>
      <point x="134" y="400" type="qcurve"/>
    </contour>
    <contour>
      <point x="202" y="527" type="move" name="top"/>
    </contour>
    <contour>
      <point x="102" y="0" type="move" name="bottom"/>
    </contour>
  </outline>
</glyph>
<glyph name="s" format="1">
  <advance width="442"/>
  <unicode hex="0073"/>
  <outline>
    <contour>
      <point x="235" y="448" type="qcurve" smooth="yes"/>
      <point x="166" y="448"/>
      <point x="110" y="411"/>
      <point x="110" y="357" type="qcurve" smooth="yes"/>
      <point x="110" y="328"/>
      <point x="136" y="299"/>
      <point x="166" y="294" type="qcurve"/>
      <point x="295" y="274" type="line" smooth="yes"/>
      <point x="356" y="265"/>
      <point x="404" y="210"/>
      <point x="404" y="150" type="qcurve" smooth="yes"/>
      <point x="404" y="67"/>
      <point x="324" y="-7"/>
      <point x="232" y="-7" type="qcurve" smooth="yes"/>
      <point x="175" y="-7"/>
      <point x="75" y="6"/>
      <point x="45" y="16" type="qcurve"/>
      <point x="45" y="75" type="line"/>
      <point x="74" y="64"/>
      <point x="171" y="50"/>
      <point x="223" y="50" type="qcurve" smooth="yes"/>
      <point x="289" y="50"/>
      <point x="342" y="93"/>
      <point x="342" y="146" type="qcurve" smooth="yes"/>
      <point x="342" y="182"/>
      <point x="312" y="213"/>
      <point x="270" y="220" type="qcurve"/>
      <point x="142" y="240" type="line" smooth="yes"/>
      <point x="94" y="247"/>
      <point x="48" y="303"/>
      <point x="48" y="356" type="qcurve" smooth="yes"/>
      <point x="48" y="434"/>
      <point x="137" y="504"/>
      <point x="232" y="504" type="qcurve" smooth="yes"/>
      <point x="272" y="504"/>
      <point x="335" y="500"/>
      <point x="370" y="494" type="qcurve"/>
      <point x="370" y="438" type="line"/>
      <point x="342" y="443"/>
      <point x="273" y="448"/>
    </contour>
    <contour>
      <point x="227" y="530" type="move" name="top"/>
    </contour>
    <contour>
      <point x="215" y="0" type="move" name="bottom"/>
    </contour>
  </outline>
</glyph>
<glyph name="t" format="1">
  <advance width="369"/>
  <unicode hex="0074"/>
  <outline>
    <contour>
      <point x="354" y="60" type="qcurve"/>
      <point x="354" y="7" type="line"/>
      <point x="336" y="1"/>
      <point x="285" y="-7"/>
      <point x="261" y="-7" type="qcurve" smooth="yes"/>
      <point x="173" y="-7"/>
      <point x="99" y="72"/>
      <point x="99" y="170" type="qcurve"/>
      <point x="99" y="440" type="line"/>
      <point x="21" y="440" type="line"/>
      <point x="21" y="494" type="line"/>
      <point x="100" y="494" type="line"/>
      <point x="111" y="616" type="line"/>
      <point x="161" y="616" type="line"/>
      <point x="161" y="494" type="line"/>
      <point x="348" y="494" type="line"/>
      <point x="348" y="440" type="line"/>
      <point x="161" y="440" type="line"/>
      <point x="161" y="172" type="line" smooth="yes"/>
      <point x="161" y="101"/>
      <point x="211" y="50"/>
      <point x="273" y="50" type="qcurve" smooth="yes"/>
      <point x="293" y="50"/>
      <point x="340" y="56"/>
    </contour>
    <contour>
      <point x="238" y="718" type="move" name="caronalt"/>
    </contour>
    <contour>
      <point x="235" y="0" type="move" name="bottom"/>
    </contour>
  </outline>
</glyph>
<glyph name="u" format="1">
  <advance width="539"/>
  <unicode hex="0075"/>
  <outline>
    <contour>
      <point x="231" y="-7" type="qcurve" smooth="yes"/>
      <point x="150" y="-7"/>
      <point x="68" y="75"/>
      <point x="68" y="156" type="qcurve"/>
      <point x="68" y="494" type="line"/>
      <point x="130" y="494" type="line"/>
      <point x="130" y="163" type="line" smooth="yes"/>
      <point x="130" y="105"/>
      <point x="188" y="51"/>
      <point x="251" y="51" type="qcurve" smooth="yes"/>
      <point x="288" y="51"/>
      <point x="364" y="72"/>
      <point x="405" y="93" type="qcurve"/>
      <point x="405" y="494" type="line"/>
      <point x="467" y="494" type="line"/>
      <point x="467" y="0" type="line"/>
      <point x="411" y="0" type="line"/>
      <point x="408" y="45" type="line"/>
      <point x="407" y="45" type="line"/>
      <point x="356" y="17"/>
      <point x="273" y="-7"/>
    </contour>
    <contour>
      <point x="269" y="520" type="move" name="top"/>
    </contour>
    <contour>
      <point x="467" y="0" type="move" name="ogonek"/>
    </contour>
  </outline>
</glyph>
<glyph name="v" format="1">
  <advance width="492"/>
  <unicode hex="0076"/>
  <outline>
    <contour>
      <point x="409" y="494" type="line"/>
      <point x="477" y="494" type="line"/>
      <point x="281" y="0" type="line"/>
      <point x="210" y="0" type="line"/>
      <point x="15" y="494" type="line"/>
      <point x="84" y="494" type="line"/>
      <point x="247" y="57" type="line"/>
    </contour>
  </outline>
</glyph>
<glyph name="w" format="1">
  <advance width="701"/>
  <unicode hex="0077"/>
  <outline>
    <contour>
      <point x="611" y="494" type="line"/>
      <point x="678" y="494" type="line"/>
      <point x="540" y="0" type="line"/>
      <point x="467" y="0" type="line"/>
      <point x="346" y="414" type="line"/>
      <point x="234" y="0" type="line"/>
      <point x="160" y="0" type="line"/>
      <point x="22" y="494" type="line"/>
      <point x="90" y="494" type="line"/>
      <point x="198" y="60" type="line"/>
      <point x="313" y="494" type="line"/>
      <point x="378" y="494" type="line"/>
      <point x="503" y="60" type="line"/>
    </contour>
    <contour>
      <point x="345" y="520" type="move" name="top"/>
    </contour>
  </outline>
</glyph>
<glyph name="x" format="1">
  <advance width="441"/>
  <unicode hex="0078"/>
  <outline>
    <contour>
      <point x="257" y="257" type="line"/>
      <point x="426" y="0" type="line"/>
      <point x="356" y="0" type="line"/>
      <point x="218" y="214" type="line"/>
      <point x="81" y="0" type="line"/>
      <point x="15" y="0" type="line"/>
      <point x="184" y="256" type="line"/>
      <point x="24" y="494" type="line"/>
      <point x="98" y="494" type="line"/>
      <point x="222" y="298" type="line"/>
      <point x="350" y="494" type="line"/>
      <point x="417" y="494" type="line"/>
    </contour>
    <contour>
      <point x="223" y="520" type="move" name="top"/>
    </contour>
  </outline>
</glyph>
<glyph name="y" format="1">
  <advance width="493"/>
  <unicode hex="0079"/>
  <outline>
    <contour>
      <point x="113" y="-106" type="qcurve"/>
      <point x="150" y="-106"/>
      <point x="191" y="-70"/>
      <point x="219" y="6" type="qcurve"/>
      <point x="13" y="494" type="line"/>
      <point x="82" y="494" type="line"/>
      <point x="251" y="69" type="line"/>
      <point x="411" y="494" type="line"/>
      <point x="478" y="494" type="line"/>
      <point x="268" y="-40" type="line" smooth="yes"/>
      <point x="241" y="-110"/>
      <point x="175" y="-162"/>
      <point x="123" y="-162" type="qcurve"/>
      <point x="107" y="-162"/>
      <point x="74" y="-159"/>
      <point x="55" y="-155" type="qcurve"/>
      <point x="55" y="-100" type="line"/>
      <point x="69" y="-103"/>
      <point x="97" y="-106"/>
    </contour>
    <contour>
      <point x="252" y="520" type="move" name="top"/>
    </contour>
  </outline>
</glyph>
<glyph name="z" format="1">
  <advance width="426"/>
  <unicode hex="007A"/>
  <outline>
    <contour>
      <point x="398" y="55" type="line"/>
      <point x="398" y="0" type="line"/>
      <point x="31" y="0" type="line"/>
      <point x="31" y="55" type="line"/>
      <point x="311" y="440" type="line"/>
      <point x="49" y="440" type="line"/>
      <point x="49" y="494" type="line"/>
      <point x="381" y="494" type="line"/>
      <point x="381" y="440" type="line"/>
      <point x="102" y="55" type="line"/>
    </contour>
    <contour>
      <point x="215" y="520" type="move" name="top"/>
    </contour>
  </outline>
</glyph>
<glyph name="braceleft" format="1">
  <advance width="292"/>
  <unicode hex="007B"/>
  <outline>
    <contour>
      <point x="83" y="318" type="qcurve"/>
      <point x="83" y="314" type="line"/>
      <point x="121" y="307"/>
      <point x="166" y="224"/>
      <point x="166" y="157" type="qcurve"/>
      <point x="166" y="48" type="line"/>
      <point x="166" y="1"/>
      <point x="216" y="-44"/>
      <point x="268" y="-44" type="qcurve"/>
      <point x="268" y="-92" type="line"/>
      <point x="193" y="-92"/>
      <point x="113" y="-20"/>
      <point x="113" y="47" type="qcurve"/>
      <point x="113" y="157" type="line" smooth="yes"/>
      <point x="113" y="220"/>
      <point x="64" y="293"/>
      <point x="27" y="293" type="qcurve"/>
      <point x="15" y="293" type="line"/>
      <point x="15" y="337" type="line"/>
      <point x="27" y="337" type="line"/>
      <point x="64" y="337"/>
      <point x="113" y="410"/>
      <point x="113" y="473" type="qcurve"/>
      <point x="113" y="579" type="line"/>
      <point x="113" y="646"/>
      <point x="193" y="718"/>
      <point x="268" y="718" type="qcurve"/>
      <point x="268" y="670" type="line"/>
      <point x="215" y="670"/>
      <point x="166" y="626"/>
      <point x="166" y="578" type="qcurve"/>
      <point x="166" y="473" type="line" smooth="yes"/>
      <point x="166" y="407"/>
      <point x="121" y="325"/>
    </contour>
  </outline>
</glyph>
<glyph name="braceright" format="1">
  <advance width="292"/>
  <unicode hex="007D"/>
  <outline>
    <contour>
      <point x="209" y="314" type="qcurve"/>
      <point x="209" y="318" type="line"/>
      <point x="171" y="325"/>
      <point x="126" y="407"/>
      <point x="126" y="473" type="qcurve"/>
      <point x="126" y="578" type="line"/>
      <point x="126" y="626"/>
      <point x="77" y="670"/>
      <point x="24" y="670" type="qcurve"/>
      <point x="24" y="718" type="line"/>
      <point x="99" y="718"/>
      <point x="179" y="646"/>
      <point x="179" y="579" type="qcurve"/>
      <point x="179" y="473" type="line" smooth="yes"/>
      <point x="179" y="410"/>
      <point x="228" y="337"/>
      <point x="265" y="337" type="qcurve"/>
      <point x="277" y="337" type="line"/>
      <point x="277" y="293" type="line"/>
      <point x="265" y="293" type="line"/>
      <point x="228" y="293"/>
      <point x="179" y="220"/>
      <point x="179" y="157" type="qcurve"/>
      <point x="179" y="47" type="line"/>
      <point x="179" y="-20"/>
      <point x="99" y="-92"/>
      <point x="24" y="-92" type="qcurve"/>
      <point x="24" y="-44" type="line"/>
      <point x="76" y="-44"/>
      <point x="126" y="1"/>
      <point x="126" y="48" type="qcurve"/>
      <point x="126" y="157" type="line"/>
      <point x="126" y="224"/>
      <point x="171" y="307"/>
    </contour>
  </outline>
</glyph>
<glyph name="asciitilde" format="1">
  <advance width="644"/>
  <unicode hex="007E"/>
  <outline>
    <contour>
      <point x="538" y="455" type="qcurve"/>
      <point x="596" y="455" type="line"/>
      <point x="596" y="350"/>
      <point x="523" y="231"/>
      <point x="455" y="231" type="qcurve"/>
      <point x="422" y="231"/>
      <point x="358" y="269"/>
      <point x="305" y="327" type="qcurve" smooth="yes"/>
      <point x="262" y="375"/>
      <point x="218" y="403"/>
      <point x="197" y="403" type="qcurve"/>
      <point x="152" y="403"/>
      <point x="106" y="319"/>
      <point x="106" y="239" type="qcurve"/>
      <point x="48" y="239" type="line"/>
      <point x="48" y="344"/>
      <point x="125" y="463"/>
      <point x="197" y="463" type="qcurve"/>
      <point x="230" y="463"/>
      <point x="294" y="426"/>
      <point x="347" y="367" type="qcurve" smooth="yes"/>
      <point x="391" y="320"/>
      <point x="434" y="292"/>
      <point x="455" y="292" type="qcurve"/>
      <point x="495" y="292"/>
      <point x="538" y="378"/>
    </contour>
  </outline>
</glyph>
<glyph name="exclamdown" format="1">
  <advance width="205"/>
  <unicode hex="00A1"/>
  <outline>
    <contour>
      <point x="70" y="494" type="line"/>
      <point x="136" y="494" type="line"/>
      <point x="136" y="428" type="line"/>
      <point x="70" y="428" type="line"/>
    </contour>
    <contour>
      <point x="129" y="331" type="line"/>
      <point x="138" y="-133" type="line"/>
      <point x="67" y="-133" type="line"/>
      <point x="76" y="331" type="line"/>
    </contour>
  </outline>
</glyph>
<glyph name="cent" format="1">
  <advance width="446"/>
  <unicode hex="00A2"/>
  <outline>
    <contour>
      <point x="288" y="71" type="qcurve"/>
      <point x="288" y="-22" type="line"/>
      <point x="234" y="-22" type="line"/>
      <point x="234" y="68" type="line"/>
      <point x="129" y="68"/>
      <point x="46" y="181"/>
      <point x="46" y="323" type="qcurve" smooth="yes"/>
      <point x="46" y="448"/>
      <point x="133" y="566"/>
      <point x="234" y="577" type="qcurve"/>
      <point x="234" y="666" type="line"/>
      <point x="288" y="666" type="line"/>
      <point x="288" y="579" type="line"/>
      <point x="315" y="579"/>
      <point x="359" y="576"/>
      <point x="397" y="571" type="qcurve"/>
      <point x="397" y="515" type="line"/>
      <point x="348" y="521"/>
      <point x="309" y="523"/>
      <point x="285" y="523" type="qcurve"/>
      <point x="184" y="523"/>
      <point x="108" y="435"/>
      <point x="108" y="323" type="qcurve" smooth="yes"/>
      <point x="108" y="209"/>
      <point x="168" y="125"/>
      <point x="249" y="125" type="qcurve"/>
      <point x="292" y="125"/>
      <point x="381" y="144"/>
      <point x="410" y="158" type="qcurve"/>
      <point x="410" y="105" type="line"/>
      <point x="391" y="94"/>
      <point x="325" y="75"/>
    </contour>
  </outline>
</glyph>
<glyph name="sterling" format="1">
  <advance width="499"/>
  <unicode hex="00A3"/>
  <outline>
    <contour>
      <point x="38" y="273" type="line"/>
      <point x="38" y="329" type="line"/>
      <point x="119" y="329" type="line"/>
      <point x="119" y="455" type="line" smooth="yes"/>
      <point x="119" y="546"/>
      <point x="212" y="637"/>
      <point x="305" y="637" type="qcurve" smooth="yes"/>
      <point x="340" y="637"/>
      <point x="404" y="629"/>
      <point x="448" y="619" type="qcurve"/>
      <point x="448" y="562" type="line"/>
      <point x="411" y="570"/>
      <point x="347" y="578"/>
      <point x="313" y="578" type="qcurve" smooth="yes"/>
      <point x="246" y="578"/>
      <point x="184" y="515"/>
      <point x="184" y="447" type="qcurve"/>
      <point x="184" y="329" type="line"/>
      <point x="414" y="329" type="line"/>
      <point x="414" y="273" type="line"/>
      <point x="184" y="273" type="line"/>
      <point x="184" y="216" type="line"/>
      <point x="184" y="158"/>
      <point x="147" y="85"/>
      <point x="107" y="64" type="qcurve"/>
      <point x="107" y="61" type="line"/>
      <point x="464" y="61" type="line"/>
      <point x="464" y="0" type="line"/>
      <point x="38" y="0" type="line"/>
      <point x="38" y="62" type="line"/>
      <point x="79" y="85"/>
      <point x="119" y="160"/>
      <point x="119" y="216" type="qcurve"/>
      <point x="119" y="273" type="line"/>
    </contour>
  </outline>
</glyph>
<glyph name="currency" format="1">
  <advance width="648"/>
  <unicode hex="00A4"/>
  <outline>
    <contour>
      <point x="92" y="44" type="line"/>
      <point x="52" y="83" type="line"/>
      <point x="119" y="150" type="line"/>
      <point x="92" y="185"/>
      <point x="63" y="270"/>
      <point x="63" y="316" type="qcurve" smooth="yes"/>
      <point x="63" y="362"/>
      <point x="92" y="447"/>
      <point x="119" y="481" type="qcurve"/>
      <point x="53" y="547" type="line"/>
      <point x="93" y="587" type="line"/>
      <point x="159" y="520" type="line"/>
      <point x="193" y="547"/>
      <point x="276" y="575"/>
      <point x="322" y="575" type="qcurve" smooth="yes"/>
      <point x="369" y="575"/>
      <point x="453" y="547"/>
      <point x="488" y="520" type="qcurve"/>
      <point x="554" y="587" type="line"/>
      <point x="594" y="547" type="line"/>
      <point x="528" y="481" type="line"/>
      <point x="556" y="447"/>
      <point x="585" y="362"/>
      <point x="585" y="315" type="qcurve" smooth="yes"/>
      <point x="585" y="269"/>
      <point x="556" y="185"/>
      <point x="529" y="152" type="qcurve"/>
      <point x="596" y="85" type="line"/>
      <point x="556" y="45" type="line"/>
      <point x="489" y="112" type="line"/>
      <point x="455" y="85"/>
      <point x="370" y="56"/>
      <point x="324" y="56" type="qcurve" smooth="yes"/>
      <point x="277" y="56"/>
      <point x="193" y="84"/>
      <point x="159" y="111" type="qcurve"/>
    </contour>
    <contour>
      <point x="323" y="520" type="qcurve" smooth="yes"/>
      <point x="236" y="520"/>
      <point x="121" y="405"/>
      <point x="121" y="317" type="qcurve" smooth="yes"/>
      <point x="121" y="228"/>
      <point x="236" y="112"/>
      <point x="324" y="113" type="qcurve" smooth="yes"/>
      <point x="412" y="112"/>
      <point x="527" y="228"/>
      <point x="527" y="317" type="qcurve" smooth="yes"/>
      <point x="527" y="404"/>
      <point x="411" y="519"/>
    </contour>
  </outline>
</glyph>
<glyph name="yen" format="1">
  <advance width="550"/>
  <unicode hex="00A5"/>
  <outline>
    <contour>
      <point x="63" y="112" type="line"/>
      <point x="63" y="161" type="line"/>
      <point x="244" y="161" type="line"/>
      <point x="244" y="237" type="line"/>
      <point x="63" y="237" type="line"/>
      <point x="63" y="286" type="line"/>
      <point x="223" y="286" type="line"/>
      <point x="25" y="627" type="line"/>
      <point x="98" y="627" type="line"/>
      <point x="277" y="306" type="line"/>
      <point x="453" y="627" type="line"/>
      <point x="521" y="627" type="line"/>
      <point x="329" y="286" type="line"/>
      <point x="490" y="286" type="line"/>
      <point x="490" y="237" type="line"/>
      <point x="308" y="237" type="line"/>
      <point x="308" y="161" type="line"/>
      <point x="490" y="161" type="line"/>
      <point x="490" y="112" type="line"/>
      <point x="308" y="112" type="line"/>
      <point x="308" y="0" type="line"/>
      <point x="244" y="0" type="line"/>
      <point x="244" y="112" type="line"/>
    </contour>
  </outline>
</glyph>
<glyph name="brokenbar" format="1">
  <advance width="206"/>
  <unicode hex="00A6"/>
  <outline>
    <contour>
      <point x="129" y="707" type="line"/>
      <point x="129" y="380" type="line"/>
      <point x="77" y="380" type="line"/>
      <point x="77" y="707" type="line"/>
    </contour>
    <contour>
      <point x="129" y="247" type="line"/>
      <point x="129" y="-80" type="line"/>
      <point x="77" y="-80" type="line"/>
      <point x="77" y="247" type="line"/>
    </contour>
  </outline>
</glyph>
<glyph name="section" format="1">
  <advance width="483"/>
  <unicode hex="00A7"/>
  <outline>
    <contour>
      <point x="251" y="588" type="qcurve"/>
      <point x="186" y="588"/>
      <point x="129" y="559"/>
      <point x="129" y="527" type="qcurve"/>
      <point x="129" y="506"/>
      <point x="158" y="479"/>
      <point x="196" y="465" type="qcurve"/>
      <point x="371" y="398" type="line" smooth="yes"/>
      <point x="413" y="382"/>
      <point x="449" y="336"/>
      <point x="449" y="299" type="qcurve"/>
      <point x="449" y="264"/>
      <point x="410" y="199"/>
      <point x="375" y="176" type="qcurve"/>
      <point x="394" y="163"/>
      <point x="412" y="127"/>
      <point x="412" y="102" type="qcurve"/>
      <point x="412" y="46"/>
      <point x="326" y="-10"/>
      <point x="241" y="-10" type="qcurve"/>
      <point x="195" y="-10"/>
      <point x="116" y="0"/>
      <point x="82" y="10" type="qcurve"/>
      <point x="82" y="60" type="line"/>
      <point x="116" y="49"/>
      <point x="193" y="38"/>
      <point x="231" y="39" type="qcurve"/>
      <point x="296" y="39"/>
      <point x="353" y="68"/>
      <point x="353" y="100" type="qcurve"/>
      <point x="353" y="121"/>
      <point x="324" y="149"/>
      <point x="286" y="162" type="qcurve"/>
      <point x="117" y="225" type="line" smooth="yes"/>
      <point x="72" y="242"/>
      <point x="34" y="290"/>
      <point x="34" y="328" type="qcurve"/>
      <point x="34" y="363"/>
      <point x="72" y="427"/>
      <point x="107" y="451" type="qcurve"/>
      <point x="88" y="464"/>
      <point x="71" y="500"/>
      <point x="71" y="525" type="qcurve"/>
      <point x="71" y="580"/>
      <point x="157" y="637"/>
      <point x="241" y="637" type="qcurve"/>
      <point x="288" y="637"/>
      <point x="368" y="628"/>
      <point x="400" y="618" type="qcurve"/>
      <point x="400" y="568" type="line"/>
      <point x="367" y="578"/>
      <point x="291" y="589"/>
    </contour>
    <contour>
      <point x="145" y="270" type="qcurve"/>
      <point x="325" y="202" type="line" smooth="yes"/>
      <point x="329" y="201"/>
      <point x="332" y="200"/>
      <point x="333" y="199" type="qcurve"/>
      <point x="362" y="218"/>
      <point x="394" y="264"/>
      <point x="394" y="288" type="qcurve"/>
      <point x="394" y="316"/>
      <point x="371" y="345"/>
      <point x="337" y="357" type="qcurve"/>
      <point x="157" y="426" type="line" smooth="yes"/>
      <point x="156" y="427"/>
      <point x="151" y="429"/>
      <point x="150" y="429" type="qcurve"/>
      <point x="119" y="409"/>
      <point x="88" y="364"/>
      <point x="88" y="339" type="qcurve"/>
      <point x="88" y="312"/>
      <point x="112" y="282"/>
    </contour>
  </outline>
</glyph>
<glyph name="copyright" format="1">
  <advance width="713"/>
  <unicode hex="00A9"/>
  <outline>
    <contour>
      <point x="665" y="314" type="qcurve"/>
      <point x="665" y="154"/>
      <point x="509" y="-10"/>
      <point x="357" y="-10" type="qcurve"/>
      <point x="203" y="-10"/>
      <point x="48" y="152"/>
      <point x="48" y="314" type="qcurve"/>
      <point x="48" y="474"/>
      <point x="204" y="637"/>
      <point x="357" y="637" type="qcurve"/>
      <point x="511" y="637"/>
      <point x="665" y="476"/>
    </contour>
    <contour>
      <point x="618" y="314" type="qcurve"/>
      <point x="618" y="454"/>
      <point x="489" y="592"/>
      <point x="358" y="592" type="qcurve"/>
      <point x="226" y="592"/>
      <point x="96" y="454"/>
      <point x="96" y="314" type="qcurve"/>
      <point x="96" y="174"/>
      <point x="226" y="37"/>
      <point x="358" y="37" type="qcurve"/>
      <point x="489" y="37"/>
      <point x="618" y="174"/>
    </contour>
    <contour>
      <point x="376" y="186" type="qcurve"/>
      <point x="399" y="186"/>
      <point x="447" y="197"/>
      <point x="471" y="207" type="qcurve"/>
      <point x="471" y="158" type="line"/>
      <point x="450" y="148"/>
      <point x="395" y="137"/>
      <point x="366" y="137" type="qcurve"/>
      <point x="272" y="137"/>
      <point x="193" y="220"/>
      <point x="193" y="316" type="qcurve" smooth="yes"/>
      <point x="193" y="407"/>
      <point x="281" y="494"/>
      <point x="375" y="494" type="qcurve"/>
      <point x="396" y="494"/>
      <point x="436" y="490"/>
      <point x="462" y="484" type="qcurve"/>
      <point x="462" y="437" type="line"/>
      <point x="441" y="441"/>
      <point x="402" y="445"/>
      <point x="375" y="445" type="qcurve"/>
      <point x="309" y="445"/>
      <point x="253" y="385"/>
      <point x="253" y="316" type="qcurve" smooth="yes"/>
      <point x="253" y="244"/>
      <point x="307" y="186"/>
    </contour>
  </outline>
</glyph>
<glyph name="ordfeminine" format="1">
  <advance width="356"/>
  <unicode hex="00AA"/>
  <outline>
    <contour>
      <point x="290" y="355" type="line"/>
      <point x="249" y="355" type="line"/>
      <point x="248" y="383" type="line"/>
      <point x="246" y="383" type="line"/>
      <point x="246" y="383" type="line"/>
      <point x="223" y="367"/>
      <point x="170" y="350"/>
      <point x="145" y="350" type="qcurve"/>
      <point x="100" y="350"/>
      <point x="57" y="392"/>
      <point x="57" y="436" type="qcurve"/>
      <point x="57" y="479"/>
      <point x="108" y="517"/>
      <point x="168" y="517" type="qcurve"/>
      <point x="189" y="517"/>
      <point x="230" y="514"/>
      <point x="246" y="511" type="qcurve"/>
      <point x="246" y="536" type="line" smooth="yes"/>
      <point x="246" y="569"/>
      <point x="210" y="596"/>
      <point x="172" y="596" type="qcurve" smooth="yes"/>
      <point x="145" y="596"/>
      <point x="105" y="592"/>
      <point x="85" y="588" type="qcurve"/>
      <point x="85" y="627" type="line"/>
      <point x="108" y="632"/>
      <point x="153" y="637"/>
      <point x="184" y="637" type="qcurve"/>
      <point x="238" y="637"/>
      <point x="290" y="591"/>
      <point x="290" y="542" type="qcurve"/>
    </contour>
    <contour>
      <point x="172" y="483" type="qcurve"/>
      <point x="132" y="483"/>
      <point x="100" y="463"/>
      <point x="100" y="438" type="qcurve"/>
      <point x="100" y="412"/>
      <point x="127" y="389"/>
      <point x="157" y="389" type="qcurve"/>
      <point x="180" y="389"/>
      <point x="231" y="404"/>
      <point x="246" y="415" type="qcurve"/>
      <point x="246" y="477" type="line"/>
      <point x="232" y="480"/>
      <point x="196" y="483"/>
    </contour>
    <contour>
      <point x="293" y="262" type="line"/>
      <point x="58" y="262" type="line"/>
      <point x="58" y="302" type="line"/>
      <point x="293" y="302" type="line"/>
    </contour>
  </outline>
</glyph>
<glyph name="guillemotleft" format="1">
  <advance width="472"/>
  <unicode hex="00AB"/>
  <outline>
    <contour>
      <point x="235" y="64" type="line"/>
      <point x="176" y="64" type="line"/>
      <point x="27" y="281" type="line"/>
      <point x="176" y="494" type="line"/>
      <point x="235" y="494" type="line"/>
      <point x="87" y="281" type="line"/>
    </contour>
    <contour>
      <point x="438" y="64" type="line"/>
      <point x="378" y="64" type="line"/>
      <point x="229" y="281" type="line"/>
      <point x="378" y="494" type="line"/>
      <point x="438" y="494" type="line"/>
      <point x="290" y="281" type="line"/>
    </contour>
  </outline>
</glyph>
<glyph name="registered" format="1">
  <advance width="447"/>
  <unicode hex="00AE"/>
  <outline>
    <contour>
      <point x="402" y="454" type="qcurve"/>
      <point x="402" y="363"/>
      <point x="313" y="270"/>
      <point x="224" y="270" type="qcurve"/>
      <point x="134" y="270"/>
      <point x="45" y="361"/>
      <point x="45" y="454" type="qcurve"/>
      <point x="45" y="545"/>
      <point x="135" y="637"/>
      <point x="225" y="637" type="qcurve"/>
      <point x="314" y="637"/>
      <point x="402" y="546"/>
    </contour>
    <contour>
      <point x="365" y="454" type="qcurve"/>
      <point x="365" y="529"/>
      <point x="296" y="602"/>
      <point x="225" y="602" type="qcurve"/>
      <point x="153" y="602"/>
      <point x="84" y="529"/>
      <point x="84" y="454" type="qcurve"/>
      <point x="84" y="379"/>
      <point x="153" y="307"/>
      <point x="225" y="307" type="qcurve"/>
      <point x="296" y="307"/>
      <point x="365" y="380"/>
    </contour>
    <contour>
      <point x="189" y="424" type="line"/>
      <point x="189" y="354" type="line"/>
      <point x="153" y="354" type="line"/>
      <point x="153" y="556" type="line"/>
      <point x="223" y="556" type="line" smooth="yes"/>
      <point x="269" y="556"/>
      <point x="306" y="524"/>
      <point x="306" y="491" type="qcurve"/>
      <point x="306" y="466"/>
      <point x="284" y="435"/>
      <point x="261" y="428" type="qcurve"/>
      <point x="311" y="354" type="line"/>
      <point x="266" y="354" type="line"/>
      <point x="222" y="424" type="line"/>
    </contour>
    <contour>
      <point x="269" y="491" type="qcurve"/>
      <point x="269" y="507"/>
      <point x="248" y="523"/>
      <point x="223" y="523" type="qcurve"/>
      <point x="189" y="523" type="line"/>
      <point x="189" y="454" type="line"/>
      <point x="223" y="454" type="line" smooth="yes"/>
      <point x="248" y="454"/>
      <point x="269" y="472"/>
    </contour>
  </outline>
</glyph>
<glyph name="degree" format="1">
  <advance width="350"/>
  <unicode hex="00B0"/>
  <outline>
    <contour>
      <point x="308" y="500" type="qcurve" smooth="yes"/>
      <point x="308" y="439"/>
      <point x="236" y="366"/>
      <point x="175" y="366" type="qcurve" smooth="yes"/>
      <point x="114" y="366"/>
      <point x="42" y="439"/>
      <point x="42" y="500" type="qcurve" smooth="yes"/>
      <point x="42" y="561"/>
      <point x="115" y="634"/>
      <point x="175" y="634" type="qcurve" smooth="yes"/>
      <point x="235" y="634"/>
      <point x="308" y="561"/>
    </contour>
    <contour>
      <point x="85" y="500" type="qcurve" smooth="yes"/>
      <point x="85" y="458"/>
      <point x="134" y="408"/>
      <point x="175" y="408" type="qcurve" smooth="yes"/>
      <point x="216" y="408"/>
      <point x="265" y="458"/>
      <point x="265" y="500" type="qcurve" smooth="yes"/>
      <point x="265" y="541"/>
      <point x="215" y="592"/>
      <point x="175" y="592" type="qcurve" smooth="yes"/>
      <point x="135" y="592"/>
      <point x="85" y="541"/>
    </contour>
  </outline>
</glyph>
<glyph name="plusminus" format="1">
  <advance width="500"/>
  <unicode hex="00B1"/>
  <outline>
    <contour>
      <point x="463" y="441" type="line"/>
      <point x="463" y="381" type="line"/>
      <point x="280" y="381" type="line"/>
      <point x="280" y="219" type="line"/>
      <point x="220" y="219" type="line"/>
      <point x="220" y="381" type="line"/>
      <point x="37" y="381" type="line"/>
      <point x="37" y="441" type="line"/>
      <point x="220" y="441" type="line"/>
      <point x="220" y="601" type="line"/>
      <point x="280" y="601" type="line"/>
      <point x="280" y="441" type="line"/>
    </contour>
    <contour>
      <point x="463" y="130" type="line"/>
      <point x="463" y="70" type="line"/>
      <point x="37" y="70" type="line"/>
      <point x="37" y="130" type="line"/>
    </contour>
  </outline>
</glyph>
<glyph name="uni00B2" format="1">
  <advance width="296"/>
  <unicode hex="00B2"/>
  <outline>
    <contour>
      <point x="262" y="317" type="line"/>
      <point x="262" y="270" type="line"/>
      <point x="27" y="270" type="line"/>
      <point x="27" y="317" type="line"/>
      <point x="167" y="460" type="line" smooth="yes"/>
      <point x="189" y="483"/>
      <point x="206" y="519"/>
      <point x="206" y="538" type="qcurve"/>
      <point x="206" y="562"/>
      <point x="175" y="588"/>
      <point x="147" y="588" type="qcurve"/>
      <point x="123" y="588"/>
      <point x="60" y="580"/>
      <point x="46" y="576" type="qcurve"/>
      <point x="46" y="620" type="line"/>
      <point x="71" y="626"/>
      <point x="126" y="633"/>
      <point x="154" y="633" type="qcurve"/>
      <point x="203" y="633"/>
      <point x="256" y="585"/>
      <point x="256" y="542" type="qcurve"/>
      <point x="256" y="514"/>
      <point x="234" y="467"/>
      <point x="208" y="440" type="qcurve"/>
      <point x="87" y="317" type="line"/>
    </contour>
  </outline>
</glyph>
<glyph name="uni00B3" format="1">
  <advance width="297"/>
  <unicode hex="00B3"/>
  <outline>
    <contour>
      <point x="245" y="543" type="qcurve"/>
      <point x="245" y="511"/>
      <point x="210" y="466"/>
      <point x="181" y="459" type="qcurve"/>
      <point x="181" y="457" type="line"/>
      <point x="220" y="455"/>
      <point x="262" y="410"/>
      <point x="262" y="370" type="qcurve"/>
      <point x="262" y="319"/>
      <point x="196" y="265"/>
      <point x="135" y="265" type="qcurve"/>
      <point x="101" y="265"/>
      <point x="49" y="271"/>
      <point x="31" y="277" type="qcurve"/>
      <point x="31" y="319" type="line"/>
      <point x="53" y="314"/>
      <point x="98" y="310"/>
      <point x="127" y="310" type="qcurve"/>
      <point x="172" y="310"/>
      <point x="215" y="341"/>
      <point x="215" y="373" type="qcurve"/>
      <point x="215" y="404"/>
      <point x="177" y="433"/>
      <point x="137" y="433" type="qcurve"/>
      <point x="77" y="433" type="line"/>
      <point x="77" y="474" type="line"/>
      <point x="124" y="474" type="line"/>
      <point x="159" y="474"/>
      <point x="199" y="506"/>
      <point x="199" y="535" type="qcurve"/>
      <point x="199" y="563"/>
      <point x="167" y="590"/>
      <point x="133" y="590" type="qcurve"/>
      <point x="112" y="590"/>
      <point x="57" y="583"/>
      <point x="43" y="579" type="qcurve"/>
      <point x="43" y="620" type="line"/>
      <point x="62" y="626"/>
      <point x="115" y="633"/>
      <point x="145" y="633" type="qcurve"/>
      <point x="194" y="633"/>
      <point x="245" y="587"/>
    </contour>
  </outline>
</glyph>
<glyph name="acute" format="1">
  <advance width="283"/>
  <unicode hex="00B4"/>
  <outline>
    <contour>
      <point x="152" y="685" type="line"/>
      <point x="233" y="685" type="line"/>
      <point x="109" y="566" type="line"/>
      <point x="50" y="566" type="line"/>
    </contour>
    <contour>
      <point x="112" y="530" type="move" name="_top"/>
    </contour>
  </outline>
</glyph>
<glyph name="paragraph" format="1">
  <advance width="485"/>
  <unicode hex="00B6"/>
  <outline>
    <contour>
      <point x="410" y="627" type="qcurve"/>
      <point x="410" y="4" type="line" smooth="yes"/>
      <point x="410" y="-76"/>
      <point x="332" y="-162"/>
      <point x="260" y="-162" type="qcurve"/>
      <point x="238" y="-162"/>
      <point x="204" y="-160"/>
      <point x="186" y="-157" type="qcurve"/>
      <point x="186" y="-101" type="line"/>
      <point x="204" y="-104"/>
      <point x="229" y="-106"/>
      <point x="241" y="-106" type="qcurve"/>
      <point x="298" y="-106"/>
      <point x="348" y="-55"/>
      <point x="348" y="4" type="qcurve"/>
      <point x="348" y="145" type="line"/>
      <point x="319" y="137"/>
      <point x="256" y="128"/>
      <point x="223" y="128" type="qcurve"/>
      <point x="118" y="128"/>
      <point x="34" y="241"/>
      <point x="34" y="383" type="qcurve" smooth="yes"/>
      <point x="34" y="521"/>
      <point x="143" y="639"/>
      <point x="273" y="639" type="qcurve"/>
      <point x="306" y="639"/>
      <point x="366" y="634"/>
    </contour>
    <contour>
      <point x="273" y="579" type="qcurve"/>
      <point x="172" y="579"/>
      <point x="96" y="493"/>
      <point x="96" y="383" type="qcurve" smooth="yes"/>
      <point x="96" y="270"/>
      <point x="156" y="186"/>
      <point x="237" y="186" type="qcurve"/>
      <point x="264" y="186"/>
      <point x="323" y="195"/>
      <point x="348" y="202" type="qcurve"/>
      <point x="348" y="575" type="line"/>
      <point x="332" y="577"/>
      <point x="295" y="579"/>
    </contour>
  </outline>
</glyph>
<glyph name="cedilla" format="1">
  <advance width="323"/>
  <unicode hex="00B8"/>
  <outline>
    <contour>
      <point x="277" y="-117" type="qcurve"/>
      <point x="277" y="-158"/>
      <point x="225" y="-195"/>
      <point x="168" y="-195" type="qcurve" smooth="yes"/>
      <point x="133" y="-195"/>
      <point x="75" y="-188"/>
      <point x="60" y="-183" type="qcurve"/>
      <point x="60" y="-142" type="line"/>
      <point x="75" y="-147"/>
      <point x="130" y="-154"/>
      <point x="160" y="-154" type="qcurve" smooth="yes"/>
      <point x="194" y="-154"/>
      <point x="221" y="-138"/>
      <point x="221" y="-116" type="qcurve"/>
      <point x="221" y="-98"/>
      <point x="189" y="-82"/>
      <point x="152" y="-82" type="qcurve"/>
      <point x="145" y="-82"/>
      <point x="130" y="-82"/>
      <point x="103" y="-84" type="qcurve"/>
      <point x="123" y="13" type="line"/>
      <point x="173" y="9" type="line"/>
      <point x="160" y="-51" type="line"/>
      <point x="218" y="-48"/>
      <point x="277" y="-81"/>
    </contour>
    <contour>
      <point x="150" y="0" type="move" name="_bottom"/>
    </contour>
  </outline>
</glyph>
<glyph name="ordmasculine" format="1">
  <advance width="384"/>
  <unicode hex="00BA"/>
  <outline>
    <contour>
      <point x="327" y="493" type="qcurve" smooth="yes"/>
      <point x="327" y="419"/>
      <point x="262" y="350"/>
      <point x="193" y="350" type="qcurve" smooth="yes"/>
      <point x="121" y="350"/>
      <point x="59" y="416"/>
      <point x="59" y="493" type="qcurve" smooth="yes"/>
      <point x="59" y="568"/>
      <point x="123" y="637"/>
      <point x="193" y="637" type="qcurve" smooth="yes"/>
      <point x="265" y="637"/>
      <point x="327" y="570"/>
    </contour>
    <contour>
      <point x="104" y="494" type="qcurve" smooth="yes"/>
      <point x="104" y="436"/>
      <point x="143" y="392"/>
      <point x="193" y="392" type="qcurve" smooth="yes"/>
      <point x="241" y="392"/>
      <point x="281" y="438"/>
      <point x="281" y="494" type="qcurve" smooth="yes"/>
      <point x="281" y="552"/>
      <point x="243" y="596"/>
      <point x="193" y="596" type="qcurve" smooth="yes"/>
      <point x="144" y="596"/>
      <point x="104" y="550"/>
    </contour>
    <contour>
      <point x="319" y="262" type="line"/>
      <point x="64" y="262" type="line"/>
      <point x="64" y="302" type="line"/>
      <point x="319" y="302" type="line"/>
    </contour>
  </outline>
</glyph>
<glyph name="guillemotright" format="1">
  <advance width="472"/>
  <unicode hex="00BB"/>
  <outline>
    <contour>
      <point x="445" y="281" type="line"/>
      <point x="296" y="64" type="line"/>
      <point x="237" y="64" type="line"/>
      <point x="385" y="281" type="line"/>
      <point x="237" y="494" type="line"/>
      <point x="296" y="494" type="line"/>
    </contour>
    <contour>
      <point x="243" y="281" type="line"/>
      <point x="94" y="64" type="line"/>
      <point x="34" y="64" type="line"/>
      <point x="182" y="281" type="line"/>
      <point x="34" y="494" type="line"/>
      <point x="94" y="494" type="line"/>
    </contour>
  </outline>
</glyph>
<glyph name="questiondown" format="1">
  <advance width="383"/>
  <unicode hex="00BF"/>
  <outline>
    <contour>
      <point x="192" y="428" type="line"/>
      <point x="192" y="494" type="line"/>
      <point x="258" y="494" type="line"/>
      <point x="258" y="428" type="line"/>
    </contour>
    <contour>
      <point x="199" y="-143" type="qcurve"/>
      <point x="118" y="-143"/>
      <point x="28" y="-73"/>
      <point x="28" y="-9" type="qcurve" smooth="yes"/>
      <point x="28" y="51"/>
      <point x="109" y="152"/>
      <point x="195" y="198" type="qcurve"/>
      <point x="195" y="330" type="line"/>
      <point x="253" y="330" type="line"/>
      <point x="253" y="171" type="line"/>
      <point x="166" y="129"/>
      <point x="89" y="49"/>
      <point x="89" y="4" type="qcurve" smooth="yes"/>
      <point x="89" y="-39"/>
      <point x="151" y="-85"/>
      <point x="207" y="-85" type="qcurve"/>
      <point x="245" y="-85"/>
      <point x="328" y="-70"/>
      <point x="361" y="-57" type="qcurve"/>
      <point x="361" y="-115" type="line"/>
      <point x="325" y="-129"/>
      <point x="244" y="-143"/>
    </contour>
  </outline>
</glyph>
<glyph name="AE" format="1">
  <advance width="742"/>
  <unicode hex="00C6"/>
  <outline>
    <contour>
      <point x="81" y="0" type="line"/>
      <point x="13" y="0" type="line"/>
      <point x="255" y="627" type="line"/>
      <point x="695" y="627" type="line"/>
      <point x="695" y="568" type="line"/>
      <point x="345" y="568" type="line"/>
      <point x="427" y="350" type="line"/>
      <point x="658" y="350" type="line"/>
      <point x="658" y="293" type="line"/>
      <point x="449" y="293" type="line"/>
      <point x="536" y="61" type="line"/>
      <point x="704" y="61" type="line"/>
      <point x="704" y="0" type="line"/>
      <point x="494" y="0" type="line"/>
      <point x="431" y="165" type="line"/>
      <point x="144" y="165" type="line"/>
    </contour>
    <contour>
      <point x="287" y="567" type="qcurve"/>
      <point x="273" y="520"/>
      <point x="251" y="448"/>
      <point x="242" y="422" type="qcurve"/>
      <point x="165" y="221" type="line"/>
      <point x="410" y="221" type="line"/>
      <point x="334" y="422" type="line" smooth="yes"/>
      <point x="322" y="453"/>
      <point x="298" y="528"/>
    </contour>
    <contour>
      <point x="464" y="645" type="move" name="top"/>
    </contour>
  </outline>
</glyph>
<glyph name="Ccedilla" format="1">
  <advance width="523"/>
  <unicode hex="00C7"/>
  <outline>
    <contour>
      <point x="430" y="-117" type="qcurve"/>
      <point x="430" y="-158"/>
      <point x="378" y="-195"/>
      <point x="321" y="-195" type="qcurve" smooth="yes"/>
      <point x="286" y="-195"/>
      <point x="228" y="-188"/>
      <point x="213" y="-183" type="qcurve"/>
      <point x="213" y="-142" type="line"/>
      <point x="228" y="-147"/>
      <point x="283" y="-154"/>
      <point x="313" y="-154" type="qcurve" smooth="yes"/>
      <point x="347" y="-154"/>
      <point x="374" y="-138"/>
      <point x="374" y="-116" type="qcurve"/>
      <point x="374" y="-98"/>
      <point x="342" y="-82"/>
      <point x="305" y="-82" type="qcurve"/>
      <point x="298" y="-82"/>
      <point x="283" y="-82"/>
      <point x="256" y="-84" type="qcurve"/>
      <point x="272" y="-6" type="line"/>
      <point x="153" y="3"/>
      <point x="50" y="154"/>
      <point x="50" y="315" type="qcurve" smooth="yes"/>
      <point x="50" y="482"/>
      <point x="185" y="637"/>
      <point x="333" y="637" type="qcurve"/>
      <point x="379" y="637"/>
      <point x="451" y="633"/>
      <point x="480" y="628" type="qcurve"/>
      <point x="480" y="570" type="line"/>
      <point x="446" y="574"/>
      <point x="376" y="578"/>
      <point x="333" y="578" type="qcurve"/>
      <point x="214" y="578"/>
      <point x="116" y="457"/>
      <point x="116" y="315" type="qcurve" smooth="yes"/>
      <point x="116" y="169"/>
      <point x="205" y="53"/>
      <point x="323" y="53" type="qcurve" smooth="yes"/>
      <point x="364" y="53"/>
      <point x="453" y="73"/>
      <point x="494" y="90" type="qcurve"/>
      <point x="494" y="32" type="line"/>
      <point x="441" y="11"/>
      <point x="363" y="-6"/>
      <point x="323" y="-7" type="qcurve"/>
      <point x="313" y="-51" type="line"/>
      <point x="371" y="-48"/>
      <point x="430" y="-81"/>
    </contour>
  </outline>
</glyph>
<glyph name="Eth" format="1">
  <advance width="623"/>
  <unicode hex="00D0"/>
  <outline>
    <contour>
      <point x="23" y="297" type="line"/>
      <point x="23" y="345" type="line"/>
      <point x="93" y="345" type="line"/>
      <point x="93" y="627" type="line"/>
      <point x="264" y="627" type="line" smooth="yes"/>
      <point x="361" y="627"/>
      <point x="474" y="596"/>
      <point x="508" y="561" type="qcurve" smooth="yes"/>
      <point x="541" y="526"/>
      <point x="572" y="407"/>
      <point x="572" y="314" type="qcurve"/>
      <point x="572" y="151"/>
      <point x="426" y="0"/>
      <point x="264" y="0" type="qcurve"/>
      <point x="93" y="0" type="line"/>
      <point x="93" y="297" type="line"/>
    </contour>
    <contour>
      <point x="334" y="345" type="line"/>
      <point x="334" y="297" type="line"/>
      <point x="157" y="297" type="line"/>
      <point x="157" y="61" type="line"/>
      <point x="264" y="61" type="line" smooth="yes"/>
      <point x="397" y="61"/>
      <point x="506" y="177"/>
      <point x="506" y="314" type="qcurve"/>
      <point x="506" y="391"/>
      <point x="483" y="486"/>
      <point x="459" y="514" type="qcurve" smooth="yes"/>
      <point x="433" y="543"/>
      <point x="343" y="568"/>
      <point x="264" y="568" type="qcurve"/>
      <point x="157" y="568" type="line"/>
      <point x="157" y="345" type="line"/>
    </contour>
  </outline>
</glyph>
<glyph name="multiply" format="1">
  <advance width="500"/>
  <unicode hex="00D7"/>
  <outline>
    <contour>
      <point x="47" y="484" type="line"/>
      <point x="89" y="526" type="line"/>
      <point x="251" y="365" type="line"/>
      <point x="414" y="528" type="line"/>
      <point x="456" y="486" type="line"/>
      <point x="293" y="323" type="line"/>
      <point x="456" y="159" type="line"/>
      <point x="414" y="117" type="line"/>
      <point x="251" y="281" type="line"/>
      <point x="86" y="116" type="line"/>
      <point x="44" y="158" type="line"/>
      <point x="209" y="323" type="line"/>
    </contour>
  </outline>
</glyph>
<glyph name="Oslash" format="1">
  <advance width="653"/>
  <unicode hex="00D8"/>
  <outline>
    <contour>
      <point x="95" y="-51" type="line"/>
      <point x="56" y="-26" type="line"/>
      <point x="114" y="59" type="line"/>
      <point x="81" y="94"/>
      <point x="51" y="218"/>
      <point x="51" y="315" type="qcurve"/>
      <point x="51" y="485"/>
      <point x="180" y="637"/>
      <point x="327" y="637" type="qcurve"/>
      <point x="382" y="637"/>
      <point x="462" y="623"/>
      <point x="492" y="608" type="qcurve"/>
      <point x="549" y="691" type="line"/>
      <point x="587" y="667" type="line"/>
      <point x="529" y="582" type="line"/>
      <point x="567" y="547"/>
      <point x="602" y="419"/>
      <point x="602" y="315" type="qcurve"/>
      <point x="602" y="145"/>
      <point x="473" y="-7"/>
      <point x="327" y="-7" type="qcurve"/>
      <point x="266" y="-7"/>
      <point x="180" y="11"/>
      <point x="150" y="29" type="qcurve"/>
    </contour>
    <contour>
      <point x="327" y="578" type="qcurve"/>
      <point x="208" y="578"/>
      <point x="116" y="460"/>
      <point x="116" y="315" type="qcurve"/>
      <point x="116" y="241"/>
      <point x="133" y="144"/>
      <point x="152" y="115" type="qcurve"/>
      <point x="456" y="557" type="line"/>
      <point x="435" y="568"/>
      <point x="373" y="578"/>
    </contour>
    <contour>
      <point x="327" y="53" type="qcurve" smooth="yes"/>
      <point x="445" y="53"/>
      <point x="537" y="171"/>
      <point x="537" y="315" type="qcurve"/>
      <point x="537" y="399"/>
      <point x="516" y="501"/>
      <point x="492" y="529" type="qcurve"/>
      <point x="185" y="81" type="line"/>
      <point x="208" y="66"/>
      <point x="275" y="53"/>
    </contour>
    <contour>
      <point x="327" y="655" type="move" name="top"/>
    </contour>
  </outline>
</glyph>
<glyph name="Thorn" format="1">
  <advance width="575"/>
  <unicode hex="00DE"/>
  <outline>
    <contour>
      <point x="143" y="109" type="line"/>
      <point x="143" y="0" type="line"/>
      <point x="79" y="0" type="line"/>
      <point x="79" y="627" type="line"/>
      <point x="143" y="627" type="line"/>
      <point x="143" y="524" type="line"/>
      <point x="287" y="524" type="line" smooth="yes"/>
      <point x="417" y="524"/>
      <point x="530" y="430"/>
      <point x="530" y="324" type="qcurve"/>
      <point x="530" y="215"/>
      <point x="412" y="109"/>
      <point x="290" y="109" type="qcurve"/>
    </contour>
    <contour>
      <point x="465" y="324" type="qcurve"/>
      <point x="465" y="400"/>
      <point x="383" y="466"/>
      <point x="287" y="466" type="qcurve"/>
      <point x="143" y="466" type="line"/>
      <point x="143" y="166" type="line"/>
      <point x="287" y="166" type="line" smooth="yes"/>
      <point x="380" y="166"/>
      <point x="465" y="242"/>
    </contour>
  </outline>
</glyph>
<glyph name="germandbls" format="1">
  <advance width="587"/>
  <unicode hex="00DF"/>
  <outline>
    <contour>
      <point x="266" y="677" type="qcurve"/>
      <point x="359" y="677"/>
      <point x="448" y="612"/>
      <point x="448" y="542" type="qcurve" smooth="yes"/>
      <point x="448" y="522"/>
      <point x="439" y="474"/>
      <point x="430" y="445" type="qcurve"/>
      <point x="397" y="337" type="line"/>
      <point x="456" y="318" type="line" smooth="yes"/>
      <point x="506" y="301"/>
      <point x="544" y="238"/>
      <point x="544" y="175" type="qcurve" smooth="yes"/>
      <point x="544" y="80"/>
      <point x="463" y="-10"/>
      <point x="373" y="-10" type="qcurve" smooth="yes"/>
      <point x="338" y="-10"/>
      <point x="278" y="-3"/>
      <point x="256" y="3" type="qcurve"/>
      <point x="256" y="60" type="line"/>
      <point x="280" y="54"/>
      <point x="333" y="48"/>
      <point x="366" y="48" type="qcurve" smooth="yes"/>
      <point x="432" y="48"/>
      <point x="485" y="107"/>
      <point x="485" y="175" type="qcurve" smooth="yes"/>
      <point x="485" y="217"/>
      <point x="460" y="259"/>
      <point x="425" y="270" type="qcurve"/>
      <point x="329" y="299" type="line"/>
      <point x="370" y="448" type="line" smooth="yes"/>
      <point x="379" y="477"/>
      <point x="386" y="514"/>
      <point x="386" y="530" type="qcurve" smooth="yes"/>
      <point x="386" y="577"/>
      <point x="328" y="621"/>
      <point x="266" y="621" type="qcurve"/>
      <point x="194" y="621"/>
      <point x="134" y="563"/>
      <point x="134" y="490" type="qcurve"/>
      <point x="134" y="0" type="line"/>
      <point x="72" y="0" type="line"/>
      <point x="72" y="491" type="line" smooth="yes"/>
      <point x="72" y="589"/>
      <point x="164" y="677"/>
    </contour>
  </outline>
</glyph>
<glyph name="ae" format="1">
  <advance width="777"/>
  <unicode hex="00E6"/>
  <outline>
    <contour>
      <point x="183" y="-7" type="qcurve"/>
      <point x="107" y="-7"/>
      <point x="36" y="64"/>
      <point x="36" y="139" type="qcurve"/>
      <point x="36" y="215"/>
      <point x="119" y="279"/>
      <point x="220" y="279" type="qcurve"/>
      <point x="347" y="279" type="line"/>
      <point x="347" y="327" type="line" smooth="yes"/>
      <point x="347" y="392"/>
      <point x="291" y="448"/>
      <point x="229" y="448" type="qcurve" smooth="yes"/>
      <point x="188" y="448"/>
      <point x="123" y="440"/>
      <point x="86" y="431" type="qcurve"/>
      <point x="86" y="486" type="line"/>
      <point x="126" y="496"/>
      <point x="199" y="504"/>
      <point x="247" y="504" type="qcurve" smooth="yes"/>
      <point x="302" y="504"/>
      <point x="370" y="465"/>
      <point x="385" y="425" type="qcurve"/>
      <point x="409" y="465"/>
      <point x="491" y="504"/>
      <point x="549" y="504" type="qcurve"/>
      <point x="645" y="504"/>
      <point x="731" y="407"/>
      <point x="731" y="299" type="qcurve"/>
      <point x="731" y="277"/>
      <point x="729" y="244"/>
      <point x="727" y="228" type="qcurve"/>
      <point x="407" y="228" type="line"/>
      <point x="408" y="133"/>
      <point x="476" y="50"/>
      <point x="558" y="50" type="qcurve" smooth="yes"/>
      <point x="597" y="50"/>
      <point x="683" y="68"/>
      <point x="710" y="80" type="qcurve"/>
      <point x="710" y="27" type="line"/>
      <point x="685" y="13"/>
      <point x="593" y="-7"/>
      <point x="548" y="-7" type="qcurve" smooth="yes"/>
      <point x="487" y="-7"/>
      <point x="407" y="29"/>
      <point x="384" y="67" type="qcurve"/>
      <point x="345" y="31"/>
      <point x="241" y="-7"/>
    </contour>
    <contour>
      <point x="674" y="307" type="qcurve"/>
      <point x="673" y="383"/>
      <point x="615" y="448"/>
      <point x="549" y="448" type="qcurve"/>
      <point x="472" y="448"/>
      <point x="407" y="370"/>
      <point x="407" y="279" type="qcurve"/>
      <point x="673" y="279" type="line"/>
      <point x="674" y="283"/>
      <point x="674" y="294"/>
    </contour>
    <contour>
      <point x="95" y="142" type="qcurve"/>
      <point x="95" y="93"/>
      <point x="144" y="49"/>
      <point x="200" y="49" type="qcurve"/>
      <point x="245" y="49"/>
      <point x="332" y="81"/>
      <point x="365" y="110" type="qcurve"/>
      <point x="357" y="131"/>
      <point x="349" y="189"/>
      <point x="347" y="228" type="qcurve"/>
      <point x="223" y="228" type="line" smooth="yes"/>
      <point x="151" y="228"/>
      <point x="95" y="190"/>
    </contour>
    <contour>
      <point x="388" y="530" type="move" name="top"/>
    </contour>
  </outline>
</glyph>
<glyph name="ccedilla" format="1">
  <advance width="444"/>
  <unicode hex="00E7"/>
  <outline>
    <contour>
      <point x="375" y="-117" type="qcurve"/>
      <point x="375" y="-158"/>
      <point x="323" y="-195"/>
      <point x="266" y="-195" type="qcurve" smooth="yes"/>
      <point x="231" y="-195"/>
      <point x="173" y="-188"/>
      <point x="158" y="-183" type="qcurve"/>
      <point x="158" y="-142" type="line"/>
      <point x="173" y="-147"/>
      <point x="228" y="-154"/>
      <point x="258" y="-154" type="qcurve" smooth="yes"/>
      <point x="292" y="-154"/>
      <point x="319" y="-138"/>
      <point x="319" y="-116" type="qcurve"/>
      <point x="319" y="-98"/>
      <point x="287" y="-82"/>
      <point x="250" y="-82" type="qcurve"/>
      <point x="243" y="-82"/>
      <point x="228" y="-82"/>
      <point x="201" y="-84" type="qcurve"/>
      <point x="217" y="-6" type="line"/>
      <point x="124" y="-2"/>
      <point x="49" y="112"/>
      <point x="49" y="248" type="qcurve" smooth="yes"/>
      <point x="49" y="386"/>
      <point x="158" y="504"/>
      <point x="288" y="504" type="qcurve"/>
      <point x="317" y="504"/>
      <point x="363" y="501"/>
      <point x="400" y="496" type="qcurve"/>
      <point x="400" y="440" type="line"/>
      <point x="351" y="446"/>
      <point x="312" y="448"/>
      <point x="288" y="448" type="qcurve"/>
      <point x="187" y="448"/>
      <point x="111" y="360"/>
      <point x="111" y="248" type="qcurve" smooth="yes"/>
      <point x="111" y="134"/>
      <point x="171" y="50"/>
      <point x="252" y="50" type="qcurve"/>
      <point x="295" y="50"/>
      <point x="384" y="69"/>
      <point x="413" y="83" type="qcurve"/>
      <point x="413" y="30" type="line"/>
      <point x="391" y="17"/>
      <point x="312" y="-3"/>
      <point x="268" y="-6" type="qcurve"/>
      <point x="258" y="-51" type="line"/>
      <point x="316" y="-48"/>
      <point x="375" y="-81"/>
    </contour>
  </outline>
</glyph>
<glyph name="eth" format="1">
  <advance width="552"/>
  <unicode hex="00F0"/>
  <outline>
    <contour>
      <point x="497" y="244" type="qcurve" smooth="yes"/>
      <point x="497" y="106"/>
      <point x="397" y="-7"/>
      <point x="274" y="-7" type="qcurve" smooth="yes"/>
      <point x="145" y="-7"/>
      <point x="49" y="101"/>
      <point x="49" y="244" type="qcurve" smooth="yes"/>
      <point x="49" y="382"/>
      <point x="150" y="495"/>
      <point x="274" y="495" type="qcurve" smooth="yes"/>
      <point x="316" y="495"/>
      <point x="380" y="483"/>
      <point x="404" y="471" type="qcurve"/>
      <point x="393" y="500"/>
      <point x="365" y="551"/>
      <point x="349" y="574" type="qcurve"/>
      <point x="164" y="531" type="line"/>
      <point x="164" y="571" type="line"/>
      <point x="323" y="608" type="line"/>
      <point x="311" y="623"/>
      <point x="284" y="652"/>
      <point x="269" y="665" type="qcurve"/>
      <point x="341" y="665" type="line"/>
      <point x="357" y="648"/>
      <point x="373" y="629"/>
      <point x="380" y="621" type="qcurve"/>
      <point x="482" y="645" type="line"/>
      <point x="482" y="605" type="line"/>
      <point x="407" y="587" type="line"/>
      <point x="455" y="519"/>
      <point x="497" y="357"/>
    </contour>
    <contour>
      <point x="111" y="244" type="qcurve" smooth="yes"/>
      <point x="111" y="127"/>
      <point x="176" y="50"/>
      <point x="274" y="50" type="qcurve" smooth="yes"/>
      <point x="367" y="50"/>
      <point x="435" y="132"/>
      <point x="435" y="244" type="qcurve" smooth="yes"/>
      <point x="435" y="361"/>
      <point x="371" y="438"/>
      <point x="274" y="438" type="qcurve" smooth="yes"/>
      <point x="179" y="438"/>
      <point x="111" y="357"/>
    </contour>
  </outline>
</glyph>
<glyph name="oslash" format="1">
  <advance width="547"/>
  <unicode hex="00F8"/>
  <outline>
    <contour>
      <point x="89" y="-61" type="line"/>
      <point x="52" y="-36" type="line"/>
      <point x="104" y="41" type="line"/>
      <point x="75" y="68"/>
      <point x="49" y="167"/>
      <point x="49" y="248" type="qcurve" smooth="yes"/>
      <point x="49" y="389"/>
      <point x="150" y="504"/>
      <point x="274" y="504" type="qcurve" smooth="yes"/>
      <point x="318" y="504"/>
      <point x="384" y="493"/>
      <point x="408" y="481" type="qcurve"/>
      <point x="459" y="554" type="line"/>
      <point x="496" y="528" type="line"/>
      <point x="445" y="454" type="line"/>
      <point x="472" y="426"/>
      <point x="497" y="328"/>
      <point x="497" y="248" type="qcurve" smooth="yes"/>
      <point x="497" y="108"/>
      <point x="397" y="-7"/>
      <point x="274" y="-7" type="qcurve" smooth="yes"/>
      <point x="229" y="-7"/>
      <point x="165" y="4"/>
      <point x="142" y="15" type="qcurve"/>
    </contour>
    <contour>
      <point x="274" y="448" type="qcurve" smooth="yes"/>
      <point x="179" y="448"/>
      <point x="111" y="365"/>
      <point x="111" y="249" type="qcurve" smooth="yes"/>
      <point x="111" y="187"/>
      <point x="126" y="113"/>
      <point x="142" y="92" type="qcurve"/>
      <point x="376" y="431" type="line"/>
      <point x="359" y="440"/>
      <point x="309" y="448"/>
    </contour>
    <contour>
      <point x="274" y="50" type="qcurve" smooth="yes"/>
      <point x="368" y="50"/>
      <point x="435" y="134"/>
      <point x="435" y="249" type="qcurve" smooth="yes"/>
      <point x="435" y="309"/>
      <point x="422" y="381"/>
      <point x="407" y="402" type="qcurve"/>
      <point x="175" y="65" type="line"/>
      <point x="192" y="57"/>
      <point x="239" y="50"/>
    </contour>
    <contour>
      <point x="274" y="530" type="move" name="top"/>
    </contour>
  </outline>
</glyph>
<glyph name="thorn" format="1">
  <advance width="542"/>
  <unicode hex="00FE"/>
  <outline>
    <contour>
      <point x="134" y="-152" type="line"/>
      <point x="72" y="-152" type="line"/>
      <point x="72" y="665" type="line"/>
      <point x="134" y="665" type="line"/>
      <point x="134" y="452" type="line"/>
      <point x="166" y="478"/>
      <point x="252" y="504"/>
      <point x="303" y="504" type="qcurve"/>
      <point x="405" y="504"/>
      <point x="494" y="383"/>
      <point x="494" y="248" type="qcurve" smooth="yes"/>
      <point x="494" y="112"/>
      <point x="388" y="-7"/>
      <point x="262" y="-7" type="qcurve"/>
      <point x="223" y="-7"/>
      <point x="158" y="4"/>
      <point x="134" y="15" type="qcurve"/>
    </contour>
    <contour>
      <point x="432" y="248" type="qcurve" smooth="yes"/>
      <point x="432" y="358"/>
      <point x="367" y="448"/>
      <point x="282" y="448" type="qcurve"/>
      <point x="241" y="448"/>
      <point x="166" y="425"/>
      <point x="134" y="403" type="qcurve"/>
      <point x="134" y="73" type="line"/>
      <point x="159" y="61"/>
      <point x="219" y="50"/>
      <point x="255" y="50" type="qcurve"/>
      <point x="357" y="50"/>
      <point x="432" y="137"/>
    </contour>
  </outline>
</glyph>
<glyph name="Aogonek" format="1">
  <advance width="596"/>
  <unicode hex="0104"/>
  <outline>
    <contour>
      <point x="81" y="0" type="line"/>
      <point x="13" y="0" type="line"/>
      <point x="265" y="627" type="line"/>
      <point x="332" y="627" type="line"/>
      <point x="583" y="0" type="line"/>
      <point x="581" y="0" type="line"/>
      <point x="515" y="-14"/>
      <point x="438" y="-70"/>
      <point x="438" y="-106" type="qcurve"/>
      <point x="438" y="-130"/>
      <point x="471" y="-156"/>
      <point x="502" y="-156" type="qcurve"/>
      <point x="517" y="-156"/>
      <point x="548" y="-151"/>
      <point x="565" y="-147" type="qcurve"/>
      <point x="565" y="-193" type="line"/>
      <point x="533" y="-200"/>
      <point x="502" y="-204"/>
      <point x="487" y="-204" type="qcurve"/>
      <point x="438" y="-204"/>
      <point x="385" y="-158"/>
      <point x="385" y="-117" type="qcurve"/>
      <point x="385" y="-73"/>
      <point x="448" y="-10"/>
      <point x="511" y="9" type="qcurve"/>
      <point x="450" y="165" type="line"/>
      <point x="146" y="165" type="line"/>
    </contour>
    <contour>
      <point x="297" y="570" type="qcurve"/>
      <point x="289" y="545"/>
      <point x="269" y="485"/>
      <point x="246" y="422" type="qcurve"/>
      <point x="168" y="222" type="line"/>
      <point x="428" y="222" type="line"/>
      <point x="350" y="422" type="line" smooth="yes"/>
      <point x="335" y="461"/>
      <point x="308" y="536"/>
    </contour>
  </outline>
</glyph>
<glyph name="aogonek" format="1">
  <advance width="495"/>
  <unicode hex="0105"/>
  <outline>
    <contour>
      <point x="183" y="-7" type="qcurve"/>
      <point x="107" y="-7"/>
      <point x="36" y="65"/>
      <point x="36" y="143" type="qcurve"/>
      <point x="36" y="221"/>
      <point x="122" y="287"/>
      <point x="225" y="287" type="qcurve"/>
      <point x="262" y="287"/>
      <point x="332" y="281"/>
      <point x="365" y="275" type="qcurve"/>
      <point x="365" y="327" type="line" smooth="yes"/>
      <point x="365" y="393"/>
      <point x="305" y="448"/>
      <point x="237" y="448" type="qcurve" smooth="yes"/>
      <point x="191" y="448"/>
      <point x="122" y="440"/>
      <point x="86" y="431" type="qcurve"/>
      <point x="86" y="486" type="line"/>
      <point x="128" y="496"/>
      <point x="205" y="504"/>
      <point x="256" y="504" type="qcurve" smooth="yes"/>
      <point x="344" y="504"/>
      <point x="427" y="421"/>
      <point x="427" y="332" type="qcurve"/>
      <point x="427" y="0" type="line"/>
      <point x="361" y="-14"/>
      <point x="284" y="-70"/>
      <point x="284" y="-106" type="qcurve"/>
      <point x="284" y="-130"/>
      <point x="317" y="-156"/>
      <point x="348" y="-156" type="qcurve"/>
      <point x="363" y="-156"/>
      <point x="394" y="-151"/>
      <point x="411" y="-147" type="qcurve"/>
      <point x="411" y="-193" type="line"/>
      <point x="379" y="-200"/>
      <point x="348" y="-204"/>
      <point x="333" y="-204" type="qcurve"/>
      <point x="284" y="-204"/>
      <point x="231" y="-158"/>
      <point x="231" y="-117" type="qcurve"/>
      <point x="231" y="-70"/>
      <point x="303" y="-5"/>
      <point x="370" y="12" type="qcurve"/>
      <point x="368" y="49" type="line"/>
      <point x="366" y="49" type="line"/>
      <point x="335" y="24"/>
      <point x="235" y="-7"/>
    </contour>
    <contour>
      <point x="232" y="236" type="qcurve"/>
      <point x="156" y="236"/>
      <point x="95" y="196"/>
      <point x="95" y="147" type="qcurve"/>
      <point x="95" y="95"/>
      <point x="145" y="49"/>
      <point x="201" y="49" type="qcurve"/>
      <point x="246" y="49"/>
      <point x="337" y="76"/>
      <point x="365" y="96" type="qcurve"/>
      <point x="365" y="224" type="line"/>
      <point x="332" y="230"/>
      <point x="267" y="236"/>
    </contour>
  </outline>
</glyph>
<glyph name="dcroat" format="1">
  <advance width="543"/>
  <unicode hex="0111"/>
  <outline>
    <contour>
      <point x="541" y="613" type="line"/>
      <point x="541" y="573" type="line"/>
      <point x="471" y="573" type="line"/>
      <point x="471" y="0" type="line"/>
      <point x="417" y="0" type="line"/>
      <point x="412" y="49" type="line"/>
      <point x="409" y="49" type="line"/>
      <point x="409" y="50" type="line"/>
      <point x="378" y="21"/>
      <point x="295" y="-7"/>
      <point x="239" y="-7" type="qcurve"/>
      <point x="137" y="-7"/>
      <point x="48" y="111"/>
      <point x="48" y="243" type="qcurve" smooth="yes"/>
      <point x="48" y="377"/>
      <point x="154" y="493"/>
      <point x="281" y="493" type="qcurve"/>
      <point x="321" y="493"/>
      <point x="385" y="482"/>
      <point x="409" y="471" type="qcurve"/>
      <point x="409" y="573" type="line"/>
      <point x="222" y="573" type="line"/>
      <point x="222" y="613" type="line"/>
      <point x="409" y="613" type="line"/>
      <point x="409" y="665" type="line"/>
      <point x="471" y="665" type="line"/>
      <point x="471" y="613" type="line"/>
    </contour>
    <contour>
      <point x="287" y="437" type="qcurve"/>
      <point x="185" y="437"/>
      <point x="110" y="352"/>
      <point x="110" y="243" type="qcurve" smooth="yes"/>
      <point x="110" y="137"/>
      <point x="175" y="50"/>
      <point x="260" y="50" type="qcurve"/>
      <point x="302" y="50"/>
      <point x="377" y="73"/>
      <point x="409" y="95" type="qcurve"/>
      <point x="409" y="415" type="line"/>
      <point x="383" y="426"/>
      <point x="324" y="437"/>
    </contour>
  </outline>
</glyph>
<glyph name="Eogonek" format="1">
  <advance width="528"/>
  <unicode hex="0118"/>
  <outline>
    <contour>
      <point x="490" y="0" type="line"/>
      <point x="433" y="0" type="line"/>
      <point x="367" y="-14"/>
      <point x="290" y="-70"/>
      <point x="290" y="-106" type="qcurve"/>
      <point x="290" y="-130"/>
      <point x="323" y="-156"/>
      <point x="354" y="-156" type="qcurve"/>
      <point x="369" y="-156"/>
      <point x="400" y="-151"/>
      <point x="417" y="-147" type="qcurve"/>
      <point x="417" y="-193" type="line"/>
      <point x="385" y="-200"/>
      <point x="354" y="-204"/>
      <point x="339" y="-204" type="qcurve"/>
      <point x="290" y="-204"/>
      <point x="237" y="-158"/>
      <point x="237" y="-117" type="qcurve"/>
      <point x="237" y="-78"/>
      <point x="287" y="-19"/>
      <point x="337" y="0" type="qcurve"/>
      <point x="79" y="0" type="line"/>
      <point x="79" y="627" type="line"/>
      <point x="481" y="627" type="line"/>
      <point x="481" y="568" type="line"/>
      <point x="143" y="568" type="line"/>
      <point x="143" y="350" type="line"/>
      <point x="444" y="350" type="line"/>
      <point x="444" y="293" type="line"/>
      <point x="143" y="293" type="line"/>
      <point x="143" y="61" type="line"/>
      <point x="490" y="61" type="line"/>
    </contour>
  </outline>
</glyph>
<glyph name="eogonek" format="1">
  <advance width="500"/>
  <unicode hex="0119"/>
  <outline>
    <contour>
      <point x="434" y="80" type="qcurve"/>
      <point x="434" y="27" type="line"/>
      <point x="428" y="24"/>
      <point x="410" y="17"/>
      <point x="393" y="11" type="qcurve"/>
      <point x="322" y="-22"/>
      <point x="257" y="-88"/>
      <point x="257" y="-126" type="qcurve"/>
      <point x="257" y="-151"/>
      <point x="291" y="-178"/>
      <point x="321" y="-178" type="qcurve"/>
      <point x="335" y="-178"/>
      <point x="369" y="-173"/>
      <point x="387" y="-168" type="qcurve"/>
      <point x="387" y="-211" type="line"/>
      <point x="370" y="-216"/>
      <point x="328" y="-222"/>
      <point x="309" y="-222" type="qcurve"/>
      <point x="261" y="-222"/>
      <point x="209" y="-176"/>
      <point x="209" y="-136" type="qcurve"/>
      <point x="209" y="-99"/>
      <point x="254" y="-33"/>
      <point x="297" y="-6" type="qcurve"/>
      <point x="294" y="-6"/>
      <point x="286" y="-6"/>
      <point x="279" y="-7" type="qcurve" smooth="yes"/>
      <point x="272" y="-7"/>
      <point x="264" y="-7"/>
      <point x="261" y="-7" type="qcurve" smooth="yes"/>
      <point x="147" y="-7"/>
      <point x="48" y="114"/>
      <point x="48" y="251" type="qcurve" smooth="yes"/>
      <point x="48" y="384"/>
      <point x="149" y="504"/>
      <point x="262" y="504" type="qcurve"/>
      <point x="365" y="504"/>
      <point x="455" y="408"/>
      <point x="455" y="299" type="qcurve"/>
      <point x="455" y="282"/>
      <point x="453" y="250"/>
      <point x="450" y="228" type="qcurve"/>
      <point x="111" y="228" type="line"/>
      <point x="112" y="133"/>
      <point x="184" y="50"/>
      <point x="271" y="50" type="qcurve" smooth="yes"/>
      <point x="313" y="50"/>
      <point x="403" y="67"/>
    </contour>
    <contour>
      <point x="398" y="307" type="qcurve"/>
      <point x="397" y="383"/>
      <point x="333" y="448"/>
      <point x="262" y="448" type="qcurve"/>
      <point x="180" y="448"/>
      <point x="111" y="372"/>
      <point x="111" y="281" type="qcurve"/>
      <point x="396" y="281" type="line"/>
      <point x="397" y="287"/>
      <point x="398" y="300"/>
    </contour>
  </outline>
</glyph>
<glyph name="Hbar" format="1">
  <advance width="674"/>
  <unicode hex="0126"/>
  <outline>
    <contour>
      <point x="157" y="0" type="line"/>
      <point x="93" y="0" type="line"/>
      <point x="93" y="474" type="line"/>
      <point x="27" y="474" type="line"/>
      <point x="27" y="519" type="line"/>
      <point x="93" y="519" type="line"/>
      <point x="93" y="627" type="line"/>
      <point x="157" y="627" type="line"/>
      <point x="157" y="519" type="line"/>
      <point x="517" y="519" type="line"/>
      <point x="517" y="627" type="line"/>
      <point x="582" y="627" type="line"/>
      <point x="582" y="519" type="line"/>
      <point x="647" y="519" type="line"/>
      <point x="647" y="474" type="line"/>
      <point x="582" y="474" type="line"/>
      <point x="582" y="0" type="line"/>
      <point x="517" y="0" type="line"/>
      <point x="517" y="288" type="line"/>
      <point x="157" y="288" type="line"/>
    </contour>
    <contour>
      <point x="157" y="474" type="line"/>
      <point x="157" y="348" type="line"/>
      <point x="517" y="348" type="line"/>
      <point x="517" y="474" type="line"/>
    </contour>
  </outline>
</glyph>
<glyph name="hbar" format="1">
  <advance width="553"/>
  <unicode hex="0127"/>
  <outline>
    <contour>
      <point x="134" y="0" type="line"/>
      <point x="72" y="0" type="line"/>
      <point x="72" y="573" type="line"/>
      <point x="2" y="573" type="line"/>
      <point x="2" y="613" type="line"/>
      <point x="72" y="613" type="line"/>
      <point x="72" y="665" type="line"/>
      <point x="134" y="665" type="line"/>
      <point x="134" y="613" type="line"/>
      <point x="320" y="613" type="line"/>
      <point x="320" y="573" type="line"/>
      <point x="134" y="573" type="line"/>
      <point x="134" y="451" type="line"/>
      <point x="185" y="479"/>
      <point x="275" y="504"/>
      <point x="320" y="504" type="qcurve" smooth="yes"/>
      <point x="401" y="504"/>
      <point x="485" y="422"/>
      <point x="485" y="342" type="qcurve"/>
      <point x="485" y="0" type="line"/>
      <point x="423" y="0" type="line"/>
      <point x="423" y="335" type="line" smooth="yes"/>
      <point x="423" y="393"/>
      <point x="363" y="448"/>
      <point x="300" y="448" type="qcurve" smooth="yes"/>
      <point x="260" y="448"/>
      <point x="175" y="425"/>
      <point x="134" y="403" type="qcurve"/>
    </contour>
  </outline>
</glyph>
<glyph name="Iogonek" format="1">
  <advance width="223"/>
  <unicode hex="012E"/>
  <outline>
    <contour>
      <point x="144" y="627" type="line"/>
      <point x="144" y="0" type="line"/>
      <point x="78" y="-14"/>
      <point x="1" y="-70"/>
      <point x="1" y="-106" type="qcurve"/>
      <point x="1" y="-130"/>
      <point x="34" y="-156"/>
      <point x="65" y="-156" type="qcurve"/>
      <point x="80" y="-156"/>
      <point x="111" y="-151"/>
      <point x="128" y="-147" type="qcurve"/>
      <point x="128" y="-193" type="line"/>
      <point x="96" y="-200"/>
      <point x="65" y="-204"/>
      <point x="50" y="-204" type="qcurve"/>
      <point x="1" y="-204"/>
      <point x="-52" y="-158"/>
      <point x="-52" y="-117" type="qcurve"/>
      <point x="-52" y="-71"/>
      <point x="16" y="-7"/>
      <point x="80" y="10" type="qcurve"/>
      <point x="80" y="627" type="line"/>
    </contour>
  </outline>
</glyph>
<glyph name="iogonek" format="1">
  <advance width="209"/>
  <unicode hex="012F"/>
  <outline>
    <contour>
      <point x="139" y="596" type="line"/>
      <point x="71" y="596" type="line"/>
      <point x="71" y="665" type="line"/>
      <point x="139" y="665" type="line"/>
    </contour>
    <contour>
      <point x="136" y="1" type="line"/>
      <point x="137" y="0" type="line"/>
      <point x="71" y="-14"/>
      <point x="-6" y="-70"/>
      <point x="-6" y="-106" type="qcurve"/>
      <point x="-6" y="-130"/>
      <point x="27" y="-156"/>
      <point x="58" y="-156" type="qcurve"/>
      <point x="73" y="-156"/>
      <point x="104" y="-151"/>
      <point x="121" y="-147" type="qcurve"/>
      <point x="121" y="-193" type="line"/>
      <point x="89" y="-200"/>
      <point x="58" y="-204"/>
      <point x="43" y="-204" type="qcurve"/>
      <point x="-6" y="-204"/>
      <point x="-59" y="-158"/>
      <point x="-59" y="-117" type="qcurve"/>
      <point x="-59" y="-72"/>
      <point x="8" y="-8"/>
      <point x="74" y="11" type="qcurve"/>
      <point x="74" y="494" type="line"/>
      <point x="136" y="494" type="line"/>
    </contour>
  </outline>
</glyph>
<glyph name="Lslash" format="1">
  <advance width="504"/>
  <unicode hex="0141"/>
  <outline>
    <contour>
      <point x="484" y="61" type="line"/>
      <point x="484" y="0" type="line"/>
      <point x="105" y="0" type="line"/>
      <point x="105" y="287" type="line"/>
      <point x="35" y="267" type="line"/>
      <point x="35" y="315" type="line"/>
      <point x="105" y="335" type="line"/>
      <point x="105" y="627" type="line"/>
      <point x="169" y="627" type="line"/>
      <point x="169" y="353" type="line"/>
      <point x="363" y="409" type="line"/>
      <point x="363" y="360" type="line"/>
      <point x="169" y="305" type="line"/>
      <point x="169" y="61" type="line"/>
    </contour>
  </outline>
</glyph>
<glyph name="lslash" format="1">
  <advance width="274"/>
  <unicode hex="0142"/>
  <outline>
    <contour>
      <point x="160" y="311" type="line"/>
      <point x="160" y="0" type="line"/>
      <point x="98" y="0" type="line"/>
      <point x="98" y="292" type="line"/>
      <point x="32" y="272" type="line"/>
      <point x="32" y="319" type="line"/>
      <point x="98" y="339" type="line"/>
      <point x="98" y="665" type="line"/>
      <point x="160" y="665" type="line"/>
      <point x="160" y="358" type="line"/>
      <point x="249" y="385" type="line"/>
      <point x="249" y="338" type="line"/>
    </contour>
  </outline>
</glyph>
<glyph name="Eng" format="1">
  <advance width="662"/>
  <unicode hex="014A"/>
  <outline>
    <contour>
      <point x="583" y="627" type="line"/>
      <point x="583" y="6" type="line" smooth="yes"/>
      <point x="583" y="-76"/>
      <point x="506" y="-163"/>
      <point x="434" y="-163" type="qcurve"/>
      <point x="410" y="-163"/>
      <point x="377" y="-160"/>
      <point x="359" y="-157" type="qcurve"/>
      <point x="359" y="-103" type="line"/>
      <point x="376" y="-106"/>
      <point x="402" y="-108"/>
      <point x="415" y="-108" type="qcurve"/>
      <point x="470" y="-108"/>
      <point x="520" y="-55"/>
      <point x="521" y="4" type="qcurve"/>
      <point x="140" y="525" type="line"/>
      <point x="140" y="0" type="line"/>
      <point x="79" y="0" type="line"/>
      <point x="79" y="627" type="line"/>
      <point x="147" y="627" type="line"/>
      <point x="522" y="109" type="line"/>
      <point x="522" y="627" type="line"/>
    </contour>
  </outline>
</glyph>
<glyph name="eng" format="1">
  <advance width="553"/>
  <unicode hex="014B"/>
  <outline>
    <contour>
      <point x="134" y="0" type="line"/>
      <point x="72" y="0" type="line"/>
      <point x="72" y="494" type="line"/>
      <point x="125" y="494" type="line"/>
      <point x="129" y="447" type="line"/>
      <point x="131" y="447" type="line"/>
      <point x="175" y="477"/>
      <point x="265" y="504"/>
      <point x="319" y="504" type="qcurve" smooth="yes"/>
      <point x="401" y="504"/>
      <point x="485" y="422"/>
      <point x="485" y="342" type="qcurve"/>
      <point x="485" y="5" type="line" smooth="yes"/>
      <point x="485" y="-78"/>
      <point x="409" y="-162"/>
      <point x="334" y="-162" type="qcurve"/>
      <point x="317" y="-162"/>
      <point x="286" y="-160"/>
      <point x="261" y="-156" type="qcurve"/>
      <point x="261" y="-101" type="line"/>
      <point x="276" y="-104"/>
      <point x="303" y="-106"/>
      <point x="316" y="-106" type="qcurve"/>
      <point x="373" y="-106"/>
      <point x="423" y="-52"/>
      <point x="423" y="11" type="qcurve"/>
      <point x="423" y="335" type="line" smooth="yes"/>
      <point x="423" y="392"/>
      <point x="361" y="448"/>
      <point x="297" y="448" type="qcurve" smooth="yes"/>
      <point x="259" y="448"/>
      <point x="177" y="422"/>
      <point x="134" y="397" type="qcurve"/>
    </contour>
  </outline>
</glyph>
<glyph name="OE" format="1">
  <advance width="888"/>
  <unicode hex="0152"/>
  <outline>
    <contour>
      <point x="313" y="-7" type="qcurve"/>
      <point x="225" y="-7"/>
      <point x="123" y="32"/>
      <point x="95" y="77" type="qcurve" smooth="yes"/>
      <point x="73" y="113"/>
      <point x="52" y="227"/>
      <point x="52" y="315" type="qcurve"/>
      <point x="52" y="489"/>
      <point x="172" y="637"/>
      <point x="313" y="637" type="qcurve"/>
      <point x="345" y="637"/>
      <point x="398" y="632"/>
      <point x="420" y="627" type="qcurve"/>
      <point x="841" y="627" type="line"/>
      <point x="841" y="568" type="line"/>
      <point x="520" y="568" type="line"/>
      <point x="545" y="536"/>
      <point x="571" y="430"/>
      <point x="573" y="349" type="qcurve"/>
      <point x="804" y="349" type="line"/>
      <point x="804" y="293" type="line"/>
      <point x="573" y="293" type="line"/>
      <point x="571" y="210"/>
      <point x="539" y="96"/>
      <point x="508" y="61" type="qcurve"/>
      <point x="850" y="61" type="line"/>
      <point x="850" y="0" type="line"/>
      <point x="393" y="0" type="line"/>
      <point x="376" y="-4"/>
      <point x="336" y="-7"/>
    </contour>
    <contour>
      <point x="144" y="122" type="qcurve" smooth="yes"/>
      <point x="163" y="85"/>
      <point x="238" y="53"/>
      <point x="313" y="53" type="qcurve"/>
      <point x="425" y="53"/>
      <point x="508" y="167"/>
      <point x="508" y="315" type="qcurve"/>
      <point x="508" y="388"/>
      <point x="495" y="480"/>
      <point x="482" y="508" type="qcurve" smooth="yes"/>
      <point x="463" y="546"/>
      <point x="389" y="578"/>
      <point x="313" y="578" type="qcurve"/>
      <point x="200" y="578"/>
      <point x="117" y="464"/>
      <point x="117" y="315" type="qcurve"/>
      <point x="117" y="242"/>
      <point x="130" y="151"/>
    </contour>
  </outline>
</glyph>
<glyph name="oe" format="1">
  <advance width="852"/>
  <unicode hex="0153"/>
  <outline>
    <contour>
      <point x="452" y="99" type="qcurve"/>
      <point x="432" y="43"/>
      <point x="345" y="-7"/>
      <point x="267" y="-7" type="qcurve" smooth="yes"/>
      <point x="143" y="-7"/>
      <point x="50" y="102"/>
      <point x="50" y="248" type="qcurve" smooth="yes"/>
      <point x="50" y="389"/>
      <point x="147" y="504"/>
      <point x="267" y="504" type="qcurve" smooth="yes"/>
      <point x="349" y="504"/>
      <point x="435" y="456"/>
      <point x="453" y="400" type="qcurve"/>
      <point x="473" y="453"/>
      <point x="557" y="504"/>
      <point x="624" y="504" type="qcurve"/>
      <point x="721" y="504"/>
      <point x="806" y="409"/>
      <point x="806" y="299" type="qcurve"/>
      <point x="806" y="277"/>
      <point x="804" y="244"/>
      <point x="802" y="228" type="qcurve"/>
      <point x="483" y="228" type="line"/>
      <point x="483" y="132"/>
      <point x="551" y="50"/>
      <point x="634" y="50" type="qcurve" smooth="yes"/>
      <point x="673" y="50"/>
      <point x="759" y="68"/>
      <point x="785" y="80" type="qcurve"/>
      <point x="785" y="27" type="line"/>
      <point x="761" y="13"/>
      <point x="669" y="-7"/>
      <point x="623" y="-7" type="qcurve" smooth="yes"/>
      <point x="554" y="-7"/>
      <point x="472" y="44"/>
    </contour>
    <contour>
      <point x="112" y="249" type="qcurve" smooth="yes"/>
      <point x="112" y="129"/>
      <point x="173" y="50"/>
      <point x="267" y="50" type="qcurve" smooth="yes"/>
      <point x="357" y="50"/>
      <point x="421" y="133"/>
      <point x="421" y="249" type="qcurve" smooth="yes"/>
      <point x="421" y="368"/>
      <point x="360" y="448"/>
      <point x="267" y="448" type="qcurve" smooth="yes"/>
      <point x="177" y="448"/>
      <point x="112" y="365"/>
    </contour>
    <contour>
      <point x="749" y="307" type="qcurve"/>
      <point x="749" y="383"/>
      <point x="690" y="448"/>
      <point x="624" y="448" type="qcurve"/>
      <point x="548" y="448"/>
      <point x="483" y="372"/>
      <point x="483" y="281" type="qcurve"/>
      <point x="748" y="281" type="line"/>
      <point x="749" y="284"/>
      <point x="749" y="294"/>
    </contour>
  </outline>
</glyph>
<glyph name="Scedilla" format="1">
  <advance width="509"/>
  <unicode hex="015E"/>
  <outline>
    <contour>
      <point x="323" y="272" type="qcurve"/>
      <point x="164" y="310" type="line" smooth="yes"/>
      <point x="102" y="325"/>
      <point x="48" y="395"/>
      <point x="48" y="458" type="qcurve"/>
      <point x="48" y="551"/>
      <point x="154" y="637"/>
      <point x="269" y="637" type="qcurve" smooth="yes"/>
      <point x="317" y="637"/>
      <point x="394" y="628"/>
      <point x="425" y="619" type="qcurve"/>
      <point x="425" y="560" type="line"/>
      <point x="392" y="569"/>
      <point x="312" y="578"/>
      <point x="268" y="578" type="qcurve" smooth="yes"/>
      <point x="182" y="578"/>
      <point x="112" y="527"/>
      <point x="112" y="463" type="qcurve"/>
      <point x="112" y="421"/>
      <point x="146" y="379"/>
      <point x="185" y="370" type="qcurve"/>
      <point x="344" y="331" type="line" smooth="yes"/>
      <point x="421" y="313"/>
      <point x="473" y="246"/>
      <point x="473" y="177" type="qcurve"/>
      <point x="473" y="77"/>
      <point x="373" y="-7"/>
      <point x="264" y="-7" type="qcurve"/>
      <point x="254" y="-51" type="line"/>
      <point x="312" y="-48"/>
      <point x="371" y="-81"/>
      <point x="371" y="-117" type="qcurve"/>
      <point x="371" y="-158"/>
      <point x="319" y="-195"/>
      <point x="262" y="-195" type="qcurve" smooth="yes"/>
      <point x="227" y="-195"/>
      <point x="169" y="-188"/>
      <point x="154" y="-183" type="qcurve"/>
      <point x="154" y="-142" type="line"/>
      <point x="169" y="-147"/>
      <point x="224" y="-154"/>
      <point x="254" y="-154" type="qcurve" smooth="yes"/>
      <point x="288" y="-154"/>
      <point x="315" y="-138"/>
      <point x="315" y="-116" type="qcurve"/>
      <point x="315" y="-98"/>
      <point x="283" y="-82"/>
      <point x="246" y="-82" type="qcurve"/>
      <point x="239" y="-82"/>
      <point x="224" y="-82"/>
      <point x="197" y="-84" type="qcurve"/>
      <point x="213" y="-6" type="line"/>
      <point x="163" y="-3"/>
      <point x="74" y="12"/>
      <point x="47" y="22" type="qcurve"/>
      <point x="47" y="83" type="line"/>
      <point x="97" y="68"/>
      <point x="201" y="53"/>
      <point x="255" y="53" type="qcurve"/>
      <point x="339" y="53"/>
      <point x="407" y="104"/>
      <point x="407" y="176" type="qcurve"/>
      <point x="407" y="221"/>
      <point x="373" y="261"/>
    </contour>
  </outline>
</glyph>
<glyph name="scedilla" format="1">
  <advance width="442"/>
  <unicode hex="015F"/>
  <outline>
    <contour>
      <point x="342" y="-117" type="qcurve"/>
      <point x="342" y="-158"/>
      <point x="290" y="-195"/>
      <point x="233" y="-195" type="qcurve" smooth="yes"/>
      <point x="198" y="-195"/>
      <point x="140" y="-188"/>
      <point x="125" y="-183" type="qcurve"/>
      <point x="125" y="-142" type="line"/>
      <point x="140" y="-147"/>
      <point x="195" y="-154"/>
      <point x="225" y="-154" type="qcurve" smooth="yes"/>
      <point x="259" y="-154"/>
      <point x="286" y="-138"/>
      <point x="286" y="-116" type="qcurve"/>
      <point x="286" y="-98"/>
      <point x="254" y="-82"/>
      <point x="217" y="-82" type="qcurve"/>
      <point x="210" y="-82"/>
      <point x="195" y="-82"/>
      <point x="168" y="-84" type="qcurve"/>
      <point x="184" y="-6" type="line"/>
      <point x="141" y="-3"/>
      <point x="68" y="8"/>
      <point x="45" y="16" type="qcurve"/>
      <point x="45" y="75" type="line"/>
      <point x="74" y="64"/>
      <point x="171" y="50"/>
      <point x="223" y="50" type="qcurve" smooth="yes"/>
      <point x="289" y="50"/>
      <point x="342" y="93"/>
      <point x="342" y="146" type="qcurve" smooth="yes"/>
      <point x="342" y="182"/>
      <point x="312" y="213"/>
      <point x="270" y="220" type="qcurve"/>
      <point x="142" y="240" type="line" smooth="yes"/>
      <point x="94" y="247"/>
      <point x="48" y="303"/>
      <point x="48" y="356" type="qcurve" smooth="yes"/>
      <point x="48" y="434"/>
      <point x="137" y="504"/>
      <point x="232" y="504" type="qcurve" smooth="yes"/>
      <point x="272" y="504"/>
      <point x="335" y="500"/>
      <point x="370" y="494" type="qcurve"/>
      <point x="370" y="438" type="line"/>
      <point x="342" y="443"/>
      <point x="273" y="448"/>
      <point x="235" y="448" type="qcurve" smooth="yes"/>
      <point x="166" y="448"/>
      <point x="110" y="411"/>
      <point x="110" y="357" type="qcurve" smooth="yes"/>
      <point x="110" y="328"/>
      <point x="136" y="299"/>
      <point x="166" y="294" type="qcurve"/>
      <point x="295" y="274" type="line" smooth="yes"/>
      <point x="356" y="265"/>
      <point x="404" y="210"/>
      <point x="404" y="150" type="qcurve" smooth="yes"/>
      <point x="404" y="68"/>
      <point x="325" y="-7"/>
      <point x="235" y="-7" type="qcurve"/>
      <point x="225" y="-51" type="line"/>
      <point x="283" y="-48"/>
      <point x="342" y="-81"/>
    </contour>
  </outline>
</glyph>
<glyph name="Tbar" format="1">
  <advance width="553"/>
  <unicode hex="0166"/>
  <outline>
    <contour>
      <point x="478" y="339" type="line"/>
      <point x="478" y="292" type="line"/>
      <point x="309" y="292" type="line"/>
      <point x="309" y="0" type="line"/>
      <point x="245" y="0" type="line"/>
      <point x="245" y="292" type="line"/>
      <point x="76" y="292" type="line"/>
      <point x="76" y="339" type="line"/>
      <point x="245" y="339" type="line"/>
      <point x="245" y="568" type="line"/>
      <point x="26" y="568" type="line"/>
      <point x="26" y="627" type="line"/>
      <point x="528" y="627" type="line"/>
      <point x="528" y="568" type="line"/>
      <point x="309" y="568" type="line"/>
      <point x="309" y="339" type="line"/>
    </contour>
  </outline>
</glyph>
<glyph name="tbar" format="1">
  <advance width="382"/>
  <unicode hex="0167"/>
  <outline>
    <contour>
      <point x="362" y="60" type="qcurve"/>
      <point x="362" y="7" type="line"/>
      <point x="344" y="1"/>
      <point x="293" y="-7"/>
      <point x="269" y="-7" type="qcurve" smooth="yes"/>
      <point x="181" y="-7"/>
      <point x="107" y="72"/>
      <point x="107" y="170" type="qcurve"/>
      <point x="107" y="258" type="line"/>
      <point x="30" y="258" type="line"/>
      <point x="30" y="304" type="line"/>
      <point x="107" y="304" type="line"/>
      <point x="107" y="440" type="line"/>
      <point x="29" y="440" type="line"/>
      <point x="29" y="494" type="line"/>
      <point x="108" y="494" type="line"/>
      <point x="119" y="616" type="line"/>
      <point x="169" y="616" type="line"/>
      <point x="169" y="494" type="line"/>
      <point x="356" y="494" type="line"/>
      <point x="356" y="440" type="line"/>
      <point x="169" y="440" type="line"/>
      <point x="169" y="304" type="line"/>
      <point x="356" y="304" type="line"/>
      <point x="356" y="258" type="line"/>
      <point x="169" y="258" type="line"/>
      <point x="169" y="172" type="line" smooth="yes"/>
      <point x="169" y="101"/>
      <point x="219" y="50"/>
      <point x="281" y="50" type="qcurve" smooth="yes"/>
      <point x="301" y="50"/>
      <point x="348" y="56"/>
    </contour>
  </outline>
</glyph>
<glyph name="Uogonek" format="1">
  <advance width="637"/>
  <unicode hex="0172"/>
  <outline>
    <contour>
      <point x="499" y="246" type="qcurve"/>
      <point x="499" y="627" type="line"/>
      <point x="563" y="627" type="line"/>
      <point x="563" y="246" type="line" smooth="yes"/>
      <point x="563" y="153"/>
      <point x="503" y="39"/>
      <point x="442" y="14" type="qcurve"/>
      <point x="376" y="-19"/>
      <point x="318" y="-82"/>
      <point x="318" y="-118" type="qcurve"/>
      <point x="318" y="-143"/>
      <point x="352" y="-170"/>
      <point x="382" y="-170" type="qcurve"/>
      <point x="396" y="-170"/>
      <point x="430" y="-165"/>
      <point x="448" y="-160" type="qcurve"/>
      <point x="448" y="-203" type="line"/>
      <point x="431" y="-208"/>
      <point x="389" y="-214"/>
      <point x="370" y="-214" type="qcurve"/>
      <point x="322" y="-214"/>
      <point x="270" y="-168"/>
      <point x="270" y="-128" type="qcurve"/>
      <point x="270" y="-94"/>
      <point x="308" y="-33"/>
      <point x="345" y="-6" type="qcurve"/>
      <point x="340" y="-7"/>
      <point x="328" y="-7"/>
      <point x="316" y="-7" type="qcurve"/>
      <point x="189" y="-7"/>
      <point x="73" y="113"/>
      <point x="73" y="246" type="qcurve"/>
      <point x="73" y="627" type="line"/>
      <point x="137" y="627" type="line"/>
      <point x="137" y="246" type="line" smooth="yes"/>
      <point x="137" y="140"/>
      <point x="219" y="53"/>
      <point x="316" y="53" type="qcurve"/>
      <point x="416" y="53"/>
      <point x="499" y="140"/>
    </contour>
  </outline>
</glyph>
<glyph name="uogonek" format="1">
  <advance width="539"/>
  <unicode hex="0173"/>
  <outline>
    <contour>
      <point x="231" y="-7" type="qcurve" smooth="yes"/>
      <point x="150" y="-7"/>
      <point x="68" y="75"/>
      <point x="68" y="156" type="qcurve"/>
      <point x="68" y="494" type="line"/>
      <point x="130" y="494" type="line"/>
      <point x="130" y="163" type="line" smooth="yes"/>
      <point x="130" y="105"/>
      <point x="188" y="51"/>
      <point x="251" y="51" type="qcurve" smooth="yes"/>
      <point x="288" y="51"/>
      <point x="364" y="72"/>
      <point x="405" y="93" type="qcurve"/>
      <point x="405" y="494" type="line"/>
      <point x="467" y="494" type="line"/>
      <point x="467" y="0" type="line"/>
      <point x="401" y="-14"/>
      <point x="324" y="-70"/>
      <point x="324" y="-106" type="qcurve"/>
      <point x="324" y="-130"/>
      <point x="357" y="-156"/>
      <point x="388" y="-156" type="qcurve"/>
      <point x="403" y="-156"/>
      <point x="434" y="-151"/>
      <point x="451" y="-147" type="qcurve"/>
      <point x="451" y="-193" type="line"/>
      <point x="419" y="-200"/>
      <point x="388" y="-204"/>
      <point x="373" y="-204" type="qcurve"/>
      <point x="324" y="-204"/>
      <point x="271" y="-158"/>
      <point x="271" y="-117" type="qcurve"/>
      <point x="271" y="-70"/>
      <point x="343" y="-5"/>
      <point x="410" y="12" type="qcurve"/>
      <point x="408" y="45" type="line"/>
      <point x="407" y="45" type="line"/>
      <point x="356" y="17"/>
      <point x="273" y="-7"/>
    </contour>
  </outline>
</glyph>
<glyph name="uni018F" format="1">
  <advance width="602"/>
  <unicode hex="018F"/>
  <outline>
    <contour>
      <point x="268" y="637" type="qcurve"/>
      <point x="421" y="637"/>
      <point x="550" y="490"/>
      <point x="550" y="314" type="qcurve" smooth="yes"/>
      <point x="550" y="144"/>
      <point x="428" y="-7"/>
      <point x="287" y="-7" type="qcurve"/>
      <point x="164" y="-7"/>
      <point x="43" y="116"/>
      <point x="43" y="241" type="qcurve"/>
      <point x="43" y="266"/>
      <point x="45" y="310"/>
      <point x="49" y="346" type="qcurve"/>
      <point x="484" y="346" type="line"/>
      <point x="480" y="474"/>
      <point x="381" y="578"/>
      <point x="262" y="578" type="qcurve" smooth="yes"/>
      <point x="218" y="578"/>
      <point x="141" y="567"/>
      <point x="102" y="555" type="qcurve"/>
      <point x="102" y="613" type="line"/>
      <point x="137" y="625"/>
      <point x="222" y="637"/>
    </contour>
    <contour>
      <point x="107" y="234" type="qcurve"/>
      <point x="107" y="142"/>
      <point x="197" y="51"/>
      <point x="289" y="51" type="qcurve"/>
      <point x="393" y="51"/>
      <point x="481" y="159"/>
      <point x="485" y="289" type="qcurve"/>
      <point x="109" y="289" type="line"/>
      <point x="108" y="270"/>
      <point x="107" y="247"/>
    </contour>
  </outline>
</glyph>
<glyph name="florin" format="1">
  <advance width="415"/>
  <unicode hex="0192"/>
  <outline>
    <contour>
      <point x="116" y="313" type="line"/>
      <point x="40" y="313" type="line"/>
      <point x="40" y="368" type="line"/>
      <point x="125" y="368" type="line"/>
      <point x="142" y="475" type="line" smooth="yes"/>
      <point x="157" y="570"/>
      <point x="231" y="636"/>
      <point x="310" y="636" type="qcurve"/>
      <point x="321" y="636"/>
      <point x="342" y="635"/>
      <point x="393" y="628" type="qcurve"/>
      <point x="393" y="572" type="line"/>
      <point x="380" y="575"/>
      <point x="337" y="578"/>
      <point x="316" y="578" type="qcurve"/>
      <point x="263" y="578"/>
      <point x="217" y="536"/>
      <point x="206" y="466" type="qcurve"/>
      <point x="190" y="368" type="line"/>
      <point x="368" y="368" type="line"/>
      <point x="368" y="313" type="line"/>
      <point x="181" y="313" type="line"/>
      <point x="106" y="-152" type="line"/>
      <point x="42" y="-152" type="line"/>
    </contour>
  </outline>
</glyph>
<glyph name="uni01B5" format="1">
  <advance width="524"/>
  <unicode hex="01B5"/>
  <outline>
    <contour>
      <point x="492" y="61" type="line"/>
      <point x="492" y="0" type="line"/>
      <point x="33" y="0" type="line"/>
      <point x="33" y="61" type="line"/>
      <point x="206" y="300" type="line"/>
      <point x="57" y="300" type="line"/>
      <point x="57" y="348" type="line"/>
      <point x="241" y="348" type="line"/>
      <point x="401" y="568" type="line"/>
      <point x="62" y="568" type="line"/>
      <point x="62" y="627" type="line"/>
      <point x="473" y="627" type="line"/>
      <point x="473" y="568" type="line"/>
      <point x="314" y="348" type="line"/>
      <point x="470" y="348" type="line"/>
      <point x="470" y="300" type="line"/>
      <point x="280" y="300" type="line"/>
      <point x="107" y="61" type="line"/>
    </contour>
  </outline>
</glyph>
<glyph name="uni01B6" format="1">
  <advance width="437"/>
  <unicode hex="01B6"/>
  <outline>
    <contour>
      <point x="404" y="55" type="line"/>
      <point x="404" y="0" type="line"/>
      <point x="37" y="0" type="line"/>
      <point x="37" y="55" type="line"/>
      <point x="169" y="237" type="line"/>
      <point x="57" y="237" type="line"/>
      <point x="57" y="283" type="line"/>
      <point x="203" y="283" type="line"/>
      <point x="317" y="440" type="line"/>
      <point x="55" y="440" type="line"/>
      <point x="55" y="494" type="line"/>
      <point x="387" y="494" type="line"/>
      <point x="387" y="440" type="line"/>
      <point x="273" y="283" type="line"/>
      <point x="386" y="283" type="line"/>
      <point x="386" y="237" type="line"/>
      <point x="240" y="237" type="line"/>
      <point x="108" y="55" type="line"/>
    </contour>
  </outline>
</glyph>
<glyph name="uni0237" format="1">
  <advance width="216"/>
  <unicode hex="0237"/>
  <outline>
    <contour>
      <point x="-7" y="-162" type="qcurve"/>
      <point x="-25" y="-162"/>
      <point x="-57" y="-160"/>
      <point x="-80" y="-156" type="qcurve"/>
      <point x="-80" y="-101" type="line"/>
      <point x="-64" y="-104"/>
      <point x="-38" y="-106"/>
      <point x="-25" y="-106" type="qcurve"/>
      <point x="32" y="-106"/>
      <point x="82" y="-52"/>
      <point x="82" y="11" type="qcurve"/>
      <point x="82" y="494" type="line"/>
      <point x="144" y="494" type="line"/>
      <point x="144" y="5" type="line"/>
      <point x="144" y="-78"/>
      <point x="68" y="-162"/>
    </contour>
    <contour>
      <point x="113" y="520" type="move" name="top"/>
    </contour>
  </outline>
</glyph>
<glyph name="uni0259" format="1">
  <advance width="501"/>
  <unicode hex="0259"/>
  <outline>
    <contour>
      <point x="67" y="418" type="qcurve"/>
      <point x="67" y="470" type="line"/>
      <point x="93" y="484"/>
      <point x="190" y="504"/>
      <point x="239" y="504" type="qcurve" smooth="yes"/>
      <point x="352" y="504"/>
      <point x="452" y="387"/>
      <point x="452" y="256" type="qcurve" smooth="yes"/>
      <point x="452" y="118"/>
      <point x="351" y="-7"/>
      <point x="239" y="-7" type="qcurve"/>
      <point x="136" y="-7"/>
      <point x="46" y="89"/>
      <point x="46" y="198" type="qcurve"/>
      <point x="46" y="226"/>
      <point x="48" y="265"/>
      <point x="51" y="283" type="qcurve"/>
      <point x="389" y="283" type="line"/>
      <point x="389" y="371"/>
      <point x="316" y="448"/>
      <point x="229" y="448" type="qcurve" smooth="yes"/>
      <point x="186" y="448"/>
      <point x="93" y="430"/>
    </contour>
    <contour>
      <point x="104" y="191" type="qcurve"/>
      <point x="104" y="115"/>
      <point x="167" y="50"/>
      <point x="239" y="50" type="qcurve"/>
      <point x="320" y="50"/>
      <point x="389" y="132"/>
      <point x="389" y="230" type="qcurve"/>
      <point x="105" y="230" type="line"/>
      <point x="104" y="225"/>
      <point x="104" y="210"/>
    </contour>
  </outline>
</glyph>
<glyph name="uni02BB" format="1">
  <advance width="164"/>
  <unicode hex="02BB"/>
  <outline>
    <contour>
      <point x="45" y="452" type="line"/>
      <point x="68" y="600" type="line" smooth="yes"/>
      <point x="71" y="614"/>
      <point x="86" y="627"/>
      <point x="98" y="627" type="qcurve"/>
      <point x="113" y="627" type="line"/>
      <point x="106" y="452" type="line"/>
    </contour>
  </outline>
</glyph>
<glyph name="circumflex" format="1">
  <advance width="410"/>
  <unicode hex="02C6"/>
  <outline>
    <contour>
      <point x="360" y="566" type="line"/>
      <point x="302" y="566" type="line"/>
      <point x="205" y="646" type="line"/>
      <point x="109" y="566" type="line"/>
      <point x="50" y="566" type="line"/>
      <point x="173" y="685" type="line"/>
      <point x="238" y="685" type="line"/>
    </contour>
    <contour>
      <point x="205" y="530" type="move" name="_top"/>
    </contour>
  </outline>
</glyph>
<glyph name="caron" format="1">
  <advance width="410"/>
  <unicode hex="02C7"/>
  <outline>
    <contour>
      <point x="50" y="685" type="line"/>
      <point x="108" y="685" type="line"/>
      <point x="205" y="605" type="line"/>
      <point x="301" y="685" type="line"/>
      <point x="360" y="685" type="line"/>
      <point x="237" y="566" type="line"/>
      <point x="172" y="566" type="line"/>
    </contour>
    <contour>
      <point x="206" y="530" type="move" name="_top"/>
    </contour>
  </outline>
</glyph>
<glyph name="breve" format="1">
  <advance width="379"/>
  <unicode hex="02D8"/>
  <outline>
    <contour>
      <point x="283" y="685" type="qcurve"/>
      <point x="329" y="685" type="line"/>
      <point x="329" y="627"/>
      <point x="255" y="559"/>
      <point x="190" y="559" type="qcurve" smooth="yes"/>
      <point x="125" y="559"/>
      <point x="50" y="627"/>
      <point x="50" y="685" type="qcurve"/>
      <point x="96" y="685" type="line"/>
      <point x="96" y="648"/>
      <point x="147" y="603"/>
      <point x="190" y="603" type="qcurve" smooth="yes"/>
      <point x="232" y="603"/>
      <point x="283" y="648"/>
    </contour>
    <contour>
      <point x="190" y="530" type="move" name="_top"/>
    </contour>
  </outline>
</glyph>
<glyph name="ring" format="1">
  <advance width="325"/>
  <unicode hex="02DA"/>
  <outline>
    <contour>
      <point x="272" y="635" type="qcurve" smooth="yes"/>
      <point x="272" y="593"/>
      <point x="212" y="543"/>
      <point x="161" y="543" type="qcurve" smooth="yes"/>
      <point x="111" y="543"/>
      <point x="52" y="593"/>
      <point x="52" y="635" type="qcurve" smooth="yes"/>
      <point x="52" y="675"/>
      <point x="111" y="724"/>
      <point x="161" y="724" type="qcurve" smooth="yes"/>
      <point x="212" y="724"/>
      <point x="272" y="676"/>
    </contour>
    <contour>
      <point x="93" y="635" type="qcurve" smooth="yes"/>
      <point x="93" y="610"/>
      <point x="129" y="582"/>
      <point x="161" y="582" type="qcurve" smooth="yes"/>
      <point x="195" y="582"/>
      <point x="232" y="610"/>
      <point x="232" y="635" type="qcurve" smooth="yes"/>
      <point x="232" y="659"/>
      <point x="195" y="686"/>
      <point x="161" y="686" type="qcurve" smooth="yes"/>
      <point x="129" y="686"/>
      <point x="93" y="659"/>
    </contour>
    <contour>
      <point x="161" y="530" type="move" name="_top"/>
    </contour>
  </outline>
</glyph>
<glyph name="ogonek" format="1">
  <advance width="307"/>
  <unicode hex="02DB"/>
  <outline>
    <contour>
      <point x="225" y="27" type="qcurve"/>
      <point x="257" y="9" type="line"/>
      <point x="191" y="-5"/>
      <point x="114" y="-61"/>
      <point x="114" y="-97" type="qcurve"/>
      <point x="114" y="-121"/>
      <point x="147" y="-147"/>
      <point x="178" y="-147" type="qcurve"/>
      <point x="193" y="-147"/>
      <point x="224" y="-142"/>
      <point x="241" y="-138" type="qcurve"/>
      <point x="241" y="-184" type="line"/>
      <point x="209" y="-191"/>
      <point x="178" y="-195"/>
      <point x="163" y="-195" type="qcurve"/>
      <point x="114" y="-195"/>
      <point x="61" y="-149"/>
      <point x="61" y="-108" type="qcurve"/>
      <point x="61" y="-58"/>
      <point x="144" y="10"/>
    </contour>
    <contour>
      <point x="257" y="9" type="move" name="_ogonek"/>
    </contour>
  </outline>
</glyph>
<glyph name="tilde" format="1">
  <advance width="391"/>
  <unicode hex="02DC"/>
  <outline>
    <contour>
      <point x="297" y="682" type="qcurve"/>
      <point x="341" y="682" type="line"/>
      <point x="341" y="626"/>
      <point x="301" y="562"/>
      <point x="263" y="562" type="qcurve"/>
      <point x="245" y="562"/>
      <point x="211" y="580"/>
      <point x="184" y="608" type="qcurve" smooth="yes"/>
      <point x="164" y="629"/>
      <point x="144" y="641"/>
      <point x="135" y="641" type="qcurve"/>
      <point x="115" y="641"/>
      <point x="94" y="603"/>
      <point x="94" y="566" type="qcurve"/>
      <point x="50" y="566" type="line"/>
      <point x="50" y="622"/>
      <point x="92" y="686"/>
      <point x="131" y="686" type="qcurve"/>
      <point x="149" y="686"/>
      <point x="183" y="668"/>
      <point x="210" y="641" type="qcurve" smooth="yes"/>
      <point x="230" y="620"/>
      <point x="250" y="608"/>
      <point x="259" y="608" type="qcurve"/>
      <point x="278" y="608"/>
      <point x="297" y="645"/>
    </contour>
    <contour>
      <point x="196" y="530" type="move" name="_top"/>
    </contour>
  </outline>
</glyph>
<glyph name="uni0312" format="1">
  <advance width="170"/>
  <unicode hex="0312"/>
  <outline>
    <contour>
      <point x="50" y="566" type="line"/>
      <point x="70" y="694" type="line" smooth="yes"/>
      <point x="72" y="708"/>
      <point x="88" y="722"/>
      <point x="102" y="722" type="qcurve"/>
      <point x="120" y="722" type="line"/>
      <point x="114" y="566" type="line"/>
    </contour>
    <contour>
      <point x="82" y="530" type="move" name="_top"/>
    </contour>
  </outline>
</glyph>
<glyph name="uni0326" format="1">
  <advance width="170"/>
  <unicode hex="0326"/>
  <outline>
    <contour>
      <point x="119" y="-68" type="line"/>
      <point x="99" y="-196" type="line" smooth="yes"/>
      <point x="96" y="-211"/>
      <point x="80" y="-225"/>
      <point x="67" y="-225" type="qcurve"/>
      <point x="49" y="-225" type="line"/>
      <point x="55" y="-68" type="line"/>
    </contour>
    <contour>
      <point x="88" y="0" type="move" name="_bottom"/>
    </contour>
  </outline>
</glyph>
<glyph name="uni0394" format="1">
  <advance width="612"/>
  <unicode hex="0394"/>
  <outline>
    <contour>
      <point x="24" y="0" type="line"/>
      <point x="24" y="61" type="line"/>
      <point x="273" y="627" type="line"/>
      <point x="339" y="627" type="line"/>
      <point x="588" y="61" type="line"/>
      <point x="588" y="0" type="line"/>
    </contour>
    <contour>
      <point x="306" y="559" type="line"/>
      <point x="88" y="61" type="line"/>
      <point x="524" y="61" type="line"/>
    </contour>
  </outline>
</glyph>
<glyph name="uni03A9" format="1">
  <advance width="695"/>
  <unicode hex="03A9"/>
  <outline>
    <contour>
      <point x="76" y="0" type="line"/>
      <point x="76" y="61" type="line"/>
      <point x="226" y="61" type="line"/>
      <point x="226" y="131" type="line"/>
      <point x="138" y="157"/>
      <point x="45" y="284"/>
      <point x="45" y="378" type="qcurve"/>
      <point x="45" y="504"/>
      <point x="205" y="647"/>
      <point x="348" y="647" type="qcurve" smooth="yes"/>
      <point x="490" y="647"/>
      <point x="650" y="503"/>
      <point x="650" y="378" type="qcurve"/>
      <point x="650" y="285"/>
      <point x="557" y="158"/>
      <point x="470" y="131" type="qcurve"/>
      <point x="470" y="61" type="line"/>
      <point x="620" y="61" type="line"/>
      <point x="620" y="0" type="line"/>
      <point x="410" y="0" type="line"/>
      <point x="410" y="168" type="line"/>
      <point x="495" y="187"/>
      <point x="582" y="292"/>
      <point x="582" y="376" type="qcurve"/>
      <point x="582" y="474"/>
      <point x="460" y="581"/>
      <point x="348" y="581" type="qcurve" smooth="yes"/>
      <point x="235" y="581"/>
      <point x="113" y="474"/>
      <point x="113" y="376" type="qcurve"/>
      <point x="113" y="292"/>
      <point x="201" y="187"/>
      <point x="286" y="168" type="qcurve"/>
      <point x="286" y="0" type="line"/>
    </contour>
  </outline>
</glyph>
<glyph name="uni03BC" format="1">
  <advance width="550"/>
  <unicode hex="03BC"/>
  <outline>
    <contour>
      <point x="238" y="-7" type="qcurve" smooth="yes"/>
      <point x="195" y="-7"/>
      <point x="142" y="19"/>
      <point x="134" y="44" type="qcurve"/>
      <point x="134" y="-34"/>
      <point x="147" y="-118"/>
      <point x="161" y="-152" type="qcurve"/>
      <point x="98" y="-152" type="line"/>
      <point x="84" y="-117"/>
      <point x="72" y="-31"/>
      <point x="72" y="60" type="qcurve"/>
      <point x="72" y="494" type="line"/>
      <point x="134" y="494" type="line"/>
      <point x="134" y="163" type="line" smooth="yes"/>
      <point x="134" y="103"/>
      <point x="188" y="51"/>
      <point x="252" y="51" type="qcurve" smooth="yes"/>
      <point x="290" y="51"/>
      <point x="374" y="74"/>
      <point x="415" y="95" type="qcurve"/>
      <point x="415" y="494" type="line"/>
      <point x="477" y="494" type="line"/>
      <point x="477" y="0" type="line"/>
      <point x="422" y="0" type="line"/>
      <point x="418" y="46" type="line"/>
      <point x="366" y="18"/>
      <point x="280" y="-7"/>
    </contour>
  </outline>
</glyph>
<glyph name="pi" format="1">
  <advance width="595"/>
  <unicode hex="03C0"/>
  <outline>
    <contour>
      <point x="123" y="0" type="qcurve"/>
      <point x="54" y="0" type="line"/>
      <point x="98" y="94"/>
      <point x="145" y="329"/>
      <point x="141" y="435" type="qcurve"/>
      <point x="26" y="435" type="line"/>
      <point x="26" y="494" type="line"/>
      <point x="562" y="494" type="line"/>
      <point x="562" y="435" type="line"/>
      <point x="443" y="435" type="line"/>
      <point x="443" y="154" type="line" smooth="yes"/>
      <point x="443" y="108"/>
      <point x="492" y="59"/>
      <point x="539" y="59" type="qcurve"/>
      <point x="551" y="59" type="line"/>
      <point x="551" y="0" type="line"/>
      <point x="524" y="0" type="line" smooth="yes"/>
      <point x="457" y="0"/>
      <point x="381" y="76"/>
      <point x="381" y="144" type="qcurve"/>
      <point x="381" y="435" type="line"/>
      <point x="203" y="435" type="line"/>
      <point x="205" y="318"/>
      <point x="164" y="91"/>
    </contour>
  </outline>
</glyph>
<glyph name="uni1E9E" format="1">
  <advance width="646"/>
  <unicode hex="1E9E"/>
  <outline>
    <contour>
      <point x="319" y="637" type="qcurve"/>
      <point x="386" y="637"/>
      <point x="500" y="622"/>
      <point x="537" y="609" type="qcurve"/>
      <point x="458" y="348" type="line"/>
      <point x="519" y="330" type="line" smooth="yes"/>
      <point x="570" y="315"/>
      <point x="609" y="250"/>
      <point x="609" y="186" type="qcurve" smooth="yes"/>
      <point x="609" y="87"/>
      <point x="522" y="-10"/>
      <point x="432" y="-10" type="qcurve" smooth="yes"/>
      <point x="393" y="-10"/>
      <point x="323" y="-3"/>
      <point x="298" y="3" type="qcurve"/>
      <point x="298" y="60" type="line"/>
      <point x="335" y="53"/>
      <point x="390" y="48"/>
      <point x="421" y="48" type="qcurve" smooth="yes"/>
      <point x="486" y="48"/>
      <point x="545" y="114"/>
      <point x="545" y="184" type="qcurve" smooth="yes"/>
      <point x="545" y="229"/>
      <point x="519" y="271"/>
      <point x="484" y="281" type="qcurve"/>
      <point x="386" y="309" type="line"/>
      <point x="465" y="567" type="line"/>
      <point x="440" y="572"/>
      <point x="354" y="580"/>
      <point x="315" y="580" type="qcurve"/>
      <point x="220" y="580"/>
      <point x="138" y="503"/>
      <point x="138" y="415" type="qcurve"/>
      <point x="138" y="0" type="line"/>
      <point x="74" y="0" type="line"/>
      <point x="74" y="416" type="line" smooth="yes"/>
      <point x="74" y="530"/>
      <point x="193" y="637"/>
    </contour>
  </outline>
</glyph>
<glyph name="quoteright" format="1">
  <advance width="160"/>
  <unicode hex="2019"/>
  <outline>
    <contour>
      <point x="120" y="627" type="line"/>
      <point x="97" y="479" type="line" smooth="yes"/>
      <point x="94" y="465"/>
      <point x="79" y="452"/>
      <point x="67" y="452" type="qcurve"/>
      <point x="52" y="452" type="line"/>
      <point x="59" y="627" type="line"/>
    </contour>
  </outline>
</glyph>
<glyph name="quotedblleft" format="1">
  <advance width="317"/>
  <unicode hex="201C"/>
  <outline>
    <contour>
      <point x="45" y="452" type="line"/>
      <point x="68" y="600" type="line" smooth="yes"/>
      <point x="71" y="614"/>
      <point x="86" y="627"/>
      <point x="98" y="627" type="qcurve"/>
      <point x="113" y="627" type="line"/>
      <point x="106" y="452" type="line"/>
    </contour>
    <contour>
      <point x="198" y="452" type="line"/>
      <point x="221" y="600" type="line" smooth="yes"/>
      <point x="224" y="614"/>
      <point x="239" y="627"/>
      <point x="251" y="627" type="qcurve"/>
      <point x="266" y="627" type="line"/>
      <point x="259" y="452" type="line"/>
    </contour>
  </outline>
</glyph>
<glyph name="dagger" format="1">
  <advance width="363"/>
  <unicode hex="2020"/>
  <outline>
    <contour>
      <point x="201" y="457" type="line"/>
      <point x="207" y="221" type="line"/>
      <point x="154" y="221" type="line"/>
      <point x="160" y="457" type="line"/>
      <point x="29" y="452" type="line"/>
      <point x="29" y="502" type="line"/>
      <point x="160" y="496" type="line"/>
      <point x="155" y="627" type="line"/>
      <point x="206" y="627" type="line"/>
      <point x="202" y="496" type="line"/>
      <point x="334" y="502" type="line"/>
      <point x="334" y="452" type="line"/>
    </contour>
  </outline>
</glyph>
<glyph name="daggerdbl" format="1">
  <advance width="400"/>
  <unicode hex="2021"/>
  <outline>
    <contour>
      <point x="352" y="293" type="line"/>
      <point x="352" y="243" type="line"/>
      <point x="220" y="249" type="line"/>
      <point x="225" y="118" type="line"/>
      <point x="173" y="118" type="line"/>
      <point x="178" y="249" type="line"/>
      <point x="47" y="243" type="line"/>
      <point x="47" y="293" type="line"/>
      <point x="179" y="288" type="line"/>
      <point x="179" y="457" type="line"/>
      <point x="47" y="452" type="line"/>
      <point x="47" y="502" type="line"/>
      <point x="178" y="496" type="line"/>
      <point x="173" y="627" type="line"/>
      <point x="225" y="627" type="line"/>
      <point x="220" y="496" type="line"/>
      <point x="352" y="502" type="line"/>
      <point x="352" y="452" type="line"/>
      <point x="219" y="457" type="line"/>
      <point x="219" y="288" type="line"/>
    </contour>
  </outline>
</glyph>
<glyph name="bullet" format="1">
  <advance width="280"/>
  <unicode hex="2022"/>
  <outline>
    <contour>
      <point x="201" y="269" type="line"/>
      <point x="83" y="269" type="line"/>
      <point x="83" y="372" type="line"/>
      <point x="201" y="372" type="line"/>
    </contour>
  </outline>
</glyph>
<glyph name="ellipsis" format="1">
  <advance width="444"/>
  <unicode hex="2026"/>
  <outline>
    <contour>
      <point x="250" y="0" type="line"/>
      <point x="193" y="0" type="line"/>
      <point x="193" y="67" type="line"/>
      <point x="250" y="67" type="line"/>
    </contour>
    <contour>
      <point x="105" y="0" type="line"/>
      <point x="48" y="0" type="line"/>
      <point x="48" y="67" type="line"/>
      <point x="105" y="67" type="line"/>
    </contour>
    <contour>
      <point x="396" y="0" type="line"/>
      <point x="339" y="0" type="line"/>
      <point x="339" y="67" type="line"/>
      <point x="396" y="67" type="line"/>
    </contour>
  </outline>
</glyph>
<glyph name="perthousand" format="1">
  <advance width="930"/>
  <unicode hex="2030"/>
  <outline>
    <contour>
      <point x="275" y="476" type="qcurve"/>
      <point x="275" y="391"/>
      <point x="220" y="320"/>
      <point x="154" y="320" type="qcurve"/>
      <point x="87" y="320"/>
      <point x="32" y="391"/>
      <point x="32" y="476" type="qcurve"/>
      <point x="32" y="561"/>
      <point x="87" y="632"/>
      <point x="154" y="632" type="qcurve"/>
      <point x="220" y="632"/>
      <point x="275" y="561"/>
    </contour>
    <contour>
      <point x="491" y="627" type="line"/>
      <point x="191" y="0" type="line"/>
      <point x="142" y="0" type="line"/>
      <point x="442" y="627" type="line"/>
    </contour>
    <contour>
      <point x="229" y="476" type="qcurve"/>
      <point x="229" y="540"/>
      <point x="196" y="592"/>
      <point x="154" y="592" type="qcurve"/>
      <point x="112" y="592"/>
      <point x="79" y="540"/>
      <point x="79" y="476" type="qcurve"/>
      <point x="79" y="413"/>
      <point x="113" y="361"/>
      <point x="154" y="361" type="qcurve"/>
      <point x="195" y="361"/>
      <point x="229" y="413"/>
    </contour>
    <contour>
      <point x="605" y="152" type="qcurve"/>
      <point x="605" y="67"/>
      <point x="549" y="-4"/>
      <point x="483" y="-4" type="qcurve"/>
      <point x="417" y="-4"/>
      <point x="361" y="67"/>
      <point x="361" y="152" type="qcurve"/>
      <point x="361" y="237"/>
      <point x="417" y="308"/>
      <point x="483" y="308" type="qcurve"/>
      <point x="549" y="308"/>
      <point x="605" y="237"/>
    </contour>
    <contour>
      <point x="898" y="152" type="qcurve"/>
      <point x="898" y="67"/>
      <point x="842" y="-4"/>
      <point x="776" y="-4" type="qcurve"/>
      <point x="710" y="-4"/>
      <point x="654" y="67"/>
      <point x="654" y="152" type="qcurve"/>
      <point x="654" y="237"/>
      <point x="710" y="308"/>
      <point x="776" y="308" type="qcurve"/>
      <point x="842" y="308"/>
      <point x="898" y="237"/>
    </contour>
    <contour>
      <point x="558" y="152" type="qcurve"/>
      <point x="558" y="216"/>
      <point x="524" y="268"/>
      <point x="483" y="268" type="qcurve"/>
      <point x="442" y="268"/>
      <point x="409" y="216"/>
      <point x="409" y="152" type="qcurve"/>
      <point x="409" y="89"/>
      <point x="442" y="38"/>
      <point x="483" y="38" type="qcurve"/>
      <point x="524" y="38"/>
      <point x="558" y="89"/>
    </contour>
    <contour>
      <point x="851" y="152" type="qcurve"/>
      <point x="851" y="216"/>
      <point x="817" y="268"/>
      <point x="776" y="268" type="qcurve"/>
      <point x="735" y="268"/>
      <point x="702" y="216"/>
      <point x="702" y="152" type="qcurve"/>
      <point x="702" y="89"/>
      <point x="735" y="38"/>
      <point x="776" y="38" type="qcurve"/>
      <point x="817" y="38"/>
      <point x="851" y="89"/>
    </contour>
  </outline>
</glyph>
<glyph name="guilsinglright" format="1">
  <advance width="276"/>
  <unicode hex="203A"/>
  <outline>
    <contour>
      <point x="249" y="281" type="line"/>
      <point x="100" y="64" type="line"/>
      <point x="34" y="64" type="line"/>
      <point x="182" y="281" type="line"/>
      <point x="34" y="494" type="line"/>
      <point x="100" y="494" type="line"/>
    </contour>
  </outline>
</glyph>
<glyph name="fraction" format="1">
  <advance width="140"/>
  <unicode hex="2044"/>
  <outline>
    <contour>
      <point x="245" y="627" type="line"/>
      <point x="-55" y="0" type="line"/>
      <point x="-104" y="0" type="line"/>
      <point x="196" y="627" type="line"/>
    </contour>
  </outline>
</glyph>
<glyph name="uni2070" format="1">
  <advance width="367"/>
  <unicode hex="2070"/>
  <outline>
    <contour>
      <point x="327" y="450" type="qcurve"/>
      <point x="327" y="347"/>
      <point x="264" y="265"/>
      <point x="184" y="265" type="qcurve"/>
      <point x="99" y="265"/>
      <point x="40" y="342"/>
      <point x="40" y="450" type="qcurve"/>
      <point x="40" y="551"/>
      <point x="103" y="633"/>
      <point x="184" y="633" type="qcurve"/>
      <point x="268" y="633"/>
      <point x="327" y="557"/>
    </contour>
    <contour>
      <point x="277" y="450" type="qcurve"/>
      <point x="277" y="533"/>
      <point x="240" y="588"/>
      <point x="184" y="588" type="qcurve"/>
      <point x="129" y="588"/>
      <point x="90" y="531"/>
      <point x="90" y="450" type="qcurve"/>
      <point x="90" y="367"/>
      <point x="127" y="312"/>
      <point x="184" y="312" type="qcurve"/>
      <point x="239" y="312"/>
      <point x="277" y="369"/>
    </contour>
  </outline>
</glyph>
<glyph name="uni2074" format="1">
  <advance width="336"/>
  <unicode hex="2074"/>
  <outline>
    <contour>
      <point x="310" y="408" type="line"/>
      <point x="310" y="364" type="line"/>
      <point x="257" y="364" type="line"/>
      <point x="257" y="270" type="line"/>
      <point x="208" y="270" type="line"/>
      <point x="208" y="364" type="line"/>
      <point x="32" y="364" type="line"/>
      <point x="32" y="408" type="line"/>
      <point x="79" y="627" type="line"/>
      <point x="126" y="627" type="line"/>
      <point x="81" y="408" type="line"/>
      <point x="209" y="408" type="line"/>
      <point x="209" y="565" type="line"/>
      <point x="257" y="565" type="line"/>
      <point x="257" y="408" type="line"/>
    </contour>
  </outline>
</glyph>
<glyph name="uni2075" format="1">
  <advance width="297"/>
  <unicode hex="2075"/>
  <outline>
    <contour>
      <point x="265" y="375" type="qcurve" smooth="yes"/>
      <point x="265" y="321"/>
      <point x="202" y="265"/>
      <point x="141" y="265" type="qcurve"/>
      <point x="107" y="265"/>
      <point x="51" y="271"/>
      <point x="34" y="277" type="qcurve"/>
      <point x="34" y="320" type="line"/>
      <point x="54" y="316"/>
      <point x="102" y="311"/>
      <point x="129" y="311" type="qcurve"/>
      <point x="176" y="311"/>
      <point x="216" y="341"/>
      <point x="216" y="376" type="qcurve" smooth="yes"/>
      <point x="216" y="408"/>
      <point x="178" y="436"/>
      <point x="127" y="436" type="qcurve" smooth="yes"/>
      <point x="107" y="436"/>
      <point x="69" y="433"/>
      <point x="52" y="430" type="qcurve"/>
      <point x="52" y="627" type="line"/>
      <point x="241" y="627" type="line"/>
      <point x="241" y="584" type="line"/>
      <point x="99" y="584" type="line"/>
      <point x="99" y="472" type="line"/>
      <point x="114" y="474"/>
      <point x="140" y="476"/>
      <point x="150" y="476" type="qcurve" smooth="yes"/>
      <point x="211" y="476"/>
      <point x="265" y="427"/>
    </contour>
  </outline>
</glyph>
<glyph name="uni2076" format="1">
  <advance width="332"/>
  <unicode hex="2076"/>
  <outline>
    <contour>
      <point x="173" y="265" type="qcurve"/>
      <point x="99" y="265"/>
      <point x="39" y="344"/>
      <point x="39" y="439" type="qcurve"/>
      <point x="39" y="543"/>
      <point x="117" y="633"/>
      <point x="205" y="633" type="qcurve"/>
      <point x="222" y="633"/>
      <point x="252" y="630"/>
      <point x="259" y="628" type="qcurve"/>
      <point x="259" y="589" type="line"/>
      <point x="238" y="591"/>
      <point x="211" y="592"/>
      <point x="205" y="592" type="qcurve"/>
      <point x="144" y="592"/>
      <point x="93" y="539"/>
      <point x="88" y="472" type="qcurve"/>
      <point x="116" y="486"/>
      <point x="168" y="499"/>
      <point x="198" y="499" type="qcurve"/>
      <point x="252" y="499"/>
      <point x="303" y="446"/>
      <point x="303" y="389" type="qcurve"/>
      <point x="303" y="331"/>
      <point x="234" y="265"/>
    </contour>
    <contour>
      <point x="256" y="388" type="qcurve"/>
      <point x="256" y="427"/>
      <point x="223" y="458"/>
      <point x="181" y="458" type="qcurve"/>
      <point x="158" y="458"/>
      <point x="110" y="446"/>
      <point x="87" y="435" type="qcurve"/>
      <point x="87" y="364"/>
      <point x="124" y="307"/>
      <point x="171" y="307" type="qcurve"/>
      <point x="213" y="307"/>
      <point x="256" y="349"/>
    </contour>
  </outline>
</glyph>
<glyph name="uni2077" format="1">
  <advance width="291"/>
  <unicode hex="2077"/>
  <outline>
    <contour>
      <point x="267" y="627" type="line"/>
      <point x="267" y="583" type="line"/>
      <point x="89" y="270" type="line"/>
      <point x="32" y="270" type="line"/>
      <point x="213" y="582" type="line"/>
      <point x="29" y="582" type="line"/>
      <point x="29" y="627" type="line"/>
    </contour>
  </outline>
</glyph>
<glyph name="uni2078" format="1">
  <advance width="339"/>
  <unicode hex="2078"/>
  <outline>
    <contour>
      <point x="301" y="365" type="qcurve"/>
      <point x="301" y="313"/>
      <point x="237" y="265"/>
      <point x="168" y="265" type="qcurve"/>
      <point x="100" y="265"/>
      <point x="38" y="311"/>
      <point x="38" y="362" type="qcurve"/>
      <point x="38" y="400"/>
      <point x="78" y="448"/>
      <point x="115" y="454" type="qcurve"/>
      <point x="80" y="460"/>
      <point x="45" y="504"/>
      <point x="45" y="540" type="qcurve"/>
      <point x="45" y="588"/>
      <point x="104" y="633"/>
      <point x="168" y="633" type="qcurve"/>
      <point x="234" y="633"/>
      <point x="294" y="589"/>
      <point x="294" y="541" type="qcurve"/>
      <point x="294" y="505"/>
      <point x="257" y="460"/>
      <point x="222" y="454" type="qcurve"/>
      <point x="260" y="448"/>
      <point x="301" y="402"/>
    </contour>
    <contour>
      <point x="249" y="534" type="qcurve"/>
      <point x="249" y="565"/>
      <point x="211" y="592"/>
      <point x="168" y="592" type="qcurve"/>
      <point x="127" y="592"/>
      <point x="90" y="564"/>
      <point x="90" y="533" type="qcurve"/>
      <point x="90" y="500"/>
      <point x="128" y="471"/>
      <point x="168" y="471" type="qcurve"/>
      <point x="210" y="471"/>
      <point x="249" y="501"/>
    </contour>
    <contour>
      <point x="254" y="371" type="qcurve"/>
      <point x="254" y="403"/>
      <point x="213" y="432"/>
      <point x="168" y="432" type="qcurve"/>
      <point x="125" y="432"/>
      <point x="84" y="401"/>
      <point x="84" y="369" type="qcurve"/>
      <point x="84" y="337"/>
      <point x="125" y="308"/>
      <point x="168" y="308" type="qcurve"/>
      <point x="213" y="308"/>
      <point x="254" y="338"/>
    </contour>
  </outline>
</glyph>
<glyph name="uni2079" format="1">
  <advance width="331"/>
  <unicode hex="2079"/>
  <outline>
    <contour>
      <point x="160" y="633" type="qcurve"/>
      <point x="233" y="633"/>
      <point x="292" y="555"/>
      <point x="292" y="459" type="qcurve"/>
      <point x="292" y="356"/>
      <point x="213" y="265"/>
      <point x="125" y="265" type="qcurve"/>
      <point x="110" y="265"/>
      <point x="77" y="268"/>
      <point x="70" y="270" type="qcurve"/>
      <point x="70" y="311" type="line"/>
      <point x="84" y="309"/>
      <point x="110" y="307"/>
      <point x="125" y="307" type="qcurve"/>
      <point x="186" y="307"/>
      <point x="239" y="361"/>
      <point x="243" y="429" type="qcurve"/>
      <point x="218" y="415"/>
      <point x="166" y="401"/>
      <point x="138" y="401" type="qcurve"/>
      <point x="83" y="401"/>
      <point x="30" y="455"/>
      <point x="30" y="512" type="qcurve"/>
      <point x="30" y="569"/>
      <point x="99" y="633"/>
    </contour>
    <contour>
      <point x="160" y="590" type="qcurve"/>
      <point x="120" y="590"/>
      <point x="78" y="551"/>
      <point x="78" y="514" type="qcurve"/>
      <point x="78" y="474"/>
      <point x="112" y="442"/>
      <point x="155" y="442" type="qcurve"/>
      <point x="179" y="442"/>
      <point x="222" y="454"/>
      <point x="244" y="466" type="qcurve"/>
      <point x="243" y="537"/>
      <point x="208" y="590"/>
    </contour>
  </outline>
</glyph>
